<svg width="24" height="24" viewBox="0 0 24 24" fill="none" xmlns="http://www.w3.org/2000/svg">
<path d="M22.4766 9.68916L21.9211 8.71885C21.8961 8.67607 21.8552 8.64492 21.8074 8.63218C21.7595 8.61945 21.7086 8.62617 21.6656 8.65088L20.4773 9.34463L18.6422 4.27744C18.5453 3.97508 18.3548 3.71134 18.0983 3.5243C17.8417 3.33725 17.5324 3.23658 17.2148 3.23682H7.05938C6.2461 3.23682 5.52422 3.76182 5.27344 4.5376L3.525 9.34697L2.33438 8.65322C2.29145 8.62851 2.24049 8.62179 2.19263 8.63453C2.14476 8.64726 2.10388 8.67842 2.07891 8.72119L1.52344 9.68916C1.47188 9.77822 1.50235 9.89072 1.59141 9.94229L3.00704 10.7673L2.66719 11.7048C2.63907 11.7798 2.625 11.8595 2.625 11.9392V20.1001C2.625 20.4681 2.90157 20.7657 3.24141 20.7657H4.82579C5.11407 20.7657 5.36485 20.5478 5.42579 20.2431L5.60625 19.3595H18.3938L18.5742 20.2431C18.6375 20.5478 18.8859 20.7657 19.1742 20.7657H20.7586C21.0984 20.7657 21.375 20.4681 21.375 20.1001V11.9392C21.375 11.8595 21.3609 11.7798 21.3328 11.7048L20.993 10.7673L22.4063 9.94229C22.4488 9.91772 22.48 9.87743 22.4932 9.8301C22.5063 9.78276 22.5003 9.73215 22.4766 9.68916ZM6.1875 14.5548C5.66954 14.5548 5.25 14.1353 5.25 13.6173C5.25 13.0993 5.66954 12.6798 6.1875 12.6798C6.70547 12.6798 7.125 13.0993 7.125 13.6173C7.125 14.1353 6.70547 14.5548 6.1875 14.5548ZM15.2813 16.3126C15.2813 16.4157 15.1969 16.5001 15.0938 16.5001H8.90625C8.80313 16.5001 8.71875 16.4157 8.71875 16.3126V14.3438C8.71875 14.2407 8.80313 14.1563 8.90625 14.1563H9.84375C9.94688 14.1563 10.0313 14.2407 10.0313 14.3438V15.1876H13.9688V14.3438C13.9688 14.2407 14.0531 14.1563 14.1563 14.1563H15.0938C15.1969 14.1563 15.2813 14.2407 15.2813 14.3438V16.3126ZM17.8125 14.5548C17.2945 14.5548 16.875 14.1353 16.875 13.6173C16.875 13.0993 17.2945 12.6798 17.8125 12.6798C18.3305 12.6798 18.75 13.0993 18.75 13.6173C18.75 14.1353 18.3305 14.5548 17.8125 14.5548ZM5.15625 9.79697L6.86016 5.11182L6.87188 5.08135L6.88125 5.05088C6.90704 4.97354 6.97735 4.92197 7.05938 4.92197H17.0813L18.8484 9.79697H5.15625Z" fill="url(#paint0_linear_2362_13628)"/>
<defs>
<linearGradient id="paint0_linear_2362_13628" x1="1.49835" y1="3.23682" x2="23.7414" y2="4.98674" gradientUnits="userSpaceOnUse">
<stop stop-color="#D92322"/>
<stop offset="1" stop-color="#7C142F"/>
</linearGradient>
</defs>
</svg>
