<svg width="12" height="13" viewBox="0 0 12 13" fill="none" xmlns="http://www.w3.org/2000/svg">
<path d="M10.9735 5.08951C10.9421 4.99694 10.8842 4.9156 10.8071 4.85554C10.73 4.79547 10.637 4.75931 10.5395 4.75151L7.68901 4.52501L6.45551 1.79451C6.41623 1.70656 6.35233 1.63187 6.27154 1.57944C6.19074 1.527 6.09649 1.49908 6.00018 1.49902C5.90386 1.49897 5.80958 1.52679 5.72873 1.57914C5.64787 1.63148 5.58389 1.70611 5.54451 1.79401L4.31101 4.52501L1.46051 4.75151C1.36474 4.75909 1.27318 4.79411 1.19679 4.85237C1.1204 4.91063 1.06241 4.98967 1.02976 5.08002C0.99711 5.17038 0.991182 5.26822 1.01269 5.36186C1.03419 5.45549 1.08221 5.54095 1.15101 5.60801L3.25751 7.66151L2.51251 10.8875C2.48989 10.9852 2.49714 11.0874 2.53332 11.1808C2.5695 11.2743 2.63295 11.3548 2.71541 11.4117C2.79788 11.4687 2.89557 11.4996 2.99581 11.5003C3.09604 11.5011 3.19419 11.4717 3.27751 11.416L6.00001 9.60101L8.72251 11.416C8.80768 11.4726 8.90812 11.5017 9.01033 11.4994C9.11254 11.4972 9.2116 11.4637 9.29421 11.4035C9.37682 11.3432 9.439 11.2592 9.4724 11.1625C9.50579 11.0659 9.5088 10.9614 9.48101 10.863L8.56651 7.66301L10.8345 5.62201C10.983 5.48801 11.0375 5.27901 10.9735 5.08951Z" fill="#FFCB2F"/>
</svg>
