<svg width="375" height="256" viewBox="0 0 375 256" fill="none" xmlns="http://www.w3.org/2000/svg">
<rect width="375" height="256" fill="#EEF2F8"/>
<path d="M196.988 89.75C201.11 89.7925 204.467 91.9151 206.422 95.7358C206.927 96.7441 207.631 98.2167 208.368 99.7701L209.258 101.648L209.695 102.571L210.12 103.505C210.29 103.802 210.588 104.014 210.97 104.014C221.17 104.014 229.5 112.335 229.5 122.524V147.741C229.5 157.929 221.17 166.25 210.97 166.25H163.03C152.788 166.25 144.5 157.929 144.5 147.741V122.524C144.5 112.335 152.788 104.014 163.03 104.014C163.37 104.014 163.71 103.844 163.838 103.505L164.093 102.995C165.283 100.491 166.727 97.434 167.577 95.7358C169.532 91.9151 172.847 89.7925 176.97 89.75H196.988ZM187 116.962C182.538 116.962 178.33 118.703 175.143 121.887C171.998 125.071 170.255 129.231 170.298 133.646C170.298 138.104 172.04 142.264 175.185 145.448C178.372 148.59 182.538 150.33 187 150.33C191.59 150.33 195.755 148.462 198.773 145.448C201.79 142.434 203.66 138.274 203.703 133.646C203.703 129.231 201.96 125.028 198.815 121.844C195.67 118.703 191.462 116.962 187 116.962ZM187 123.33C189.762 123.33 192.355 124.392 194.31 126.344C196.265 128.297 197.328 130.887 197.328 133.646C197.285 139.335 192.695 143.962 187 143.962C184.238 143.962 181.645 142.901 179.69 140.948C177.735 138.995 176.673 136.406 176.673 133.646V133.604C176.63 130.929 177.693 128.34 179.648 126.387C181.645 124.392 184.238 123.33 187 123.33ZM210.842 115.943C208.717 115.943 207.018 117.684 207.018 119.807C207.018 121.929 208.717 123.627 210.842 123.627C212.967 123.627 214.71 121.929 214.71 119.807C214.71 117.684 212.967 115.943 210.842 115.943Z" fill="#293345" fill-opacity="0.15"/>
</svg>
