<svg width="18" height="18" viewBox="0 0 18 18" fill="none" xmlns="http://www.w3.org/2000/svg">
<path d="M5.0625 5.0625C4.91332 5.0625 4.77024 5.12176 4.66475 5.22725C4.55926 5.33274 4.5 5.47582 4.5 5.625C4.5 5.77418 4.55926 5.91726 4.66475 6.02275C4.77024 6.12824 4.91332 6.1875 5.0625 6.1875H12.9375C13.0867 6.1875 13.2298 6.12824 13.3352 6.02275C13.4407 5.91726 13.5 5.77418 13.5 5.625C13.5 5.47582 13.4407 5.33274 13.3352 5.22725C13.2298 5.12176 13.0867 5.0625 12.9375 5.0625H5.0625ZM4.6875 2.25C4.04103 2.25 3.42105 2.50681 2.96393 2.96393C2.50681 3.42105 2.25 4.04103 2.25 4.6875V13.3125C2.25 13.959 2.50681 14.579 2.96393 15.0361C3.42105 15.4932 4.04103 15.75 4.6875 15.75H13.3125C13.959 15.75 14.579 15.4932 15.0361 15.0361C15.4932 14.579 15.75 13.959 15.75 13.3125V4.6875C15.75 4.04103 15.4932 3.42105 15.0361 2.96393C14.579 2.50681 13.959 2.25 13.3125 2.25H4.6875ZM3.375 4.6875C3.375 3.963 3.963 3.375 4.6875 3.375H13.3125C14.037 3.375 14.625 3.963 14.625 4.6875V13.3125C14.625 13.6606 14.4867 13.9944 14.2406 14.2406C13.9944 14.4867 13.6606 14.625 13.3125 14.625H4.6875C4.3394 14.625 4.00556 14.4867 3.75942 14.2406C3.51328 13.9944 3.375 13.6606 3.375 13.3125V4.6875Z" fill="url(#paint0_linear_2279_16986)"/>
<defs>
<linearGradient id="paint0_linear_2279_16986" x1="9" y1="2.25" x2="9" y2="15.75" gradientUnits="userSpaceOnUse">
<stop stop-color="#D92322"/>
<stop offset="1" stop-color="#C00808"/>
</linearGradient>
</defs>
</svg>
