<svg width="375" height="294" viewBox="0 0 375 294" fill="none" xmlns="http://www.w3.org/2000/svg">
<path fill-rule="evenodd" clip-rule="evenodd" d="M375 0H0V256H28C28 233.909 45.9086 216 68 216C90.0914 216 108 233.909 108 256H375V0Z" fill="#EEF2F8"/>
<path d="M196.988 107.75C201.11 107.792 204.467 109.915 206.423 113.736C206.927 114.744 207.631 116.217 208.368 117.77L209.258 119.648L209.695 120.571L210.12 121.505C210.29 121.802 210.588 122.014 210.97 122.014C221.17 122.014 229.5 130.335 229.5 140.524V165.741C229.5 175.929 221.17 184.25 210.97 184.25H163.03C152.788 184.25 144.5 175.929 144.5 165.741V140.524C144.5 130.335 152.788 122.014 163.03 122.014C163.37 122.014 163.71 121.844 163.838 121.505L164.093 120.995C165.283 118.491 166.727 115.434 167.577 113.736C169.532 109.915 172.847 107.792 176.97 107.75H196.988ZM187 134.962C182.537 134.962 178.33 136.703 175.142 139.887C171.997 143.071 170.255 147.231 170.298 151.646C170.298 156.104 172.04 160.264 175.185 163.448C178.372 166.59 182.537 168.33 187 168.33C191.59 168.33 195.755 166.462 198.773 163.448C201.79 160.434 203.66 156.274 203.702 151.646C203.702 147.231 201.96 143.028 198.815 139.844C195.67 136.703 191.463 134.962 187 134.962ZM187 141.33C189.763 141.33 192.355 142.392 194.31 144.344C196.265 146.297 197.327 148.887 197.327 151.646C197.285 157.335 192.695 161.962 187 161.962C184.237 161.962 181.645 160.901 179.69 158.948C177.735 156.995 176.673 154.406 176.673 151.646V151.604C176.63 148.929 177.693 146.34 179.648 144.387C181.645 142.392 184.237 141.33 187 141.33ZM210.842 133.943C208.717 133.943 207.018 135.684 207.018 137.807C207.018 139.929 208.717 141.627 210.842 141.627C212.967 141.627 214.71 139.929 214.71 137.807C214.71 135.684 212.967 133.943 210.842 133.943Z" fill="#293345" fill-opacity="0.15"/>
<circle cx="68" cy="256" r="38" fill="#EEF2F8"/>
<path d="M71.7313 243.125C73.065 243.139 74.1512 243.825 74.7837 245.062C74.947 245.388 75.1748 245.864 75.4132 246.367L75.7011 246.975L75.8425 247.273L75.98 247.575C76.035 247.671 76.1313 247.74 76.255 247.74C79.555 247.74 82.25 250.432 82.25 253.728V261.887C82.25 265.183 79.555 267.875 76.255 267.875H60.745C57.4313 267.875 54.75 265.183 54.75 261.887V253.728C54.75 250.432 57.4313 247.74 60.745 247.74C60.855 247.74 60.965 247.685 61.0063 247.575L61.0888 247.41C61.4738 246.6 61.9412 245.611 62.2162 245.062C62.8488 243.825 63.9212 243.139 65.255 243.125H71.7313ZM68.5 251.929C67.0562 251.929 65.695 252.492 64.6637 253.522C63.6462 254.552 63.0825 255.898 63.0963 257.327C63.0963 258.769 63.66 260.115 64.6775 261.145C65.7087 262.161 67.0562 262.724 68.5 262.724C69.985 262.724 71.3325 262.12 72.3088 261.145C73.285 260.17 73.89 258.824 73.9038 257.327C73.9038 255.898 73.34 254.539 72.3225 253.508C71.305 252.492 69.9438 251.929 68.5 251.929ZM68.5 253.989C69.3938 253.989 70.2325 254.333 70.865 254.964C71.4975 255.596 71.8413 256.434 71.8413 257.327C71.8275 259.167 70.3425 260.664 68.5 260.664C67.6062 260.664 66.7675 260.321 66.135 259.689C65.5025 259.057 65.1588 258.219 65.1588 257.327V257.313C65.145 256.448 65.4888 255.61 66.1213 254.978C66.7675 254.333 67.6062 253.989 68.5 253.989ZM76.2137 251.599C75.5262 251.599 74.9762 252.162 74.9762 252.849C74.9762 253.536 75.5262 254.085 76.2137 254.085C76.9012 254.085 77.465 253.536 77.465 252.849C77.465 252.162 76.9012 251.599 76.2137 251.599Z" fill="#293345" fill-opacity="0.15"/>
</svg>
