<svg width="37" height="36" viewBox="0 0 37 36" fill="none" xmlns="http://www.w3.org/2000/svg">
<path d="M21.5 28.5C27.1565 28.5 29.9855 28.5 31.742 26.742C33.5 24.9855 33.5 22.1565 33.5 16.5C33.5 10.8435 33.5 8.0145 31.742 6.258C29.9855 4.5 27.1565 4.5 21.5 4.5H15.5C9.8435 4.5 7.0145 4.5 5.258 6.258C3.5 8.0145 3.5 10.8435 3.5 16.5C3.5 22.1565 3.5 24.9855 5.258 26.742C6.2375 27.723 7.55 28.1565 9.5 28.347" stroke="white" stroke-width="2" stroke-linecap="round" stroke-linejoin="round"/>
<path d="M21.5 28.5C19.646 28.5 17.603 29.25 15.7385 30.2175C12.7415 31.773 11.243 32.5515 10.505 32.055C9.76699 31.56 9.9065 30.0225 10.187 26.949L10.25 26.25" stroke="white" stroke-width="2" stroke-linecap="round"/>
</svg>
