<svg width="14" height="14" viewBox="0 0 14 14" fill="none" xmlns="http://www.w3.org/2000/svg">
<path d="M7.76593e-05 5.24068C-0.00185154 5.35892 0.0322034 5.47495 0.0977271 5.57339C0.163251 5.67183 0.257148 5.74803 0.36697 5.79189L5.96717 8.03232L8.2076 13.6331C8.25088 13.7414 8.32565 13.8343 8.42225 13.8997C8.51884 13.9651 8.63283 14 8.74949 14H8.75882C8.87696 13.9981 8.99174 13.9604 9.08798 13.8919C9.18423 13.8234 9.25739 13.7272 9.29778 13.6162L13.9641 0.783729C14.0023 0.679334 14.0099 0.566198 13.986 0.457644C13.962 0.34909 13.9075 0.249639 13.829 0.171004C13.7504 0.0923686 13.651 0.0378234 13.5425 0.0137924C13.4339 -0.0102385 13.3208 -0.00275458 13.2163 0.0353627L0.383885 4.70171C0.272806 4.74221 0.176639 4.81548 0.108105 4.91182C0.0395721 5.00816 0.00190173 5.12304 7.76593e-05 5.24126V5.24068Z" fill="white"/>
</svg>
