<svg width="18" height="18" viewBox="0 0 18 18" fill="none" xmlns="http://www.w3.org/2000/svg">
<path fill-rule="evenodd" clip-rule="evenodd" d="M3.75 5.25H14.25C14.4489 5.25 14.6397 5.32902 14.7803 5.46967C14.921 5.61032 15 5.80109 15 6V12C15 12.1989 14.921 12.3897 14.7803 12.5303C14.6397 12.671 14.4489 12.75 14.25 12.75H3.75C3.55109 12.75 3.36032 12.671 3.21967 12.5303C3.07902 12.3897 3 12.1989 3 12V6C3 5.80109 3.07902 5.61032 3.21967 5.46967C3.36032 5.32902 3.55109 5.25 3.75 5.25ZM1.5 6C1.5 5.40326 1.73705 4.83097 2.15901 4.40901C2.58097 3.98705 3.15326 3.75 3.75 3.75H14.25C14.8467 3.75 15.419 3.98705 15.841 4.40901C16.2629 4.83097 16.5 5.40326 16.5 6V12C16.5 12.5967 16.2629 13.169 15.841 13.591C15.419 14.0129 14.8467 14.25 14.25 14.25H3.75C3.15326 14.25 2.58097 14.0129 2.15901 13.591C1.73705 13.169 1.5 12.5967 1.5 12V6ZM7.5 6.75L10.5 9L7.5 11.25V6.75Z" fill="url(#paint0_linear_2279_16982)"/>
<defs>
<linearGradient id="paint0_linear_2279_16982" x1="9" y1="3.75" x2="9" y2="14.25" gradientUnits="userSpaceOnUse">
<stop stop-color="#D92322"/>
<stop offset="1" stop-color="#C00808"/>
</linearGradient>
</defs>
</svg>
