<svg width="24" height="24" viewBox="0 0 24 24" fill="none" xmlns="http://www.w3.org/2000/svg">
<path d="M21.3333 2.66602H2.66665C2.31302 2.66602 1.97389 2.80649 1.72384 3.05654C1.47379 3.30659 1.33331 3.64573 1.33331 3.99935V19.9993C1.33331 20.353 1.47379 20.6921 1.72384 20.9422C1.97389 21.1922 2.31302 21.3327 2.66665 21.3327H21.3333C21.6869 21.3327 22.0261 21.1922 22.2761 20.9422C22.5262 20.6921 22.6666 20.353 22.6666 19.9993V3.99935C22.6666 3.64573 22.5262 3.30659 22.2761 3.05654C22.0261 2.80649 21.6869 2.66602 21.3333 2.66602ZM5.94665 5.33268C6.34221 5.33268 6.72889 5.44998 7.05779 5.66974C7.38668 5.88951 7.64303 6.20186 7.79441 6.56732C7.94578 6.93277 7.98539 7.3349 7.90822 7.72286C7.83105 8.11083 7.64056 8.46719 7.36086 8.7469C7.08115 9.0266 6.72479 9.21708 6.33683 9.29425C5.94886 9.37142 5.54673 9.33182 5.18128 9.18044C4.81583 9.02907 4.50347 8.77272 4.28371 8.44382C4.06394 8.11492 3.94665 7.72825 3.94665 7.33268C3.94665 6.80225 4.15736 6.29354 4.53243 5.91847C4.90751 5.5434 5.41621 5.33268 5.94665 5.33268ZM3.99998 17.9993V15.266L7.99998 11.2127C8.12489 11.0885 8.29386 11.0188 8.46998 11.0188C8.6461 11.0188 8.81507 11.0885 8.93998 11.2127L10.6666 12.8993L5.54665 17.9993H3.99998ZM20 17.9993H7.43331L11.5866 13.846L15.1866 10.246C15.3116 10.1218 15.4805 10.0522 15.6566 10.0522C15.8328 10.0522 16.0017 10.1218 16.1266 10.246L20 14.1193V17.9993Z" fill="#5B667A"/>
</svg>
