<svg width="18" height="18" viewBox="0 0 18 18" fill="none" xmlns="http://www.w3.org/2000/svg">
<path d="M10.5 2.25H13.8C13.9193 2.25 14.0338 2.29741 14.1182 2.3818C14.2026 2.46619 14.25 2.58065 14.25 2.7V15.3C14.25 15.4193 14.2026 15.5338 14.1182 15.6182C14.0338 15.7026 13.9193 15.75 13.8 15.75H10.5M7.5 2.25H4.2C4.08065 2.25 3.96619 2.29741 3.8818 2.3818C3.79741 2.46619 3.75 2.58065 3.75 2.7V15.3C3.75 15.4193 3.79741 15.5338 3.8818 15.6182C3.96619 15.7026 4.08065 15.75 4.2 15.75H7.5V2.25ZM8.25 5.25H9.75H8.25ZM8.25 9H9.75H8.25ZM8.25 12.75H9.75H8.25Z" stroke="url(#paint0_linear_2279_16963)" stroke-width="1.5" stroke-linecap="round" stroke-linejoin="round"/>
<defs>
<linearGradient id="paint0_linear_2279_16963" x1="9" y1="2.25" x2="9" y2="15.75" gradientUnits="userSpaceOnUse">
<stop stop-color="#D92322"/>
<stop offset="1" stop-color="#C00808"/>
</linearGradient>
</defs>
</svg>
