<svg width="21" height="20" viewBox="0 0 21 20" fill="none" xmlns="http://www.w3.org/2000/svg">
<path d="M15.4323 12.6563C14.7192 12.656 14.0345 12.9352 13.5249 13.434L8.5573 10.641C8.65937 10.2198 8.65937 9.78024 8.5573 9.35899L13.5233 6.56603C13.9873 7.0173 14.5967 7.28872 15.2424 7.33168C15.8882 7.37464 16.5282 7.18635 17.0479 6.80051C17.5675 6.41467 17.9328 5.85648 18.0785 5.22586C18.2241 4.59525 18.1405 3.93338 17.8427 3.35876C17.5449 2.78414 17.0523 2.33428 16.453 2.08973C15.8538 1.84517 15.1871 1.82187 14.5722 2.02402C13.9574 2.22616 13.4346 2.64054 13.0974 3.19298C12.7602 3.74541 12.6306 4.39983 12.7319 5.03907L7.6487 7.89845C7.24943 7.56579 6.76363 7.3538 6.24821 7.28732C5.73279 7.22084 5.2091 7.30261 4.73849 7.52307C4.26787 7.74352 3.86983 8.09352 3.59098 8.53206C3.31213 8.97061 3.16404 9.47954 3.16404 9.99923C3.16404 10.5189 3.31213 11.0278 3.59098 11.4664C3.86983 11.9049 4.26787 12.2549 4.73849 12.4754C5.2091 12.6958 5.73279 12.7776 6.24821 12.7111C6.76363 12.6446 7.24943 12.4327 7.6487 12.1L12.7319 14.9609C12.644 15.5132 12.7276 16.0791 12.9713 16.5824C13.215 17.0857 13.6072 17.5021 14.095 17.7756C14.5827 18.0491 15.1426 18.1665 15.6991 18.112C16.2556 18.0574 16.7821 17.8335 17.2074 17.4705C17.6327 17.1075 17.9366 16.6228 18.0779 16.0817C18.2192 15.5407 18.1913 14.9693 17.9978 14.4447C17.8044 13.92 17.4547 13.4673 16.996 13.1475C16.5372 12.8277 15.9915 12.6563 15.4323 12.6563Z" fill="#717E95"/>
</svg>
