<svg width="24" height="24" viewBox="0 0 24 24" fill="none" xmlns="http://www.w3.org/2000/svg">
<path d="M7.5 11.8965C7.50285 12.8434 7.60841 13.7864 7.81437 14.7047H11.1V9.30469H7.76873C7.59346 10.1547 7.50332 11.024 7.5 11.8965Z" fill="#5B667A"/>
<path d="M12 9.30469V14.7047H16.0783C16.3446 13.7876 16.4862 12.8446 16.5 11.8965C16.4979 11.0242 16.3882 10.1549 16.1727 9.30469H12Z" fill="#5B667A"/>
<path d="M12 3C10.22 3 8.47991 3.52784 6.99987 4.51677C5.51983 5.50571 4.36628 6.91131 3.68509 8.55585C3.0039 10.2004 2.82567 12.01 3.17294 13.7558C3.5202 15.5016 4.37737 17.1053 5.63604 18.364C6.89471 19.6226 8.49836 20.4798 10.2442 20.8271C11.99 21.1743 13.7996 20.9961 15.4442 20.3149C17.0887 19.6337 18.4943 18.4802 19.4832 17.0001C20.4722 15.5201 21 13.78 21 12C21 9.61305 20.0518 7.32387 18.364 5.63604C16.6761 3.94821 14.387 3 12 3ZM18.8738 15.7744H16.8375C16.4525 16.9797 15.8833 18.1182 15.15 19.1494C14.6089 19.3852 14.0428 19.5588 13.4625 19.6669C14.5017 18.5377 15.3015 17.2097 15.8138 15.7631H12.4838V19.785H11.5331V15.7744H8.18625C8.6978 17.223 9.49765 18.5529 10.5375 19.6837C9.96918 19.5769 9.41452 19.4071 8.88375 19.1775C8.1479 18.1377 7.57858 16.9895 7.19625 15.7744H5.12625C4.94656 15.4466 4.79053 15.1063 4.65938 14.7562H6.90938C6.69855 13.8525 6.58912 12.928 6.58313 12C6.58344 11.1398 6.67393 10.282 6.85313 9.44062H4.5525C4.6708 9.09158 4.81365 8.75136 4.98 8.4225H7.12313C7.52525 7.08321 8.14888 5.82074 8.96813 4.6875C9.48764 4.47224 10.0289 4.31382 10.5825 4.215C9.4635 5.41596 8.619 6.84586 8.1075 8.40562H11.5331V4.125H12.4838V8.4225H15.9094C15.3988 6.86524 14.5563 5.43736 13.44 4.2375C13.9927 4.32918 14.5339 4.48005 15.0544 4.6875C15.8689 5.81256 16.4905 7.06528 16.8938 8.39437H19.0144C19.1807 8.72324 19.3236 9.06347 19.4419 9.4125H17.1581C17.3412 10.2628 17.4336 11.1302 17.4338 12C17.4309 12.9335 17.3233 13.8636 17.1131 14.7731H19.3631C19.224 15.1181 19.0604 15.4527 18.8738 15.7744Z" fill="#5B667A"/>
</svg>
