<svg width="24" height="24" viewBox="0 0 24 24" fill="none" xmlns="http://www.w3.org/2000/svg">
<path d="M9.2801 15.8241L14.1347 15.839C14.4374 15.8401 14.6824 16.0935 14.6824 16.4043V19.1353C14.6824 19.4471 14.5053 19.7293 14.2294 19.8597L9.8227 21.9289C9.71974 21.9767 9.6106 22 9.50147 22C9.35629 22 9.21112 21.9576 9.08448 21.8738C8.86311 21.7274 8.72927 21.475 8.72927 21.2046V16.3894C8.72927 16.0766 8.97637 15.8231 9.2801 15.8241ZM19.8718 2C21.0476 2 22 2.98105 22 4.19225V5.72376C22 6.31133 21.7704 6.87557 21.3627 7.28708L14.8577 13.867C14.7454 13.9816 14.5931 14.0452 14.4355 14.0442L8.98893 14.0272C8.82317 14.0272 8.66564 13.9561 8.55238 13.832L2.57452 7.25738C2.20489 6.85117 2 6.31451 2 5.7577V4.19332C2 2.98211 2.95238 2 4.12819 2H19.8718Z" fill="url(#paint0_linear_247_5099)"/>
<defs>
<linearGradient id="paint0_linear_247_5099" x1="2" y1="2" x2="23.2218" y2="3.39351" gradientUnits="userSpaceOnUse">
<stop stop-color="#D92322"/>
<stop offset="1" stop-color="#7C142F"/>
</linearGradient>
</defs>
</svg>
