<svg width="24" height="24" viewBox="0 0 24 24" fill="none" xmlns="http://www.w3.org/2000/svg">
<path d="M18 10.7984H16.8V7.19844C16.8 4.55844 14.64 2.39844 12 2.39844C9.35999 2.39844 7.19999 4.55844 7.19999 7.19844V10.7984H5.99999C5.39999 10.7984 4.79999 11.3984 4.79999 11.9984V20.3984C4.79999 20.9984 5.39999 21.5984 5.99999 21.5984H18C18.6 21.5984 19.2 20.9984 19.2 20.3984V11.9984C19.2 11.3984 18.6 10.7984 18 10.7984ZM13.2 19.1984H10.8L11.28 16.5584C10.68 16.3184 10.2 15.5984 10.2 14.9984C10.2 14.0384 11.04 13.1984 12 13.1984C12.96 13.1984 13.8 14.0384 13.8 14.9984C13.8 15.7184 13.44 16.3184 12.72 16.5584L13.2 19.1984ZM14.4 10.7984H9.59999V7.19844C9.59999 5.87844 10.68 4.79844 12 4.79844C13.32 4.79844 14.4 5.87844 14.4 7.19844V10.7984Z" fill="#D92322"/>
</svg>
