<svg width="50" height="49" viewBox="0 0 50 49" fill="none" xmlns="http://www.w3.org/2000/svg">
<g filter="url(#filter0_d_74_1830)">
<circle cx="25" cy="24" r="22" fill="url(#paint0_linear_74_1830)"/>
<path d="M25 19C25.1658 19 25.3247 19.0658 25.4419 19.1831C25.5592 19.3003 25.625 19.4592 25.625 19.625V23.375H29.375C29.5408 23.375 29.6997 23.4408 29.8169 23.5581C29.9342 23.6753 30 23.8342 30 24C30 24.1658 29.9342 24.3247 29.8169 24.4419C29.6997 24.5592 29.5408 24.625 29.375 24.625H25.625V28.375C25.625 28.5408 25.5592 28.6997 25.4419 28.8169C25.3247 28.9342 25.1658 29 25 29C24.8342 29 24.6753 28.9342 24.5581 28.8169C24.4408 28.6997 24.375 28.5408 24.375 28.375V24.625H20.625C20.4592 24.625 20.3003 24.5592 20.1831 24.4419C20.0658 24.3247 20 24.1658 20 24C20 23.8342 20.0658 23.6753 20.1831 23.5581C20.3003 23.4408 20.4592 23.375 20.625 23.375H24.375V19.625C24.375 19.4592 24.4408 19.3003 24.5581 19.1831C24.6753 19.0658 24.8342 19 25 19Z" fill="white"/>
</g>
<defs>
<filter id="filter0_d_74_1830" x="-1" y="0" width="52" height="52" filterUnits="userSpaceOnUse" color-interpolation-filters="sRGB">
<feFlood flood-opacity="0" result="BackgroundImageFix"/>
<feColorMatrix in="SourceAlpha" type="matrix" values="0 0 0 0 0 0 0 0 0 0 0 0 0 0 0 0 0 0 127 0" result="hardAlpha"/>
<feOffset dy="2"/>
<feGaussianBlur stdDeviation="2"/>
<feComposite in2="hardAlpha" operator="out"/>
<feColorMatrix type="matrix" values="0 0 0 0 0 0 0 0 0 0 0 0 0 0 0 0 0 0 0.25 0"/>
<feBlend mode="normal" in2="BackgroundImageFix" result="effect1_dropShadow_74_1830"/>
<feBlend mode="normal" in="SourceGraphic" in2="effect1_dropShadow_74_1830" result="shape"/>
</filter>
<linearGradient id="paint0_linear_74_1830" x1="3" y1="2" x2="49.6879" y2="5.06572" gradientUnits="userSpaceOnUse">
<stop stop-color="#D92322"/>
<stop offset="1" stop-color="#7C142F"/>
</linearGradient>
</defs>
</svg>
