<svg width="18" height="18" viewBox="0 0 18 18" fill="none" xmlns="http://www.w3.org/2000/svg">
<path d="M9.02498 1.5C12.5398 1.51381 15.3887 4.38148 15.375 7.89174V7.96146C15.3275 10.47 13.8194 12.5517 12.5628 13.856C12.2052 14.2289 11.8246 14.5867 11.432 14.9208C11.1969 15.1214 10.8439 15.0938 10.6431 14.859C10.4422 14.6235 10.4705 14.271 10.7056 14.0704C11.0692 13.7606 11.4228 13.4278 11.7554 13.0812C12.8737 11.9209 14.2145 10.0866 14.2553 7.94107C14.2665 4.99382 11.9187 2.62931 9.02037 2.61747H8.99995C6.11147 2.61747 3.75576 4.95896 3.74457 7.8457C3.79396 9.27164 4.27603 10.6272 5.13942 11.7644C6.14703 13.1062 7.67557 14.5268 9.12837 15.4726C9.38785 15.641 9.46095 15.987 9.2917 16.2461C9.18501 16.4106 9.00522 16.5 8.82214 16.5C8.71742 16.5 8.61205 16.4711 8.51722 16.4092C6.96168 15.397 5.32448 13.875 4.24508 12.4379C3.2434 11.1179 2.68295 9.54262 2.625 7.8845C2.63883 4.33938 5.49636 1.5 8.99995 1.5H9.02498ZM8.99797 5.53756C10.3355 5.53756 11.4241 6.62411 11.4241 7.9606C11.4241 9.29644 10.3355 10.383 8.99797 10.383C7.66042 10.383 6.57181 9.29644 6.57181 7.9606C6.57181 7.65147 6.82272 7.40154 7.13159 7.40154C7.44046 7.40154 7.69137 7.65147 7.69137 7.9606C7.69137 8.67949 8.2775 9.26552 8.99797 9.26552C9.71845 9.26552 10.3046 8.67949 10.3046 7.9606C10.3046 7.24106 9.71845 6.65503 8.99797 6.65503C8.68911 6.65503 8.43819 6.40509 8.43819 6.09662C8.43819 5.78749 8.68911 5.53756 8.99797 5.53756Z" fill="#5B667A"/>
</svg>
