<svg width="18" height="18" viewBox="0 0 18 18" fill="none" xmlns="http://www.w3.org/2000/svg">
<path d="M8.57736 0.666016C10.6462 0.666016 12.3334 2.32435 12.3334 4.36602V8.35768H7.24621C6.88162 8.35768 6.59335 8.64102 6.59335 8.99935C6.59335 9.34935 6.88162 9.64102 7.24621 9.64102H12.3334V13.6243C12.3334 15.666 10.6462 17.3327 8.5604 17.3327H4.43128C2.35401 17.3327 0.666748 15.6743 0.666748 13.6327V4.37435C0.666748 2.32435 2.36248 0.666016 4.43976 0.666016H8.57736ZM14.4502 6.12452C14.7002 5.86618 15.1086 5.86618 15.3586 6.11618L17.7919 8.54118C17.9169 8.66618 17.9836 8.82452 17.9836 8.99952C17.9836 9.16618 17.9169 9.33285 17.7919 9.44952L15.3586 11.8745C15.2336 11.9995 15.0669 12.0662 14.9086 12.0662C14.7419 12.0662 14.5752 11.9995 14.4502 11.8745C14.2002 11.6245 14.2002 11.2162 14.4502 10.9662L15.7836 9.64118H12.3336V8.35785H15.7836L14.4502 7.03285C14.2002 6.78285 14.2002 6.37452 14.4502 6.12452Z" fill="url(#paint0_linear_226_4790)"/>
<defs>
<linearGradient id="paint0_linear_226_4790" x1="0.666748" y1="0.666016" x2="19.0352" y2="1.91921" gradientUnits="userSpaceOnUse">
<stop stop-color="#D92322"/>
<stop offset="1" stop-color="#7C142F"/>
</linearGradient>
</defs>
</svg>
