<svg width="327" height="279" viewBox="0 0 327 279" fill="none" xmlns="http://www.w3.org/2000/svg">
<path d="M163.5 278.981C253.799 278.981 327 238.95 327 189.57C327 140.189 253.799 100.158 163.5 100.158C73.2014 100.158 0 140.189 0 189.57C0 238.95 73.2014 278.981 163.5 278.981Z" fill="#F5F5F5"/>
<path d="M55.0531 233.649C74.1923 233.649 89.7077 224.693 89.7077 213.644C89.7077 202.595 74.1923 193.638 55.0531 193.638C35.9138 193.638 20.3984 202.595 20.3984 213.644C20.3984 224.693 35.9138 233.649 55.0531 233.649Z" fill="#E0E0E0"/>
<path d="M12.5513 41.5397C15.5151 39.9762 19.5385 40.28 23.9694 42.8438C26.0898 44.0963 28.0335 45.6263 29.7489 47.3932C36.01 53.7062 40.4558 63.2424 40.4558 71.4077C40.4558 81.9367 47.8654 94.7257 56.9569 99.9939L73.4581 109.515L143.783 68.9255L127.304 59.3968C118.197 54.1434 110.802 41.3396 110.802 30.818C110.802 20.2964 103.393 7.50742 94.3013 2.24662C89.8555 -0.33933 85.7506 -0.613481 82.7794 1.01663L82.3792 1.23891L59.1798 14.6429L55.475 16.7546L12.5513 41.5397Z" fill="#E6E6E6"/>
<path d="M221.012 98.149C220.931 98.0951 220.836 98.0664 220.738 98.0664C220.641 98.0664 220.545 98.0951 220.464 98.149L218.441 99.3271C218.225 99.4735 218.045 99.6681 217.916 99.8957C217.788 100.123 217.714 100.378 217.7 100.639V124.401L302.91 172.749L306.267 147.341L221.012 98.149Z" fill="#263238"/>
<path d="M306.231 147.311C306.146 147.281 306.055 147.272 305.966 147.285C305.877 147.298 305.792 147.332 305.72 147.385L303.652 148.534C303.427 148.667 303.242 148.859 303.119 149.089L217.886 99.8822C218.016 99.6563 218.199 99.4656 218.42 99.3265L220.457 98.1558C220.539 98.102 220.634 98.0732 220.732 98.0732C220.829 98.0732 220.924 98.102 221.006 98.1558V98.1558L306.231 147.311Z" fill="#455A64"/>
<path d="M305.719 147.379L303.652 148.535C303.435 148.681 303.254 148.875 303.126 149.103C302.997 149.331 302.924 149.585 302.911 149.847V172.727L306.468 174.758V147.794C306.475 147.335 306.134 147.142 305.719 147.379Z" fill="#37474F"/>
<path d="M302.918 172.749V174.312L297.591 176.683L212.336 127.454L217.663 124.401L302.918 172.749Z" fill="black"/>
<path d="M299.369 179.766L305.719 176.061C305.937 175.916 306.117 175.722 306.246 175.494C306.375 175.266 306.448 175.011 306.46 174.75L302.904 172.72C302.892 172.981 302.819 173.236 302.69 173.464C302.562 173.692 302.381 173.887 302.163 174.031L300.125 175.209C299.71 175.446 299.384 175.254 299.384 174.772L299.369 179.766Z" fill="#37474F"/>
<path d="M318.982 177.29C319.378 177.02 319.704 176.66 319.935 176.241C320.167 175.821 320.297 175.354 320.316 174.875V97.9856C320.29 97.4913 320.148 97.0102 319.901 96.5814C319.653 96.1526 319.308 95.7883 318.894 95.5182L220.257 38.5681C219.845 38.3089 219.37 38.1671 218.884 38.1577C218.397 38.1484 217.918 38.2719 217.496 38.5151C217.074 38.7582 216.727 39.1118 216.492 39.5376C216.256 39.9635 216.141 40.4455 216.16 40.9317V117.821C216.187 118.316 216.331 118.797 216.579 119.226C216.828 119.655 217.174 120.019 217.59 120.288L316.248 177.239C316.669 177.458 317.135 177.577 317.609 177.586C318.084 177.595 318.554 177.494 318.982 177.29V177.29Z" fill="url(#paint0_linear_504_7147)"/>
<path d="M317.648 99.5273V176.417C317.648 177.321 317.011 177.691 316.226 177.239L217.589 120.289C217.174 120.019 216.827 119.655 216.579 119.226C216.33 118.798 216.187 118.316 216.159 117.822V40.9322C216.159 40.0283 216.804 39.6578 217.589 40.1098L316.248 97.0599C316.659 97.3325 316.999 97.6978 317.243 98.1265C317.486 98.5551 317.625 99.035 317.648 99.5273V99.5273Z" fill="url(#paint1_linear_504_7147)"/>
<path opacity="0.2" d="M320.316 97.9859V174.875C320.297 175.354 320.166 175.822 319.935 176.241C319.703 176.66 319.377 177.02 318.982 177.291C318.601 177.475 318.187 177.578 317.764 177.592C317.342 177.606 316.921 177.531 316.529 177.372C317.167 177.58 317.648 177.209 317.648 176.416V99.5197C317.629 99.0256 317.486 98.5442 317.233 98.1193L319.893 96.5781C320.153 97.0033 320.298 97.4882 320.316 97.9859V97.9859Z" fill="black"/>
<path d="M309.632 119.57V131.699C309.632 132.611 308.995 132.974 308.209 132.522L292.36 123.341C291.946 123.072 291.602 122.709 291.355 122.281C291.108 121.854 290.965 121.374 290.938 120.881V108.774C290.938 107.87 291.575 107.5 292.36 107.952L308.209 117.102C308.624 117.373 308.969 117.737 309.216 118.166C309.463 118.594 309.606 119.076 309.632 119.57V119.57Z" fill="#455A64"/>
<path d="M288.427 109.926L288.104 110.484L312.137 124.371L312.459 123.813L288.427 109.926Z" fill="white"/>
<path d="M304.615 119.468H303.971V125.647H304.615V119.468Z" fill="white"/>
<path d="M296.606 114.867H295.961V121.039H296.606V114.867Z" fill="white"/>
<path d="M288.426 116.122L288.104 116.681L312.136 130.567L312.459 130.009L288.426 116.122Z" fill="white"/>
<path d="M309.632 142.703V145.57C309.632 146.481 308.995 146.845 308.209 146.393L292.36 137.242C291.946 136.972 291.602 136.609 291.355 136.182C291.108 135.754 290.965 135.275 290.938 134.782V131.899C290.938 130.988 291.575 130.625 292.36 131.077L308.209 140.228C308.625 140.499 308.971 140.864 309.218 141.294C309.465 141.724 309.607 142.207 309.632 142.703V142.703Z" fill="#FAFAFA"/>
<path d="M287.351 129.848V132.731C287.351 133.635 286.713 134.005 285.928 133.553L270.079 124.402C269.664 124.132 269.319 123.768 269.072 123.339C268.825 122.91 268.682 122.429 268.656 121.935V119.06C268.656 118.148 269.293 117.778 270.079 118.237L285.928 127.388C286.342 127.658 286.686 128.021 286.933 128.448C287.181 128.876 287.324 129.355 287.351 129.848V129.848Z" fill="#FAFAFA"/>
<path d="M265.122 116.999V119.881C265.122 120.785 264.485 121.155 263.699 120.703L247.85 111.552C247.436 111.282 247.091 110.918 246.843 110.489C246.596 110.06 246.454 109.579 246.428 109.085V106.203C246.428 105.299 247.065 104.928 247.85 105.38L263.699 114.531C264.113 114.802 264.458 115.167 264.705 115.595C264.952 116.024 265.095 116.505 265.122 116.999V116.999Z" fill="#FAFAFA"/>
<path d="M242.894 104.15V107.039C242.894 107.951 242.256 108.321 241.471 107.862L225.622 98.7185C225.208 98.447 224.864 98.0824 224.617 97.6539C224.37 97.2254 224.227 96.7449 224.199 96.2511V93.3687C224.199 92.4648 224.836 92.0943 225.622 92.5463L241.471 101.697C241.884 101.966 242.228 102.328 242.475 102.754C242.722 103.18 242.865 103.658 242.894 104.15V104.15Z" fill="#FAFAFA"/>
<path opacity="0.15" d="M233.039 107.626L236.677 109.723C236.925 109.887 237.131 110.106 237.279 110.363C237.427 110.621 237.513 110.909 237.529 111.205V112.317C237.529 112.858 237.144 113.058 236.677 112.806L233.039 110.746C232.791 110.583 232.585 110.364 232.437 110.106C232.289 109.849 232.203 109.56 232.187 109.264V108.153C232.187 107.575 232.572 107.352 233.039 107.626Z" fill="black"/>
<path opacity="0.15" d="M225.028 103.002L228.659 105.099C228.909 105.261 229.117 105.48 229.266 105.737C229.416 105.995 229.502 106.284 229.519 106.581V107.692C229.519 108.241 229.133 108.433 228.659 108.189L225.028 106.092C224.779 105.93 224.572 105.711 224.424 105.453C224.276 105.196 224.191 104.907 224.176 104.61V103.499C224.176 102.95 224.554 102.728 225.028 103.002Z" fill="black"/>
<path opacity="0.15" d="M270.895 137.19L225.696 111.079C224.911 110.627 224.273 110.99 224.273 111.901V113.235C224.299 113.729 224.442 114.21 224.689 114.639C224.936 115.068 225.281 115.432 225.696 115.702L270.895 141.814C271.68 142.266 272.317 141.903 272.317 140.991V139.643C272.289 139.151 272.145 138.673 271.898 138.247C271.651 137.821 271.307 137.459 270.895 137.19V137.19Z" fill="black"/>
<path opacity="0.5" d="M319.894 96.5779L317.234 98.1487C316.992 97.7169 316.645 97.3526 316.226 97.0891L217.582 40.1094C216.841 39.7019 216.278 39.9686 216.174 40.7022C216.194 40.2357 216.336 39.7827 216.586 39.3886C216.837 38.9945 217.186 38.6732 217.6 38.4569C218.014 38.2407 218.477 38.1371 218.943 38.1566C219.41 38.1762 219.863 38.3181 220.257 38.5682L318.893 95.5183C319.314 95.7779 319.659 96.1432 319.894 96.5779V96.5779Z" fill="#FAFAFA"/>
<path d="M299.147 151.447L290.714 156.034C290.573 156.354 290.498 156.699 290.492 157.049V184.012C290.487 184.093 290.498 184.174 290.525 184.25C290.552 184.327 290.594 184.397 290.648 184.457L205.438 135.279C205.361 135.227 205.299 135.154 205.26 135.069C205.221 134.984 205.205 134.891 205.215 134.798V107.827C205.229 107.566 205.303 107.312 205.431 107.084C205.56 106.856 205.74 106.662 205.956 106.515L213.329 102.247C213.406 102.187 213.499 102.151 213.597 102.145C213.695 102.138 213.792 102.161 213.877 102.21L299.147 151.447Z" fill="#263238"/>
<path opacity="0.5" d="M299.154 151.44L221.227 106.434L217.671 104.381L213.914 102.21C213.83 102.161 213.732 102.138 213.634 102.145C213.537 102.151 213.443 102.187 213.366 102.247L205.993 106.515C205.771 106.653 205.59 106.848 205.467 107.079L290.722 156.026L299.154 151.44Z" fill="#37474F"/>
<path d="M290.715 156.034C290.572 156.359 290.494 156.709 290.485 157.064V184.027C290.485 184.509 290.826 184.702 291.226 184.464L299.376 179.767V151.936C299.387 151.842 299.373 151.747 299.333 151.661C299.294 151.575 299.232 151.501 299.154 151.447L290.715 156.034Z" fill="#37474F"/>
<path d="M291.322 184.39L291.611 184.249L292.863 183.508C294.075 182.002 294.737 180.128 294.738 178.195V155.411C294.732 154.911 294.67 154.414 294.553 153.929L293.879 154.299C293.953 154.66 293.993 155.027 293.997 155.396V178.195C293.861 180.51 292.914 182.703 291.322 184.39Z" fill="#263238"/>
<path d="M195.723 76.2764C192.848 73.9497 187.617 70.9341 184.401 69.0817C178.992 65.9474 158.772 54.2625 150.317 49.3795C149.144 48.784 147.847 48.4736 146.531 48.4736C145.215 48.4736 143.918 48.784 142.745 49.3795L73.8356 89.1839C72.7349 89.9039 71.8188 90.8725 71.1612 92.0115C70.5035 93.1505 70.1226 94.4281 70.0493 95.7414V137.42C70.1232 138.734 70.5043 140.013 71.1618 141.153C71.8194 142.293 72.7352 143.263 73.8356 143.985L213.766 224.853C214.94 225.446 216.237 225.754 217.552 225.754C218.867 225.754 220.164 225.446 221.338 224.853L290.247 185.064C291.349 184.337 292.264 183.362 292.919 182.216C293.575 181.071 293.951 179.787 294.019 178.469V154.981C294.024 153.834 293.763 152.702 293.257 151.674C292.75 150.645 292.012 149.748 291.1 149.053C275.288 137.042 200.317 79.9886 195.723 76.2764Z" fill="#455A64"/>
<path d="M294.019 178.469V155.67C294.019 155.211 293.964 154.753 293.856 154.307L217.36 198.401C217.474 198.875 217.536 199.359 217.545 199.846V222.63C217.545 224.853 216.137 225.824 214.314 225.083H214.366C214.537 225.157 214.707 225.224 214.885 225.283L215.226 225.387C215.411 225.439 215.596 225.483 215.789 225.52C215.982 225.557 216.041 225.565 216.167 225.587L216.737 225.661H217.167H217.708H218.19L218.679 225.624C218.857 225.624 219.034 225.565 219.212 225.528L219.627 225.454C219.82 225.402 220.012 225.335 220.198 225.276C220.383 225.216 220.42 225.216 220.524 225.172C220.766 225.077 221.001 224.966 221.228 224.839C221.264 224.826 221.299 224.808 221.331 224.787L290.241 184.997L291.233 184.434C292.869 182.859 293.861 180.734 294.019 178.469V178.469Z" fill="#37474F"/>
<path d="M119.242 120.445C132.164 130.877 199.651 181.944 214.603 193.251C215.524 193.941 216.271 194.836 216.785 195.865C217.299 196.894 217.567 198.029 217.567 199.179V222.63C217.567 225.038 215.863 226.024 213.781 224.853L73.799 144.015C72.6986 143.293 71.7828 142.322 71.1252 141.182C70.4676 140.042 70.0866 138.764 70.0127 137.45V95.7411C70.0127 93.333 71.7169 92.3475 73.799 93.5553L107.883 113.235C111.121 115.095 116.352 118.111 119.242 120.445Z" fill="#263238"/>
<path d="M118.828 106.937C122.043 108.79 127.275 111.805 130.172 114.147C132.969 116.452 135.621 118.926 138.115 121.556C138.659 122.086 139.357 122.431 140.109 122.54C140.861 122.649 141.629 122.517 142.301 122.164L192.301 93.2666C192.596 93.1223 192.851 92.908 193.045 92.6426C193.238 92.3771 193.363 92.0684 193.41 91.7434C193.457 91.4184 193.423 91.0868 193.313 90.7777C193.202 90.4685 193.018 90.191 192.775 89.9694C190.274 87.3397 187.613 84.8653 184.81 82.5598C181.928 80.2332 176.697 77.2249 173.481 75.3651C167.36 71.8233 160.492 67.8592 154.305 64.2951C153.582 63.9316 152.784 63.7422 151.974 63.7422C151.165 63.7422 150.367 63.9316 149.644 64.2951L99.6665 93.1777C98.3846 93.9187 98.3846 95.1264 99.6665 95.8674L118.828 106.937Z" fill="#E0E0E0"/>
<path d="M149.644 66.6809C150.367 66.3173 151.165 66.1279 151.974 66.1279C152.783 66.1279 153.582 66.3173 154.305 66.6809C160.492 70.2449 167.36 74.209 173.481 77.7508C176.696 79.6106 181.927 82.6263 184.81 84.9529C187.613 87.2582 190.273 89.7327 192.775 92.3625C192.865 92.4567 192.947 92.5584 193.02 92.6663C192.819 92.9249 192.566 93.1393 192.279 93.2961L142.279 122.194C141.606 122.547 140.839 122.678 140.087 122.569C139.335 122.46 138.637 122.116 138.092 121.586C135.599 118.956 132.946 116.481 130.149 114.176C127.252 111.835 121.999 108.819 118.805 106.967L99.6662 95.8673C99.5773 95.8154 99.5106 95.7561 99.4365 95.7042C99.5087 95.644 99.5855 95.5895 99.6662 95.5412L149.644 66.6809Z" fill="white"/>
<path d="M150.466 104.78L135.506 104.551V98.5785L146.22 100.52L146.079 76.7869L155.393 76.6387L150.466 104.78Z" fill="url(#paint2_linear_504_7147)"/>
<path d="M193.79 105.426L194.287 103.366L196.361 103.195L203.141 99.2831C206.357 97.4307 210.618 97.8011 212.692 100.106C213.132 100.586 213.454 101.162 213.633 101.788L214.219 101.736L213.693 103.921C213.46 104.696 213.075 105.417 212.559 106.04C212.044 106.664 211.409 107.178 210.692 107.552L202.437 112.309C201.767 112.668 200.999 112.803 200.246 112.695C199.493 112.587 198.794 112.242 198.251 111.709C196.947 110.316 195.643 108.871 194.339 107.404C194.091 107.145 193.911 106.829 193.815 106.484C193.719 106.139 193.711 105.775 193.79 105.426Z" fill="url(#paint3_linear_504_7147)"/>
<path opacity="0.1" d="M193.79 105.426L194.287 103.366L196.361 103.195L203.141 99.2831C206.357 97.4307 210.618 97.8011 212.692 100.106C213.132 100.586 213.454 101.162 213.633 101.788L214.219 101.736L213.693 103.921C213.46 104.696 213.075 105.417 212.559 106.04C212.044 106.664 211.409 107.178 210.692 107.552L202.437 112.309C201.767 112.668 200.999 112.803 200.246 112.695C199.493 112.587 198.794 112.242 198.251 111.709C196.947 110.316 195.643 108.871 194.339 107.404C194.091 107.145 193.911 106.829 193.815 106.484C193.719 106.139 193.711 105.775 193.79 105.426Z" fill="black"/>
<path d="M202.882 110.257L211.136 105.492C214.359 103.632 215.219 100.306 213.144 98.0382C211.069 95.7709 206.809 95.3634 203.593 97.2158L195.339 101.98C195.042 102.13 194.785 102.347 194.588 102.615C194.392 102.883 194.261 103.193 194.207 103.521C194.153 103.849 194.177 104.185 194.277 104.502C194.377 104.818 194.55 105.107 194.783 105.344C196.087 106.826 197.394 108.261 198.703 109.649C199.244 110.183 199.941 110.529 200.692 110.638C201.444 110.748 202.211 110.614 202.882 110.257V110.257Z" fill="url(#paint4_linear_504_7147)"/>
<path d="M151.578 131.107L152.081 129.018L152.667 128.966C153.227 128.294 153.905 127.729 154.667 127.299L162.922 122.534C163.587 122.18 164.35 122.053 165.094 122.173C165.838 122.294 166.522 122.655 167.041 123.201C168.323 124.646 169.605 126.069 170.887 127.447L172.05 127.351L171.524 129.522C171.358 130.066 170.986 130.523 170.487 130.796L162.233 135.561C159.009 137.42 154.66 137.124 152.6 134.82C152.136 134.334 151.799 133.74 151.621 133.092C151.442 132.444 151.428 131.762 151.578 131.107V131.107Z" fill="url(#paint5_linear_504_7147)"/>
<path opacity="0.1" d="M151.578 131.107L152.081 129.018L152.667 128.966C153.227 128.294 153.905 127.729 154.667 127.299L162.922 122.534C163.587 122.18 164.35 122.053 165.094 122.173C165.838 122.294 166.522 122.655 167.041 123.201C168.323 124.646 169.605 126.069 170.887 127.447L172.05 127.351L171.524 129.522C171.358 130.066 170.986 130.523 170.487 130.796L162.233 135.561C159.009 137.42 154.66 137.124 152.6 134.82C152.136 134.334 151.799 133.74 151.621 133.092C151.442 132.444 151.428 131.762 151.578 131.107V131.107Z" fill="black"/>
<path d="M162.699 133.486L170.954 128.722C171.247 128.576 171.501 128.361 171.693 128.096C171.885 127.83 172.01 127.522 172.057 127.197C172.104 126.873 172.071 126.542 171.961 126.233C171.852 125.924 171.669 125.647 171.428 125.424C170.124 124.024 168.827 122.586 167.523 121.119C167.005 120.572 166.321 120.209 165.577 120.087C164.833 119.965 164.069 120.091 163.403 120.445L155.149 125.209C151.933 127.069 150.963 130.463 153.045 132.752C155.127 135.042 159.484 135.338 162.699 133.486Z" fill="url(#paint6_linear_504_7147)"/>
<path d="M172.235 118.066L172.724 116.028L174.31 115.925L184.187 110.219C185.019 109.777 185.973 109.62 186.903 109.771C187.833 109.922 188.687 110.374 189.337 111.056C190.324 112.183 191.325 113.287 192.337 114.369C192.435 114.478 192.524 114.594 192.604 114.717L193.59 114.658L193.078 116.784C192.988 117.143 192.824 117.479 192.597 117.771C192.37 118.063 192.085 118.305 191.759 118.481L181.171 124.586C180.335 125.037 179.377 125.208 178.437 125.075C177.498 124.941 176.625 124.511 175.947 123.845C174.947 122.764 173.939 121.66 172.939 120.533C172.627 120.212 172.4 119.819 172.277 119.388C172.154 118.958 172.14 118.503 172.235 118.066V118.066Z" fill="url(#paint7_linear_504_7147)"/>
<path opacity="0.1" d="M172.235 118.066L172.724 116.028L174.31 115.925L184.187 110.219C185.019 109.777 185.973 109.62 186.903 109.771C187.833 109.922 188.687 110.374 189.337 111.056C190.324 112.183 191.325 113.287 192.337 114.369C192.435 114.478 192.524 114.594 192.604 114.717L193.59 114.658L193.078 116.784C192.988 117.143 192.824 117.479 192.597 117.771C192.37 118.063 192.085 118.305 191.759 118.481L181.171 124.586C180.335 125.037 179.377 125.208 178.437 125.075C177.498 124.941 176.625 124.511 175.947 123.845C174.947 122.764 173.939 121.66 172.939 120.533C172.627 120.212 172.4 119.819 172.277 119.388C172.154 118.958 172.14 118.503 172.235 118.066V118.066Z" fill="black"/>
<path d="M173.406 118.466C174.406 119.592 175.414 120.689 176.414 121.778C177.092 122.443 177.964 122.874 178.904 123.007C179.844 123.141 180.802 122.969 181.638 122.519L192.226 116.413C192.592 116.231 192.909 115.963 193.149 115.631C193.389 115.3 193.545 114.915 193.604 114.511C193.663 114.106 193.623 113.693 193.488 113.307C193.352 112.921 193.125 112.573 192.826 112.294C191.826 111.212 190.826 110.071 189.826 108.974C189.176 108.291 188.321 107.84 187.391 107.691C186.461 107.541 185.507 107.7 184.676 108.144L174.095 114.25C173.722 114.437 173.399 114.709 173.153 115.045C172.906 115.381 172.742 115.771 172.675 116.182C172.607 116.593 172.639 117.015 172.766 117.412C172.893 117.809 173.112 118.17 173.406 118.466V118.466Z" fill="url(#paint8_linear_504_7147)"/>
<g opacity="0.75">
<path opacity="0.75" d="M202.882 110.257L211.136 105.492C214.36 103.632 215.219 100.306 213.144 98.0382C211.07 95.7709 206.809 95.3634 203.593 97.2158L195.339 101.98C195.043 102.13 194.786 102.347 194.589 102.615C194.392 102.883 194.262 103.193 194.207 103.521C194.153 103.849 194.177 104.185 194.277 104.502C194.377 104.818 194.551 105.107 194.783 105.344C196.088 106.826 197.394 108.261 198.703 109.649C199.244 110.183 199.941 110.529 200.693 110.638C201.445 110.748 202.212 110.614 202.882 110.257V110.257Z" fill="white"/>
<path opacity="0.75" d="M162.7 133.486L170.954 128.722C171.248 128.576 171.502 128.361 171.694 128.096C171.886 127.83 172.011 127.522 172.057 127.197C172.104 126.873 172.071 126.542 171.962 126.233C171.852 125.924 171.669 125.647 171.428 125.424C170.124 124.024 168.828 122.586 167.524 121.119C167.005 120.572 166.322 120.209 165.577 120.087C164.833 119.965 164.07 120.091 163.404 120.445L155.15 125.209C151.934 127.069 150.963 130.463 153.045 132.752C155.127 135.042 159.484 135.338 162.7 133.486Z" fill="white"/>
<path opacity="0.75" d="M173.406 118.467C174.407 119.593 175.414 120.69 176.415 121.779C177.092 122.444 177.965 122.875 178.905 123.008C179.845 123.141 180.803 122.97 181.638 122.52L192.227 116.414C192.593 116.232 192.909 115.964 193.149 115.632C193.389 115.301 193.545 114.916 193.604 114.512C193.663 114.107 193.623 113.694 193.488 113.308C193.353 112.922 193.126 112.574 192.827 112.295C191.827 111.213 190.826 110.072 189.826 108.975C189.177 108.292 188.321 107.841 187.391 107.692C186.461 107.542 185.507 107.701 184.676 108.145L174.095 114.251C173.723 114.438 173.4 114.71 173.153 115.046C172.906 115.382 172.742 115.772 172.675 116.183C172.608 116.594 172.639 117.016 172.766 117.413C172.893 117.81 173.113 118.171 173.406 118.467V118.467Z" fill="white"/>
</g>
<path d="M189.462 141.332L187.284 141.384L181.186 136.731C180.648 136.359 180.019 136.141 179.366 136.099C178.714 136.057 178.062 136.194 177.481 136.494L168.16 141.866L165.233 141.94V144.326C165.246 144.565 165.314 144.798 165.433 145.006C165.551 145.214 165.716 145.392 165.915 145.526L173.502 151.32C174.041 151.69 174.67 151.908 175.322 151.949C175.974 151.991 176.625 151.856 177.207 151.557L188.61 144.978C188.851 144.863 189.057 144.686 189.206 144.464C189.355 144.242 189.441 143.985 189.455 143.718L189.462 141.332Z" fill="url(#paint9_linear_504_7147)"/>
<path opacity="0.1" d="M189.462 141.332L187.284 141.384L181.186 136.731C180.648 136.359 180.019 136.141 179.366 136.099C178.714 136.057 178.062 136.194 177.481 136.494L168.16 141.866L165.233 141.94V144.326C165.246 144.565 165.314 144.798 165.433 145.006C165.551 145.214 165.716 145.392 165.915 145.526L173.502 151.32C174.041 151.69 174.67 151.908 175.322 151.949C175.974 151.991 176.625 151.856 177.207 151.557L188.61 144.978C188.851 144.863 189.057 144.686 189.206 144.464C189.355 144.242 189.441 143.985 189.455 143.718L189.462 141.332Z" fill="black"/>
<path d="M166.078 140.68L177.489 134.108C178.07 133.808 178.722 133.672 179.374 133.713C180.027 133.755 180.656 133.973 181.194 134.345L188.803 140.139C189.027 140.266 189.21 140.453 189.333 140.679C189.455 140.905 189.51 141.16 189.493 141.417C189.476 141.673 189.387 141.919 189.236 142.127C189.085 142.335 188.879 142.496 188.64 142.592L177.237 149.172C176.655 149.47 176.004 149.605 175.352 149.564C174.7 149.522 174.071 149.304 173.532 148.934L165.945 143.14C165.723 143.013 165.541 142.827 165.418 142.603C165.296 142.378 165.239 142.124 165.253 141.869C165.266 141.614 165.351 141.367 165.497 141.157C165.643 140.948 165.844 140.782 166.078 140.68Z" fill="url(#paint10_linear_504_7147)"/>
<path opacity="0.75" d="M166.078 140.68L177.489 134.108C178.07 133.808 178.722 133.672 179.374 133.713C180.027 133.755 180.656 133.973 181.194 134.345L188.803 140.139C189.027 140.266 189.21 140.453 189.333 140.679C189.455 140.905 189.51 141.16 189.493 141.417C189.476 141.673 189.387 141.919 189.236 142.127C189.085 142.335 188.879 142.496 188.64 142.592L177.237 149.172C176.655 149.47 176.004 149.605 175.352 149.564C174.7 149.522 174.071 149.304 173.532 148.934L165.945 143.14C165.723 143.013 165.541 142.827 165.418 142.603C165.296 142.378 165.239 142.124 165.253 141.869C165.266 141.614 165.351 141.367 165.497 141.157C165.643 140.948 165.844 140.782 166.078 140.68Z" fill="white"/>
<path d="M234.002 175.291L231.824 175.35L225.726 170.689C225.187 170.319 224.558 170.102 223.906 170.06C223.254 170.018 222.603 170.154 222.021 170.452L212.692 175.831L209.766 175.898V178.284C209.777 178.524 209.845 178.757 209.963 178.966C210.081 179.174 210.247 179.352 210.447 179.484L218.035 185.279C218.573 185.65 219.202 185.868 219.854 185.91C220.507 185.952 221.158 185.816 221.74 185.516L233.113 178.914C233.354 178.798 233.559 178.619 233.707 178.396C233.854 178.173 233.938 177.914 233.951 177.647L234.002 175.291Z" fill="url(#paint11_linear_504_7147)"/>
<path opacity="0.1" d="M234.002 175.291L231.824 175.35L225.726 170.689C225.187 170.319 224.558 170.102 223.906 170.06C223.254 170.018 222.603 170.154 222.021 170.452L212.692 175.831L209.766 175.898V178.284C209.777 178.524 209.845 178.757 209.963 178.966C210.081 179.174 210.247 179.352 210.447 179.484L218.035 185.279C218.573 185.65 219.202 185.868 219.854 185.91C220.507 185.952 221.158 185.816 221.74 185.516L233.113 178.914C233.354 178.798 233.559 178.619 233.707 178.396C233.854 178.173 233.938 177.914 233.951 177.647L234.002 175.291Z" fill="black"/>
<path d="M210.58 174.637L221.991 168.064C222.572 167.766 223.224 167.631 223.876 167.672C224.528 167.714 225.157 167.932 225.696 168.302L233.261 174.096C233.484 174.223 233.667 174.411 233.789 174.638C233.91 174.864 233.966 175.12 233.949 175.377C233.932 175.633 233.843 175.88 233.692 176.088C233.542 176.297 233.336 176.459 233.098 176.556L221.687 183.128C221.106 183.428 220.454 183.564 219.802 183.523C219.149 183.481 218.52 183.262 217.982 182.891L210.395 177.097C210.175 176.965 209.995 176.776 209.877 176.548C209.759 176.321 209.707 176.065 209.726 175.809C209.745 175.554 209.835 175.309 209.986 175.102C210.137 174.894 210.343 174.733 210.58 174.637V174.637Z" fill="url(#paint12_linear_504_7147)"/>
<path opacity="0.75" d="M210.58 174.637L221.991 168.064C222.572 167.766 223.224 167.631 223.876 167.672C224.528 167.714 225.157 167.932 225.696 168.302L233.261 174.096C233.484 174.223 233.667 174.411 233.789 174.638C233.91 174.864 233.966 175.12 233.949 175.377C233.932 175.633 233.843 175.88 233.692 176.088C233.542 176.297 233.336 176.459 233.098 176.556L221.687 183.128C221.106 183.428 220.454 183.564 219.802 183.523C219.149 183.481 218.52 183.262 217.982 182.891L210.395 177.097C210.175 176.965 209.995 176.776 209.877 176.548C209.759 176.321 209.707 176.065 209.726 175.809C209.745 175.554 209.835 175.309 209.986 175.102C210.137 174.894 210.343 174.733 210.58 174.637V174.637Z" fill="white"/>
<path d="M204.297 152.653L202.118 152.705L196.02 148.052C195.482 147.681 194.854 147.462 194.202 147.419C193.549 147.376 192.898 147.51 192.315 147.807L182.987 153.187L180.023 153.261V155.647C180.037 155.886 180.106 156.118 180.224 156.326C180.342 156.534 180.507 156.712 180.705 156.847L188.344 162.612C188.882 162.983 189.51 163.202 190.163 163.245C190.815 163.288 191.467 163.153 192.049 162.856L203.452 156.277C203.693 156.162 203.899 155.985 204.048 155.763C204.196 155.541 204.282 155.283 204.297 155.017V152.653Z" fill="url(#paint13_linear_504_7147)"/>
<path opacity="0.1" d="M204.297 152.653L202.118 152.705L196.02 148.052C195.482 147.681 194.854 147.462 194.202 147.419C193.549 147.376 192.898 147.51 192.315 147.807L182.987 153.187L180.023 153.261V155.647C180.037 155.886 180.106 156.118 180.224 156.326C180.342 156.534 180.507 156.712 180.705 156.847L188.344 162.612C188.882 162.983 189.51 163.202 190.163 163.245C190.815 163.288 191.467 163.153 192.049 162.856L203.452 156.277C203.693 156.162 203.899 155.985 204.048 155.763C204.196 155.541 204.282 155.283 204.297 155.017V152.653Z" fill="black"/>
<path d="M180.912 152.001L192.323 145.422C192.905 145.124 193.557 144.99 194.209 145.033C194.861 145.076 195.49 145.295 196.028 145.666L203.623 151.453C203.846 151.581 204.029 151.768 204.15 151.995C204.272 152.221 204.328 152.477 204.311 152.734C204.294 152.991 204.205 153.237 204.054 153.446C203.904 153.654 203.698 153.816 203.46 153.913L192.056 160.493C191.474 160.79 190.822 160.924 190.17 160.881C189.518 160.838 188.889 160.619 188.351 160.248L180.757 154.461C180.535 154.333 180.355 154.145 180.234 153.919C180.114 153.693 180.058 153.439 180.075 153.183C180.091 152.928 180.178 152.682 180.326 152.473C180.473 152.265 180.677 152.101 180.912 152.001Z" fill="url(#paint14_linear_504_7147)"/>
<path opacity="0.75" d="M180.912 152.001L192.323 145.422C192.905 145.124 193.557 144.99 194.209 145.033C194.861 145.076 195.49 145.295 196.028 145.666L203.623 151.453C203.846 151.581 204.029 151.768 204.15 151.995C204.272 152.221 204.328 152.477 204.311 152.734C204.294 152.991 204.205 153.237 204.054 153.446C203.904 153.654 203.698 153.816 203.46 153.913L192.056 160.493C191.474 160.79 190.822 160.924 190.17 160.881C189.518 160.838 188.889 160.619 188.351 160.248L180.757 154.461C180.535 154.333 180.355 154.145 180.234 153.919C180.114 153.693 180.058 153.439 180.075 153.183C180.091 152.928 180.178 152.682 180.326 152.473C180.473 152.265 180.677 152.101 180.912 152.001Z" fill="white"/>
<path d="M219.13 163.968L216.952 164.028L210.854 159.367C210.315 158.997 209.686 158.78 209.034 158.738C208.382 158.696 207.731 158.832 207.149 159.13L197.82 164.509L194.894 164.583V166.969C194.906 167.207 194.974 167.44 195.093 167.647C195.211 167.854 195.376 168.03 195.575 168.162L203.163 173.956C203.701 174.328 204.33 174.546 204.982 174.588C205.635 174.63 206.286 174.493 206.867 174.194L218.271 167.621C218.512 167.505 218.717 167.326 218.864 167.103C219.012 166.88 219.096 166.621 219.108 166.354L219.13 163.968Z" fill="url(#paint15_linear_504_7147)"/>
<path opacity="0.1" d="M219.13 163.968L216.952 164.028L210.854 159.367C210.315 158.997 209.686 158.78 209.034 158.738C208.382 158.696 207.731 158.832 207.149 159.13L197.82 164.509L194.894 164.583V166.969C194.906 167.207 194.974 167.44 195.093 167.647C195.211 167.854 195.376 168.03 195.575 168.162L203.163 173.956C203.701 174.328 204.33 174.546 204.982 174.588C205.635 174.63 206.286 174.493 206.867 174.194L218.271 167.621C218.512 167.505 218.717 167.326 218.864 167.103C219.012 166.88 219.096 166.621 219.108 166.354L219.13 163.968Z" fill="black"/>
<path d="M195.745 163.353L207.156 156.773C207.738 156.475 208.389 156.34 209.041 156.381C209.693 156.423 210.322 156.641 210.861 157.01L218.441 162.775C218.664 162.903 218.847 163.09 218.969 163.317C219.09 163.543 219.146 163.8 219.129 164.056C219.112 164.313 219.023 164.559 218.873 164.768C218.722 164.976 218.516 165.138 218.278 165.235L206.874 171.807C206.293 172.107 205.642 172.244 204.989 172.202C204.337 172.16 203.708 171.942 203.17 171.57L195.582 165.776C195.369 165.645 195.196 165.459 195.081 165.237C194.966 165.014 194.914 164.765 194.931 164.515C194.948 164.266 195.032 164.025 195.176 163.821C195.32 163.616 195.516 163.454 195.745 163.353V163.353Z" fill="url(#paint16_linear_504_7147)"/>
<path opacity="0.75" d="M195.745 163.353L207.156 156.773C207.738 156.475 208.389 156.34 209.041 156.381C209.693 156.423 210.322 156.641 210.861 157.01L218.441 162.775C218.664 162.903 218.847 163.09 218.969 163.317C219.09 163.543 219.146 163.8 219.129 164.056C219.112 164.313 219.023 164.559 218.873 164.768C218.722 164.976 218.516 165.138 218.278 165.235L206.874 171.807C206.293 172.107 205.642 172.244 204.989 172.202C204.337 172.16 203.708 171.942 203.17 171.57L195.582 165.776C195.369 165.645 195.196 165.459 195.081 165.237C194.966 165.014 194.914 164.765 194.931 164.515C194.948 164.266 195.032 164.025 195.176 163.821C195.32 163.616 195.516 163.454 195.745 163.353V163.353Z" fill="white"/>
<path d="M212.358 128.136L210.179 128.196L204.081 123.535C203.542 123.165 202.914 122.948 202.261 122.906C201.609 122.864 200.958 123 200.376 123.298L191.025 128.677L188.062 128.751V131.137C188.076 131.375 188.145 131.606 188.263 131.813C188.381 132.02 188.545 132.197 188.743 132.33L196.405 138.161C196.943 138.533 197.572 138.751 198.224 138.793C198.877 138.835 199.528 138.698 200.11 138.399L211.52 131.826C211.761 131.71 211.966 131.531 212.114 131.308C212.261 131.085 212.345 130.826 212.358 130.559V128.136Z" fill="url(#paint17_linear_504_7147)"/>
<path opacity="0.1" d="M212.358 128.136L210.179 128.196L204.081 123.535C203.542 123.165 202.914 122.948 202.261 122.906C201.609 122.864 200.958 123 200.376 123.298L191.025 128.677L188.062 128.751V131.137C188.076 131.375 188.145 131.606 188.263 131.813C188.381 132.02 188.545 132.197 188.743 132.33L196.405 138.161C196.943 138.533 197.572 138.751 198.224 138.793C198.877 138.835 199.528 138.698 200.11 138.399L211.52 131.826C211.761 131.71 211.966 131.531 212.114 131.308C212.261 131.085 212.345 130.826 212.358 130.559V128.136Z" fill="black"/>
<path d="M188.974 127.492L200.385 120.912C200.966 120.614 201.618 120.478 202.27 120.52C202.922 120.562 203.551 120.779 204.089 121.149L211.677 126.943C211.898 127.072 212.079 127.26 212.199 127.486C212.32 127.711 212.375 127.966 212.359 128.222C212.343 128.477 212.256 128.723 212.108 128.931C211.96 129.14 211.757 129.304 211.521 129.403L200.11 135.976C199.529 136.276 198.878 136.412 198.225 136.37C197.573 136.328 196.944 136.11 196.406 135.739L188.803 129.944C188.582 129.816 188.402 129.627 188.282 129.401C188.163 129.175 188.109 128.92 188.126 128.665C188.144 128.41 188.233 128.165 188.383 127.957C188.532 127.75 188.737 127.589 188.974 127.492V127.492Z" fill="url(#paint18_linear_504_7147)"/>
<path opacity="0.75" d="M188.974 127.492L200.385 120.912C200.966 120.614 201.618 120.478 202.27 120.52C202.922 120.562 203.551 120.779 204.089 121.149L211.677 126.943C211.898 127.072 212.079 127.26 212.199 127.486C212.32 127.711 212.375 127.966 212.359 128.222C212.343 128.477 212.256 128.723 212.108 128.931C211.96 129.14 211.757 129.304 211.521 129.403L200.11 135.976C199.529 136.276 198.878 136.412 198.225 136.37C197.573 136.328 196.944 136.11 196.406 135.739L188.803 129.944C188.582 129.816 188.402 129.627 188.282 129.401C188.163 129.175 188.109 128.92 188.126 128.665C188.144 128.41 188.233 128.165 188.383 127.957C188.532 127.75 188.737 127.589 188.974 127.492V127.492Z" fill="white"/>
<path d="M256.86 162.1L254.682 162.152L248.584 157.492C248.044 157.123 247.416 156.907 246.764 156.865C246.112 156.823 245.461 156.958 244.879 157.254L235.558 162.612L232.594 162.686V165.072C232.607 165.311 232.675 165.544 232.793 165.752C232.912 165.96 233.077 166.138 233.275 166.272L240.863 172.059C241.401 172.43 242.029 172.649 242.682 172.692C243.334 172.735 243.985 172.6 244.568 172.303L255.971 165.724C256.212 165.608 256.417 165.429 256.564 165.205C256.712 164.982 256.796 164.724 256.808 164.457L256.86 162.1Z" fill="url(#paint19_linear_504_7147)"/>
<path opacity="0.1" d="M256.86 162.1L254.682 162.152L248.584 157.492C248.044 157.123 247.416 156.907 246.764 156.865C246.112 156.823 245.461 156.958 244.879 157.254L235.558 162.612L232.594 162.686V165.072C232.607 165.311 232.675 165.544 232.793 165.752C232.912 165.96 233.077 166.138 233.275 166.272L240.863 172.059C241.401 172.43 242.029 172.649 242.682 172.692C243.334 172.735 243.985 172.6 244.568 172.303L255.971 165.724C256.212 165.608 256.417 165.429 256.564 165.205C256.712 164.982 256.796 164.724 256.808 164.457L256.86 162.1Z" fill="black"/>
<path d="M233.476 161.45L244.886 154.87C245.469 154.573 246.12 154.438 246.773 154.481C247.425 154.525 248.053 154.743 248.591 155.114L256.179 160.901C256.402 161.029 256.585 161.216 256.706 161.443C256.828 161.67 256.884 161.926 256.867 162.182C256.85 162.439 256.761 162.685 256.61 162.894C256.46 163.102 256.254 163.264 256.016 163.361L244.612 169.941C244.03 170.238 243.378 170.372 242.726 170.329C242.074 170.286 241.446 170.068 240.907 169.696L233.32 163.91C233.099 163.781 232.918 163.593 232.798 163.367C232.677 163.142 232.622 162.887 232.638 162.632C232.654 162.376 232.741 162.13 232.889 161.922C233.037 161.713 233.24 161.549 233.476 161.45V161.45Z" fill="url(#paint20_linear_504_7147)"/>
<path opacity="0.75" d="M233.476 161.45L244.886 154.87C245.469 154.573 246.12 154.438 246.773 154.481C247.425 154.525 248.053 154.743 248.591 155.114L256.179 160.901C256.402 161.029 256.585 161.216 256.706 161.443C256.828 161.67 256.884 161.926 256.867 162.182C256.85 162.439 256.761 162.685 256.61 162.894C256.46 163.102 256.254 163.264 256.016 163.361L244.612 169.941C244.03 170.238 243.378 170.372 242.726 170.329C242.074 170.286 241.446 170.068 240.907 169.696L233.32 163.91C233.099 163.781 232.918 163.593 232.798 163.367C232.677 163.142 232.622 162.887 232.638 162.632C232.654 162.376 232.741 162.13 232.889 161.922C233.037 161.713 233.24 161.549 233.476 161.45V161.45Z" fill="white"/>
<path d="M227.192 139.458L225.014 139.517L218.916 134.857C218.378 134.485 217.749 134.267 217.096 134.225C216.444 134.183 215.792 134.32 215.211 134.62L205.882 139.992L202.956 140.066V142.451C202.969 142.691 203.037 142.924 203.155 143.132C203.274 143.34 203.439 143.518 203.637 143.652L211.225 149.446C211.763 149.816 212.392 150.033 213.044 150.075C213.697 150.117 214.348 149.982 214.929 149.683L226.34 143.111C226.579 142.998 226.784 142.823 226.932 142.604C227.081 142.385 227.168 142.13 227.185 141.866V141.866L227.192 139.458Z" fill="url(#paint21_linear_504_7147)"/>
<path opacity="0.1" d="M227.192 139.458L225.014 139.517L218.916 134.857C218.378 134.485 217.749 134.267 217.096 134.225C216.444 134.183 215.792 134.32 215.211 134.62L205.882 139.992L202.956 140.066V142.451C202.969 142.691 203.037 142.924 203.155 143.132C203.274 143.34 203.439 143.518 203.637 143.652L211.225 149.446C211.763 149.816 212.392 150.033 213.044 150.075C213.697 150.117 214.348 149.982 214.929 149.683L226.34 143.111C226.579 142.998 226.784 142.823 226.932 142.604C227.081 142.385 227.168 142.13 227.185 141.866V141.866L227.192 139.458Z" fill="black"/>
<path d="M203.807 138.805L215.218 132.232C215.8 131.934 216.451 131.799 217.103 131.84C217.756 131.882 218.384 132.1 218.923 132.469L226.51 138.264C226.732 138.393 226.912 138.58 227.033 138.806C227.153 139.032 227.209 139.286 227.193 139.542C227.176 139.797 227.089 140.043 226.942 140.252C226.794 140.46 226.59 140.624 226.355 140.724L214.944 147.296C214.363 147.594 213.711 147.73 213.059 147.688C212.407 147.646 211.778 147.429 211.239 147.059L203.622 141.265C203.402 141.133 203.223 140.943 203.105 140.716C202.987 140.489 202.934 140.233 202.954 139.977C202.973 139.722 203.063 139.477 203.214 139.27C203.365 139.062 203.57 138.901 203.807 138.805V138.805Z" fill="url(#paint22_linear_504_7147)"/>
<path opacity="0.75" d="M203.807 138.805L215.218 132.232C215.8 131.934 216.451 131.799 217.103 131.84C217.756 131.882 218.384 132.1 218.923 132.469L226.51 138.264C226.732 138.393 226.912 138.58 227.033 138.806C227.153 139.032 227.209 139.286 227.193 139.542C227.176 139.797 227.089 140.043 226.942 140.252C226.794 140.46 226.59 140.624 226.355 140.724L214.944 147.296C214.363 147.594 213.711 147.73 213.059 147.688C212.407 147.646 211.778 147.429 211.239 147.059L203.622 141.265C203.402 141.133 203.223 140.943 203.105 140.716C202.987 140.489 202.934 140.233 202.954 139.977C202.973 139.722 203.063 139.477 203.214 139.27C203.365 139.062 203.57 138.901 203.807 138.805V138.805Z" fill="white"/>
<path d="M242.026 150.757L239.848 150.809L233.75 146.156C233.212 145.784 232.583 145.566 231.93 145.524C231.278 145.482 230.626 145.619 230.045 145.918L220.716 151.29L217.79 151.364V153.75C217.803 153.99 217.871 154.222 217.989 154.431C218.108 154.639 218.273 154.817 218.471 154.951L226.059 160.745C226.598 161.113 227.227 161.33 227.879 161.372C228.53 161.413 229.182 161.279 229.763 160.982L241.174 154.462C241.415 154.347 241.621 154.17 241.77 153.948C241.919 153.726 242.005 153.469 242.019 153.202L242.026 150.757Z" fill="url(#paint23_linear_504_7147)"/>
<path opacity="0.1" d="M242.026 150.757L239.848 150.809L233.75 146.156C233.212 145.784 232.583 145.566 231.93 145.524C231.278 145.482 230.626 145.619 230.045 145.918L220.716 151.29L217.79 151.364V153.75C217.803 153.99 217.871 154.222 217.989 154.431C218.108 154.639 218.273 154.817 218.471 154.951L226.059 160.745C226.598 161.113 227.227 161.33 227.879 161.372C228.53 161.413 229.182 161.279 229.763 160.982L241.174 154.462C241.415 154.347 241.621 154.17 241.77 153.948C241.919 153.726 242.005 153.469 242.019 153.202L242.026 150.757Z" fill="black"/>
<path d="M218.642 150.128L230.052 143.556C230.634 143.256 231.285 143.12 231.938 143.162C232.59 143.203 233.219 143.422 233.757 143.793L241.345 149.588C241.568 149.714 241.752 149.901 241.874 150.127C241.996 150.353 242.052 150.609 242.035 150.865C242.018 151.121 241.928 151.368 241.778 151.576C241.627 151.783 241.42 151.944 241.182 152.04L229.778 158.62C229.197 158.918 228.545 159.054 227.893 159.012C227.241 158.97 226.612 158.753 226.073 158.383L218.486 152.588C218.265 152.46 218.084 152.272 217.964 152.046C217.843 151.82 217.788 151.566 217.804 151.31C217.82 151.055 217.907 150.809 218.055 150.6C218.203 150.392 218.406 150.228 218.642 150.128V150.128Z" fill="url(#paint24_linear_504_7147)"/>
<path opacity="0.75" d="M218.642 150.128L230.052 143.556C230.634 143.256 231.285 143.12 231.938 143.162C232.59 143.203 233.219 143.422 233.757 143.793L241.345 149.588C241.568 149.714 241.752 149.901 241.874 150.127C241.996 150.353 242.052 150.609 242.035 150.865C242.018 151.121 241.928 151.368 241.778 151.576C241.627 151.783 241.42 151.944 241.182 152.04L229.778 158.62C229.197 158.918 228.545 159.054 227.893 159.012C227.241 158.97 226.612 158.753 226.073 158.383L218.486 152.588C218.265 152.46 218.084 152.272 217.964 152.046C217.843 151.82 217.788 151.566 217.804 151.31C217.82 151.055 217.907 150.809 218.055 150.6C218.203 150.392 218.406 150.228 218.642 150.128V150.128Z" fill="white"/>
<path d="M235.246 114.938L233.068 114.99L226.97 110.337C226.431 109.966 225.803 109.747 225.15 109.706C224.497 109.664 223.846 109.8 223.265 110.1L213.936 115.472L211.009 115.546V117.932C211.022 118.171 211.091 118.404 211.209 118.612C211.327 118.821 211.492 118.999 211.691 119.132L219.278 124.927C219.817 125.297 220.446 125.514 221.098 125.556C221.75 125.597 222.402 125.462 222.983 125.164L234.387 118.584C234.628 118.47 234.834 118.292 234.982 118.07C235.131 117.849 235.217 117.591 235.231 117.324V117.324L235.246 114.938Z" fill="url(#paint25_linear_504_7147)"/>
<path opacity="0.1" d="M235.246 114.938L233.068 114.99L226.97 110.337C226.431 109.966 225.803 109.747 225.15 109.706C224.497 109.664 223.846 109.8 223.265 110.1L213.936 115.472L211.009 115.546V117.932C211.022 118.171 211.091 118.404 211.209 118.612C211.327 118.821 211.492 118.999 211.691 119.132L219.278 124.927C219.817 125.297 220.446 125.514 221.098 125.556C221.75 125.597 222.402 125.462 222.983 125.164L234.387 118.584C234.628 118.47 234.834 118.292 234.982 118.07C235.131 117.849 235.217 117.591 235.231 117.324V117.324L235.246 114.938Z" fill="black"/>
<path d="M211.862 114.288L223.273 107.715C223.854 107.415 224.505 107.279 225.158 107.321C225.81 107.363 226.439 107.581 226.977 107.952L234.565 113.747C234.789 113.873 234.972 114.06 235.094 114.286C235.216 114.512 235.272 114.768 235.255 115.024C235.238 115.281 235.149 115.527 234.998 115.735C234.847 115.943 234.64 116.104 234.402 116.199L222.998 122.779C222.417 123.077 221.766 123.213 221.113 123.171C220.461 123.129 219.832 122.912 219.294 122.542L211.706 116.748C211.485 116.619 211.304 116.431 211.184 116.205C211.063 115.98 211.008 115.725 211.024 115.469C211.04 115.214 211.127 114.968 211.275 114.76C211.423 114.551 211.626 114.387 211.862 114.288Z" fill="url(#paint26_linear_504_7147)"/>
<path opacity="0.75" d="M211.862 114.288L223.273 107.715C223.854 107.415 224.505 107.279 225.158 107.321C225.81 107.363 226.439 107.581 226.977 107.952L234.565 113.747C234.789 113.873 234.972 114.06 235.094 114.286C235.216 114.512 235.272 114.768 235.255 115.024C235.238 115.281 235.149 115.527 234.998 115.735C234.847 115.943 234.64 116.104 234.402 116.199L222.998 122.779C222.417 123.077 221.766 123.213 221.113 123.171C220.461 123.129 219.832 122.912 219.294 122.542L211.706 116.748C211.485 116.619 211.304 116.431 211.184 116.205C211.063 115.98 211.008 115.725 211.024 115.469C211.04 115.214 211.127 114.968 211.275 114.76C211.423 114.551 211.626 114.387 211.862 114.288Z" fill="white"/>
<path d="M279.749 148.897L277.57 148.957L271.472 144.296C270.934 143.925 270.305 143.706 269.653 143.665C269 143.623 268.349 143.759 267.768 144.059L258.454 149.431L255.527 149.505V151.891C255.538 152.131 255.606 152.364 255.724 152.573C255.843 152.781 256.009 152.959 256.209 153.091L263.796 158.908C264.334 159.279 264.963 159.498 265.616 159.539C266.268 159.581 266.92 159.445 267.501 159.145L278.912 152.573C279.152 152.457 279.357 152.278 279.505 152.055C279.652 151.831 279.737 151.573 279.749 151.306V148.897Z" fill="url(#paint27_linear_504_7147)"/>
<path opacity="0.1" d="M279.749 148.897L277.57 148.957L271.472 144.296C270.934 143.925 270.305 143.706 269.653 143.665C269 143.623 268.349 143.759 267.768 144.059L258.454 149.431L255.527 149.505V151.891C255.538 152.131 255.606 152.364 255.724 152.573C255.843 152.781 256.009 152.959 256.209 153.091L263.796 158.908C264.334 159.279 264.963 159.498 265.616 159.539C266.268 159.581 266.92 159.445 267.501 159.145L278.912 152.573C279.152 152.457 279.357 152.278 279.505 152.055C279.652 151.831 279.737 151.573 279.749 151.306V148.897Z" fill="black"/>
<path d="M256.364 148.244L267.775 141.672C268.356 141.374 269.007 141.238 269.66 141.28C270.312 141.322 270.941 141.539 271.479 141.909L279.067 147.703C279.29 147.831 279.473 148.018 279.595 148.245C279.716 148.471 279.772 148.728 279.755 148.984C279.738 149.241 279.649 149.487 279.498 149.696C279.348 149.904 279.142 150.066 278.904 150.163L267.493 156.736C266.912 157.035 266.26 157.172 265.608 157.13C264.955 157.088 264.326 156.87 263.788 156.498L256.23 150.704C256.009 150.577 255.826 150.391 255.704 150.167C255.582 149.942 255.524 149.688 255.538 149.433C255.552 149.178 255.637 148.931 255.782 148.721C255.928 148.512 256.129 148.346 256.364 148.244V148.244Z" fill="url(#paint28_linear_504_7147)"/>
<path opacity="0.75" d="M256.364 148.244L267.775 141.672C268.356 141.374 269.007 141.238 269.66 141.28C270.312 141.322 270.941 141.539 271.479 141.909L279.067 147.703C279.29 147.831 279.473 148.018 279.595 148.245C279.716 148.471 279.772 148.728 279.755 148.984C279.738 149.241 279.649 149.487 279.498 149.696C279.348 149.904 279.142 150.066 278.904 150.163L267.493 156.736C266.912 157.035 266.26 157.172 265.608 157.13C264.955 157.088 264.326 156.87 263.788 156.498L256.23 150.704C256.009 150.577 255.826 150.391 255.704 150.167C255.582 149.942 255.524 149.688 255.538 149.433C255.552 149.178 255.637 148.931 255.782 148.721C255.928 148.512 256.129 148.346 256.364 148.244V148.244Z" fill="white"/>
<path d="M264.915 137.575L262.736 137.634L256.638 132.973C256.099 132.603 255.471 132.386 254.818 132.344C254.166 132.303 253.515 132.438 252.933 132.736L243.634 138.116L240.67 138.19V140.576C240.683 140.814 240.751 141.046 240.869 141.253C240.988 141.46 241.153 141.637 241.352 141.769L248.94 147.563C249.477 147.936 250.106 148.155 250.759 148.197C251.412 148.239 252.064 148.101 252.644 147.8L264.055 141.228C264.296 141.112 264.501 140.933 264.648 140.71C264.796 140.487 264.88 140.228 264.892 139.961L264.915 137.575Z" fill="url(#paint29_linear_504_7147)"/>
<path opacity="0.1" d="M264.915 137.575L262.736 137.634L256.638 132.973C256.099 132.603 255.471 132.386 254.818 132.344C254.166 132.303 253.515 132.438 252.933 132.736L243.634 138.116L240.67 138.19V140.576C240.683 140.814 240.751 141.046 240.869 141.253C240.988 141.46 241.153 141.637 241.352 141.769L248.94 147.563C249.477 147.936 250.106 148.155 250.759 148.197C251.412 148.239 252.064 148.101 252.644 147.8L264.055 141.228C264.296 141.112 264.501 140.933 264.648 140.71C264.796 140.487 264.88 140.228 264.892 139.961L264.915 137.575Z" fill="black"/>
<path d="M241.531 136.93L252.941 130.351C253.523 130.052 254.174 129.917 254.826 129.959C255.479 130 256.107 130.218 256.646 130.588L264.234 136.382C264.457 136.509 264.64 136.697 264.761 136.924C264.883 137.15 264.939 137.406 264.922 137.663C264.905 137.919 264.816 138.166 264.665 138.375C264.515 138.583 264.309 138.745 264.07 138.842L252.66 145.414C252.079 145.716 251.427 145.853 250.774 145.811C250.121 145.769 249.492 145.55 248.955 145.177L241.412 139.383C241.189 139.258 241.005 139.074 240.882 138.851C240.758 138.628 240.699 138.375 240.711 138.12C240.723 137.865 240.807 137.618 240.951 137.408C241.096 137.198 241.297 137.033 241.531 136.93Z" fill="url(#paint30_linear_504_7147)"/>
<path opacity="0.75" d="M241.531 136.93L252.941 130.351C253.523 130.052 254.174 129.917 254.826 129.959C255.479 130 256.107 130.218 256.646 130.588L264.234 136.382C264.457 136.509 264.64 136.697 264.761 136.924C264.883 137.15 264.939 137.406 264.922 137.663C264.905 137.919 264.816 138.166 264.665 138.375C264.515 138.583 264.309 138.745 264.07 138.842L252.66 145.414C252.079 145.716 251.427 145.853 250.774 145.811C250.121 145.769 249.492 145.55 248.955 145.177L241.412 139.383C241.189 139.258 241.005 139.074 240.882 138.851C240.758 138.628 240.699 138.375 240.711 138.12C240.723 137.865 240.807 137.618 240.951 137.408C241.096 137.198 241.297 137.033 241.531 136.93Z" fill="white"/>
<path d="M250.081 126.261L247.902 126.313L241.804 121.659C241.266 121.288 240.638 121.069 239.985 121.026C239.333 120.983 238.681 121.118 238.099 121.415L228.815 126.794L225.888 126.868V129.269C225.901 129.508 225.969 129.741 226.087 129.95C226.205 130.158 226.371 130.336 226.57 130.469L234.157 136.256C234.695 136.627 235.324 136.846 235.976 136.889C236.628 136.932 237.28 136.798 237.862 136.501L249.265 129.921C249.505 129.806 249.71 129.628 249.857 129.406C250.004 129.184 250.089 128.927 250.103 128.661L250.081 126.261Z" fill="url(#paint31_linear_504_7147)"/>
<path opacity="0.1" d="M250.081 126.261L247.902 126.313L241.804 121.659C241.266 121.288 240.638 121.069 239.985 121.026C239.333 120.983 238.681 121.118 238.099 121.415L228.815 126.794L225.888 126.868V129.269C225.901 129.508 225.969 129.741 226.087 129.95C226.205 130.158 226.371 130.336 226.57 130.469L234.157 136.256C234.695 136.627 235.324 136.846 235.976 136.889C236.628 136.932 237.28 136.798 237.862 136.501L249.265 129.921C249.505 129.806 249.71 129.628 249.857 129.406C250.004 129.184 250.089 128.927 250.103 128.661L250.081 126.261Z" fill="black"/>
<path d="M226.696 125.609L238.107 119.029C238.689 118.732 239.341 118.598 239.993 118.641C240.645 118.684 241.273 118.902 241.811 119.274L249.399 125.06C249.622 125.188 249.805 125.376 249.927 125.602C250.048 125.829 250.104 126.085 250.087 126.341C250.07 126.598 249.981 126.845 249.831 127.053C249.68 127.262 249.474 127.423 249.236 127.52L237.833 134.1C237.25 134.397 236.599 134.532 235.946 134.488C235.294 134.445 234.666 134.227 234.128 133.856L226.54 128.069C226.319 127.94 226.138 127.752 226.018 127.527C225.897 127.301 225.842 127.046 225.858 126.791C225.874 126.535 225.961 126.29 226.109 126.081C226.257 125.872 226.46 125.709 226.696 125.609Z" fill="url(#paint32_linear_504_7147)"/>
<path opacity="0.75" d="M226.696 125.609L238.107 119.029C238.689 118.732 239.341 118.598 239.993 118.641C240.645 118.684 241.273 118.902 241.811 119.274L249.399 125.06C249.622 125.188 249.805 125.376 249.927 125.602C250.048 125.829 250.104 126.085 250.087 126.341C250.07 126.598 249.981 126.845 249.831 127.053C249.68 127.262 249.474 127.423 249.236 127.52L237.833 134.1C237.25 134.397 236.599 134.532 235.946 134.488C235.294 134.445 234.666 134.227 234.128 133.856L226.54 128.069C226.319 127.94 226.138 127.752 226.018 127.527C225.897 127.301 225.842 127.046 225.858 126.791C225.874 126.535 225.961 126.29 226.109 126.081C226.257 125.872 226.46 125.709 226.696 125.609Z" fill="white"/>
<path d="M66.2933 56.2407V48.0234C66.2855 45.9868 65.4709 44.0362 64.028 42.5989C62.5851 41.1615 60.6314 40.3545 58.5947 40.3545V40.3545V48.5717C58.6026 50.6084 59.4171 52.5589 60.86 53.9963C62.3029 55.4336 64.2566 56.2407 66.2933 56.2407V56.2407Z" fill="#263238"/>
<path d="M91.3382 123.698L66.731 111.198L68.9538 152.544L93.5611 165.044L91.3382 123.698Z" fill="url(#paint33_linear_504_7147)"/>
<path opacity="0.5" d="M91.3382 123.698L66.731 111.198L68.9538 152.544L93.5611 165.044L91.3382 123.698Z" fill="white"/>
<path d="M93.5613 165.043L105.128 157.515L95.9694 120.689L91.3384 123.698L93.5613 165.043Z" fill="url(#paint34_linear_504_7147)"/>
<path d="M105.127 157.517L97.2732 156.924L93.561 165.045L105.127 157.517Z" fill="url(#paint35_linear_504_7147)"/>
<path opacity="0.3" d="M105.127 157.517L97.2732 156.924L93.561 165.045L105.127 157.517Z" fill="black"/>
<path d="M97.2732 156.923L91.1899 120.942L91.3381 123.699L93.561 165.044L97.2732 156.923Z" fill="url(#paint36_linear_504_7147)"/>
<path opacity="0.1" d="M97.2732 156.923L91.1899 120.942L91.3381 123.699L93.561 165.044L97.2732 156.923Z" fill="black"/>
<path d="M66.731 111.199L71.5027 110.947L71.3545 108.19L95.9692 120.69L91.19 120.942L91.3382 123.699L66.731 111.199Z" fill="url(#paint37_linear_504_7147)"/>
<path d="M83.5357 122.261C83.5357 122.609 83.3134 122.772 82.9948 122.609C82.8276 122.512 82.6855 122.377 82.58 122.215C82.4745 122.053 82.4085 121.868 82.3872 121.676C82.3872 121.32 82.6095 121.164 82.9281 121.32C83.0955 121.419 83.2375 121.555 83.343 121.719C83.4484 121.882 83.5144 122.068 83.5357 122.261V122.261Z" fill="#455A64"/>
<path d="M76.1783 118.586C76.1783 118.941 75.956 119.104 75.6374 118.941C75.4713 118.843 75.3301 118.707 75.2248 118.545C75.1194 118.383 75.0527 118.199 75.0298 118.008C75.0298 117.652 75.2521 117.496 75.5707 117.652C75.7383 117.749 75.8807 117.884 75.9862 118.046C76.0918 118.208 76.1576 118.393 76.1783 118.586V118.586Z" fill="#455A64"/>
<path d="M88.0337 119.333C88.0337 119.689 87.8115 119.845 87.4928 119.682C87.3249 119.585 87.1822 119.45 87.0765 119.288C86.9709 119.126 86.9053 118.941 86.8853 118.748C86.8853 118.392 87.1075 118.237 87.4262 118.4C87.5941 118.496 87.7368 118.631 87.8425 118.793C87.9481 118.956 88.0137 119.141 88.0337 119.333V119.333Z" fill="#455A64"/>
<path d="M80.7203 115.622C80.7203 115.978 80.498 116.134 80.1794 115.978C80.0108 115.88 79.8679 115.744 79.7622 115.581C79.6566 115.417 79.5913 115.231 79.5718 115.037C79.5718 114.681 79.7941 114.526 80.1127 114.689C80.2799 114.786 80.4219 114.921 80.5275 115.083C80.633 115.245 80.699 115.43 80.7203 115.622V115.622Z" fill="#455A64"/>
<path d="M95.9691 120.689L91.1899 120.941L97.2732 156.922L105.127 157.515L95.9691 120.689Z" fill="url(#paint38_linear_504_7147)"/>
<path opacity="0.2" d="M95.9691 120.689L91.1899 120.941L97.2732 156.922L105.127 157.515L95.9691 120.689Z" fill="black"/>
<path d="M71.3545 108.19L71.5027 110.947L71.6509 113.703L72.9031 114.333L71.3545 108.19Z" fill="url(#paint39_linear_504_7147)"/>
<path opacity="0.2" d="M71.3545 108.19L71.5027 110.947L71.6509 113.703L72.9031 114.333L71.3545 108.19Z" fill="black"/>
<path d="M60.2925 47.0982C63.612 46.9203 70.3325 47.2019 72.7925 56.7306C74.8671 64.733 80.4762 82.2492 81.9359 90.0293C83.0473 95.957 84.5737 100.106 84.796 104.241C84.3811 106.367 82.6843 108.687 78.0162 109.428C73.5705 108.25 74.3485 107.516 74.0373 103.574C73.7261 99.6322 75.7563 98.5059 75.1117 93.8304C73.7631 84.0127 64.9753 63.5549 64.9753 63.5549L60.2925 47.0982Z" fill="#B16668"/>
<path d="M87.456 119.394C87.3767 119.393 87.3002 119.365 87.2384 119.315C87.1767 119.266 87.1333 119.197 87.1151 119.12C87.1151 119.068 86.0185 114.259 84.7959 110.614C83.8327 107.746 81.7136 107.101 79.8537 106.531C79.4388 106.405 79.0461 106.286 78.6904 106.153C78.6045 106.117 78.5357 106.049 78.4985 105.963C78.4612 105.878 78.4583 105.781 78.4904 105.694C78.5068 105.65 78.5318 105.61 78.5638 105.575C78.5958 105.541 78.6343 105.514 78.677 105.494C78.7197 105.475 78.7657 105.464 78.8125 105.463C78.8594 105.462 78.906 105.469 78.9498 105.486C79.2906 105.619 79.6907 105.731 80.0612 105.857C81.9877 106.442 84.3884 107.176 85.4702 110.391C86.7002 114.096 87.7968 118.912 87.8042 118.964C87.8151 119.009 87.8169 119.056 87.8093 119.102C87.8017 119.148 87.785 119.192 87.7601 119.232C87.7352 119.271 87.7027 119.305 87.6645 119.332C87.6263 119.358 87.5831 119.377 87.5375 119.387L87.456 119.394Z" fill="#263238"/>
<path d="M81.6906 100.107C80.9601 101.484 80.4145 102.951 80.0679 104.471C79.9494 105.294 78.586 104.649 78.3118 103.582C78.0929 101.88 77.9988 100.163 78.0303 98.4473C78.0303 98.4473 77.393 101.73 77.7413 103.293C78.0895 104.857 78.4822 105.168 79.6233 105.516C80.7644 105.864 80.5866 104.857 80.8533 103.552C81.1201 102.248 81.6906 100.107 81.6906 100.107Z" fill="#9A4A4D"/>
<path d="M82.543 121.779L82.0318 112.228C81.928 110.124 81.8021 107.731 78.2529 105.908C77.0081 105.271 76.0893 105.086 75.6521 105.397C75.215 105.708 75.3261 106.479 75.3261 106.486L75.9559 118.208C75.9436 118.293 75.9013 118.37 75.8367 118.426C75.772 118.482 75.6894 118.512 75.604 118.512C75.5185 118.512 75.4359 118.482 75.3713 118.426C75.3067 118.37 75.2643 118.293 75.252 118.208L74.6222 106.523C74.574 106.206 74.6049 105.881 74.7122 105.579C74.8195 105.277 74.9998 105.005 75.2372 104.789C75.9263 104.293 77.0229 104.441 78.5789 105.241C82.4912 107.257 82.632 109.969 82.7357 112.154L83.2544 121.691C83.2584 121.786 83.225 121.878 83.1612 121.949C83.0975 122.02 83.0085 122.063 82.9135 122.068C82.8272 122.074 82.742 122.047 82.6738 121.994C82.6056 121.941 82.5591 121.864 82.543 121.779V121.779Z" fill="#263238"/>
<path d="M80.1418 115.577C80.0626 115.576 79.986 115.549 79.9242 115.499C79.8625 115.449 79.8191 115.38 79.801 115.303L78.2227 108.16C78.2129 108.115 78.2123 108.067 78.2208 108.021C78.2292 107.975 78.2467 107.932 78.2722 107.892C78.2977 107.853 78.3306 107.819 78.3692 107.793C78.4077 107.766 78.4511 107.748 78.4969 107.738C78.5891 107.72 78.6845 107.739 78.7633 107.79C78.842 107.841 78.8979 107.921 78.9192 108.012L80.4901 115.148C80.501 115.193 80.5027 115.24 80.4951 115.286C80.4875 115.332 80.4708 115.376 80.4459 115.415C80.4211 115.455 80.3885 115.489 80.3503 115.515C80.3121 115.542 80.2689 115.56 80.2233 115.57L80.1418 115.577Z" fill="#263238"/>
<path d="M77.749 105.672C76.4079 104.857 73.7997 103.664 73.1921 104.39C72.5846 105.116 71.8065 108.095 74.8297 109.147C76.8442 109.708 78.9935 109.524 80.8833 108.628L77.749 105.672Z" fill="#9A4A4D"/>
<path d="M55.4312 42.208H52.534C48.6037 42.208 44.8344 40.6467 42.0553 37.8675C39.2761 35.0884 37.7148 31.3191 37.7148 27.3888V27.3888C37.7148 23.1932 39.3815 19.1695 42.3483 16.2027C45.315 13.236 49.3387 11.5693 53.5343 11.5693H54.4605C58.6484 11.5772 62.6623 13.2453 65.6222 16.208C68.5821 19.1706 70.2464 23.1861 70.2504 27.374V27.374C70.2523 29.3213 69.8704 31.2499 69.1266 33.0496C68.3827 34.8492 67.2914 36.4846 65.9152 37.8623C64.5389 39.24 62.9046 40.3329 61.1057 41.0785C59.3067 41.8242 57.3785 42.208 55.4312 42.208Z" fill="#263238"/>
<path d="M39.7676 15.7334C40.3213 15.8444 40.8085 16.1702 41.1223 16.6397C41.4362 17.1091 41.5512 17.6838 41.4422 18.2379L37.2632 17.3858C37.3792 16.8362 37.7071 16.3545 38.176 16.0451C38.6448 15.7358 39.2167 15.6238 39.7676 15.7334V15.7334Z" fill="#263238"/>
<path d="M42.4938 14.8296C42.5805 15.0952 42.6141 15.3754 42.5925 15.654C42.5709 15.9326 42.4946 16.2042 42.368 16.4533C42.2414 16.7024 42.0669 16.9241 41.8546 17.1058C41.6422 17.2874 41.3961 17.4254 41.1304 17.5119L39.8115 13.4588C40.0776 13.3723 40.3582 13.339 40.6372 13.3611C40.9162 13.3832 41.188 13.4601 41.4372 13.5874C41.6864 13.7148 41.908 13.8901 42.0893 14.1032C42.2706 14.3164 42.4081 14.5632 42.4938 14.8296V14.8296Z" fill="#263238"/>
<path d="M63.3968 210.035C62.4261 209.294 61.3295 208.598 60.4774 207.813C58.588 206.086 58.01 201.714 57.8692 200.24C57.7247 198.985 57.7123 197.719 57.8322 196.461C58.2101 193.497 60.3885 186.984 60.3885 186.984C60.3885 186.984 53.3716 182.368 53.2679 182.427C53.1641 182.487 52.0008 190.911 50.8524 192.289C49.4593 193.512 48.2664 193.853 47.481 195.468C46.7919 197.461 47.0735 198.536 48.133 200.61C48.9163 202.408 49.4978 204.287 49.8669 206.212C50.4671 208.642 50.2151 212.621 56.2539 213.837C59.4549 214.481 61.6704 214.051 63.1967 213.37C64.9158 212.607 64.9009 211.169 63.3968 210.035Z" fill="#B16668"/>
<path d="M47.481 195.476C46.7919 197.469 47.0735 198.544 48.133 200.618C48.9163 202.416 49.4978 204.294 49.8669 206.22C50.4671 208.65 50.2151 212.629 56.2539 213.844C59.4549 214.489 61.6704 214.059 63.1967 213.378C64.9158 212.637 64.9009 211.155 63.3968 210.036C62.6558 209.458 61.7963 208.902 61.0628 208.309C61.863 209.747 58.0174 210.088 55.802 208.761C53.5865 207.435 50.8227 198.092 50.5486 196.002C50.3824 194.76 50.486 193.496 50.8524 192.297C50.9339 192.186 51.0376 192.023 51.0376 192.023C51.0376 192.023 50.8005 191.927 50.5486 192.119C49.2688 192.973 48.216 194.125 47.481 195.476V195.476Z" fill="#263238"/>
<path d="M70.7987 88.6514C71.8805 100.507 75.1555 141.171 74.2738 148.832C73.8811 152.307 59.1508 190.985 59.1508 190.985C59.1508 190.985 55.5572 192.089 52.171 188.251C53.9197 171.624 55.5942 153.811 59.2249 148.291C58.5358 142.571 51.4004 114.074 51.4004 114.074L70.7987 88.6514Z" fill="#37474F"/>
<path d="M44.2203 204.226V203.181C44.6352 204.404 46.5543 209.694 49.4588 212.339C51.7632 214.451 54.9123 216.882 55.7125 219.23C56.5128 221.579 51.3335 222.491 49.1773 222.105C46.6654 221.668 43.4274 220.246 41.664 218.075C40.4191 216.548 39.6263 214.74 38.7446 213.54C37.8628 212.34 35.7807 211.006 35.3362 209.62C35.0694 208.879 35.388 207.182 35.7511 205.775C36.1142 204.367 36.4921 203.055 36.907 203.181V203.974C37.4331 204.567 38.9076 205.152 40.5599 205.211C41.6343 205.256 44.2351 205.041 44.2203 204.226Z" fill="#263238"/>
<path d="M51.5486 214.191C50.8076 213.554 50.1111 212.932 49.4591 212.331C47.4288 210.486 45.8802 207.345 45.0133 205.203C44.5168 203.98 44.2651 202.671 44.2724 201.35V197.179H36.9072V203.966V204.144C37.2555 205.663 40.612 209.708 42.5237 212.346C43.8056 214.117 46.2285 216.362 49.1405 216.755C51.9265 217.148 53.3343 216.281 51.5486 214.191Z" fill="#B16668"/>
<path d="M38.3892 90.4663C32.7135 102.863 38.5967 146.52 38.5967 146.52C38.4263 148.535 36.1219 152.492 35.2698 161.339C34.2547 171.794 36.8554 198.061 36.8554 198.061C37.9727 198.711 39.2324 199.078 40.5242 199.128C41.816 199.178 43.1005 198.911 44.265 198.35C44.265 198.35 51.2448 158.798 52.5563 148.402C53.6974 139.325 56.8391 111.406 56.8391 111.406L70.8432 88.6436L38.3892 90.4663Z" fill="#37474F"/>
<path d="M50.4593 47.2466L42.8348 47.6097C41.7901 47.9357 38.9818 50.5735 37.8778 54.6117C37.0872 57.9362 37.2646 61.4174 38.3891 64.6443L43.4572 79.3079C43.4572 79.3079 41.0862 85.0503 38.3298 90.4667C51.0521 97.5725 66.9382 93.8381 70.769 88.6514C70.9246 87.5547 70.7097 82.5977 71.0135 76.9665C71.3469 70.9499 72.1694 64.1627 71.2284 60.4505C69.4723 53.5521 66.1825 47.0762 59.6398 47.0762L50.4593 47.2466Z" fill="url(#paint40_linear_504_7147)"/>
<path d="M64.8857 18.127C66.6047 19.1421 68.7313 23.4693 68.5238 32.5386C68.346 40.2223 65.8489 42.1192 64.6041 42.6675C63.3593 43.2158 60.9364 42.8824 58.5949 42.4897V47.1059C58.5949 47.1059 61.8329 50.8699 61.6329 52.9817C61.4328 55.0934 56.95 55.5972 53.9195 53.53C51.9521 52.1253 50.2635 50.3664 48.9403 48.3433V38.1328C48.252 38.3783 47.5155 38.4579 46.7906 38.3652C46.0658 38.2725 45.373 38.0101 44.7687 37.5994C42.1605 35.91 42.0938 31.605 43.5757 30.0786C45.0576 28.5522 48.3253 29.0339 48.9328 31.1456C48.9328 31.1456 52.6747 31.279 57.6539 28.5448C59.594 27.4998 61.2601 26.0116 62.5167 24.2014C63.7733 22.3912 64.5849 20.31 64.8857 18.127V18.127Z" fill="#B16668"/>
<path d="M60.2698 30.7229C60.2725 30.9135 60.219 31.1008 60.116 31.2612C60.013 31.4216 59.865 31.5482 59.6905 31.625C59.516 31.7019 59.3227 31.7256 59.1348 31.6933C58.9469 31.661 58.7727 31.5741 58.6339 31.4434C58.495 31.3127 58.3978 31.144 58.3543 30.9583C58.3107 30.7727 58.3228 30.5784 58.389 30.3996C58.4553 30.2208 58.5727 30.0654 58.7266 29.953C58.8806 29.8405 59.0643 29.7758 59.2547 29.7671C59.3841 29.7631 59.5131 29.7847 59.6342 29.8306C59.7552 29.8765 59.8661 29.9458 59.9604 30.0346C60.0546 30.1234 60.1305 30.2299 60.1836 30.348C60.2367 30.4661 60.266 30.5935 60.2698 30.7229V30.7229Z" fill="#263238"/>
<path d="M60.1958 37.1396L62.4186 37.8806C62.379 38.0338 62.3083 38.1772 62.2109 38.3019C62.1136 38.4266 61.9917 38.53 61.8528 38.6058C61.7139 38.6815 61.5609 38.7279 61.4033 38.7421C61.2457 38.7562 61.0869 38.7379 60.9367 38.6882C60.6369 38.5761 60.3922 38.3521 60.254 38.0633C60.1158 37.7746 60.095 37.4435 60.1958 37.1396V37.1396Z" fill="#9A4A4D"/>
<path d="M67.8643 27.6555L65.9082 26.2773C65.99 26.1456 66.0978 26.032 66.2249 25.9433C66.3521 25.8546 66.496 25.7928 66.6479 25.7616C66.7997 25.7304 66.9563 25.7305 67.1081 25.7618C67.26 25.7932 67.4038 25.8551 67.5309 25.9439C67.7981 26.1299 67.9823 26.4126 68.0445 26.7321C68.1068 27.0516 68.0421 27.3828 67.8643 27.6555V27.6555Z" fill="#263238"/>
<path d="M67.5833 30.5606C67.586 30.7512 67.5325 30.9385 67.4295 31.0989C67.3265 31.2593 67.1785 31.3859 67.004 31.4627C66.8295 31.5396 66.6362 31.5633 66.4483 31.531C66.2604 31.4987 66.0861 31.4118 65.9473 31.2811C65.8085 31.1504 65.7113 30.9817 65.6677 30.796C65.6242 30.6104 65.6363 30.4161 65.7025 30.2373C65.7687 30.0585 65.8862 29.9031 66.0401 29.7906C66.1941 29.6782 66.3777 29.6135 66.5682 29.6048C66.829 29.5987 67.0818 29.6956 67.2718 29.8745C67.4617 30.0534 67.5736 30.2998 67.5833 30.5606V30.5606Z" fill="#263238"/>
<path d="M62.8555 29.3662L63.0111 35.1901L66.0712 34.2417L62.8555 29.3662Z" fill="#9A4A4D"/>
<path d="M58.5952 42.5037C56.1204 42.1851 51.0375 40.718 50.2446 38.71C50.5622 39.7278 51.1858 40.623 52.0303 41.2737C53.5123 42.5778 58.5952 44.0449 58.5952 44.0449V42.5037Z" fill="#9A4A4D"/>
<path d="M57.0539 137.613L54.8755 128.292L56.7946 111.413C56.7946 111.413 62.8334 109.138 66.0343 104.463C64.6084 107.87 62.2284 110.793 59.1805 112.88L55.8906 128.248L57.0539 137.613Z" fill="#263238"/>
<path d="M51.2447 119.468L24.7554 104.175L19.4575 148.781L45.9468 164.074L51.2447 119.468Z" fill="url(#paint41_linear_504_7147)"/>
<path opacity="0.5" d="M51.2447 119.468L24.7554 104.175L19.4575 148.781L45.9468 164.074L51.2447 119.468Z" fill="white"/>
<path d="M59.1877 156.427L51.2446 154.894L45.9468 164.074L59.1877 156.427Z" fill="url(#paint42_linear_504_7147)"/>
<path opacity="0.3" d="M59.1877 156.427L51.2446 154.894L45.9468 164.074L59.1877 156.427Z" fill="black"/>
<path d="M51.2446 154.893L53.8899 114.881L51.2446 119.467L45.9468 164.073L51.2446 154.893Z" fill="url(#paint43_linear_504_7147)"/>
<path opacity="0.1" d="M51.2446 154.893L53.8899 114.881L51.2446 119.467L45.9468 164.073L51.2446 154.893Z" fill="black"/>
<path d="M24.7559 104.173L32.6989 102.647V99.5869L59.1882 114.88H53.8904L51.2451 119.467L24.7559 104.173Z" fill="url(#paint44_linear_504_7147)"/>
<path d="M41.5162 119.03C41.5162 119.423 41.2346 119.579 40.8938 119.386C40.7146 119.267 40.5657 119.108 40.4589 118.922C40.3521 118.735 40.2904 118.526 40.2788 118.311C40.2788 117.919 40.553 117.756 40.8938 117.956C41.0748 118.073 41.2255 118.232 41.3336 118.418C41.4418 118.605 41.5043 118.815 41.5162 119.03V119.03Z" fill="#455A64"/>
<path d="M33.7506 114.097C33.7506 114.497 33.4764 114.653 33.1282 114.46C32.949 114.341 32.8 114.182 32.6933 113.996C32.5865 113.809 32.5248 113.6 32.5132 113.386C32.5132 112.993 32.7873 112.83 33.1282 113.03C33.3098 113.145 33.4612 113.302 33.5695 113.488C33.6779 113.673 33.7399 113.882 33.7506 114.097V114.097Z" fill="#455A64"/>
<path d="M49.7408 113.71C49.7408 114.103 49.4667 114.266 49.1258 114.066C48.9454 113.95 48.795 113.792 48.6868 113.607C48.5787 113.422 48.5158 113.213 48.5034 112.999C48.5034 112.599 48.785 112.443 49.1258 112.636C49.305 112.755 49.454 112.914 49.5607 113.1C49.6675 113.287 49.7292 113.496 49.7408 113.71V113.71Z" fill="#455A64"/>
<path d="M41.8863 109.324C41.8863 109.716 41.6048 109.879 41.2639 109.679C41.0845 109.563 40.9352 109.405 40.8283 109.22C40.7214 109.034 40.6599 108.826 40.6489 108.612C40.6489 108.22 40.9231 108.057 41.2639 108.257C41.4443 108.373 41.5947 108.53 41.7029 108.716C41.8111 108.901 41.8739 109.109 41.8863 109.324Z" fill="#455A64"/>
<path d="M59.1882 114.881H53.8903L51.2451 154.893L59.1882 156.426V114.881Z" fill="url(#paint45_linear_504_7147)"/>
<path d="M32.6989 102.647V108.76L24.7559 104.174L32.6989 102.647Z" fill="url(#paint46_linear_504_7147)"/>
<path opacity="0.2" d="M59.1882 114.881H53.8903L51.2451 154.893L59.1882 156.426V114.881Z" fill="black"/>
<path opacity="0.2" d="M32.6989 102.647V108.76L24.7559 104.174L32.6989 102.647Z" fill="black"/>
<path d="M33.1282 113.977C33.0819 113.988 33.0338 113.988 32.9875 113.977C32.8981 113.937 32.8276 113.863 32.7904 113.773C32.7532 113.682 32.7521 113.58 32.7874 113.488L39.5301 97.5355C39.5693 97.4448 39.6425 97.3731 39.7339 97.3358C39.8253 97.2984 39.9277 97.2982 40.0192 97.3354C40.1085 97.3761 40.179 97.4493 40.2162 97.5402C40.2534 97.6311 40.2545 97.7328 40.2192 97.8244L33.4765 113.777C33.4425 113.839 33.3919 113.891 33.3305 113.926C33.2691 113.962 33.1991 113.979 33.1282 113.977V113.977Z" fill="#263238"/>
<path d="M41.2645 109.265C41.1663 109.265 41.072 109.226 41.0026 109.156C40.9331 109.087 40.894 108.992 40.894 108.894V97.8539C40.894 97.7556 40.9331 97.6614 41.0026 97.5919C41.072 97.5224 41.1663 97.4834 41.2645 97.4834C41.3628 97.4834 41.457 97.5224 41.5265 97.5919C41.596 97.6614 41.635 97.7556 41.635 97.8539V108.902C41.6331 108.999 41.5932 109.091 41.5239 109.159C41.4546 109.227 41.3615 109.265 41.2645 109.265Z" fill="#263238"/>
<path d="M28.7568 80.7228L39.0339 66.3408C40.6707 64.6856 41.903 62.6748 42.6349 60.465C44.4281 54.7819 44.7096 51.4475 42.8276 47.6094C38.6486 47.6094 36.2034 48.0317 31.4539 56.0711C27.5787 62.6286 21.8214 73.8097 20.4136 76.2252C18.6575 79.1891 18.1462 80.0115 19.6726 82.9457C21.199 85.8799 26.9488 93.4155 31.7873 99.0838C36.6258 104.752 39.4562 106.664 43.0721 107.501C46.688 108.338 48.3033 107.634 50.3409 105.76C52.3785 103.885 50.9411 102.218 49.0442 101.781C47.245 101.392 45.529 100.687 43.9761 99.6988C42.8276 98.8689 42.4942 98.2169 43.5389 98.1724C44.9171 98.1131 46.2064 97.839 46.562 96.8757C47.0066 95.668 45.8655 95.994 44.2873 95.505C42.2483 94.8856 40.1496 94.4833 38.0262 94.3046C35.4254 94.4454 28.7568 80.7228 28.7568 80.7228Z" fill="#B16668"/>
<path d="M47.9257 40.2451H48.9409V49.8776C48.9409 51.7425 48.2 53.531 46.8813 54.8497C45.5626 56.1684 43.7741 56.9093 41.9092 56.9093H40.894V47.2768C40.894 45.4119 41.6349 43.6234 42.9536 42.3047C44.2723 40.986 46.0608 40.2451 47.9257 40.2451V40.2451Z" fill="#263238"/>
<path d="M48.7628 113.252V104.887C48.7628 103.664 48.3997 101.715 47.3994 101.352C47.3524 101.337 47.3089 101.312 47.2716 101.279C47.2343 101.247 47.204 101.207 47.1823 101.162C47.1606 101.118 47.1481 101.069 47.1455 101.02C47.1429 100.97 47.1503 100.921 47.1671 100.874C47.184 100.828 47.21 100.785 47.2436 100.749C47.2773 100.712 47.3179 100.683 47.363 100.663C47.4082 100.642 47.4569 100.631 47.5064 100.63C47.556 100.629 47.6052 100.638 47.6513 100.656C49.4518 101.315 49.5037 104.523 49.5037 104.887V113.252C49.5037 113.35 49.4647 113.444 49.3952 113.514C49.3257 113.583 49.2315 113.622 49.1332 113.622C49.035 113.622 48.9407 113.583 48.8713 113.514C48.8018 113.444 48.7628 113.35 48.7628 113.252Z" fill="#263238"/>
<path d="M40.9905 118.993C40.9439 119 40.8964 119 40.8497 118.993C40.8042 118.975 40.7629 118.947 40.7281 118.912C40.6933 118.878 40.6658 118.836 40.6472 118.791C40.6286 118.745 40.6192 118.697 40.6196 118.647C40.6201 118.598 40.6303 118.55 40.6497 118.504C40.6497 118.46 42.465 114.192 44.6064 108.072C46.6885 102.144 45.955 100.958 45.54 100.736C45.4971 100.713 45.4592 100.681 45.4286 100.643C45.3979 100.605 45.375 100.562 45.3612 100.515C45.3474 100.468 45.3431 100.419 45.3483 100.371C45.3536 100.322 45.3683 100.275 45.3918 100.232C45.4402 100.147 45.5198 100.084 45.6138 100.056C45.7078 100.029 45.8089 100.039 45.8957 100.084C47.2072 100.825 47.0219 103.411 45.3103 108.316C43.1615 114.451 41.3536 118.727 41.3536 118.771C41.3242 118.842 41.2733 118.901 41.2081 118.941C41.1429 118.981 41.0667 118.999 40.9905 118.993Z" fill="#263238"/>
<defs>
<linearGradient id="paint0_linear_504_7147" x1="216.158" y1="38.1572" x2="326.889" y2="43.589" gradientUnits="userSpaceOnUse">
<stop stop-color="#D92322"/>
<stop offset="1" stop-color="#7C142F"/>
</linearGradient>
<linearGradient id="paint1_linear_504_7147" x1="216.159" y1="39.917" x2="324.059" y2="45.146" gradientUnits="userSpaceOnUse">
<stop stop-color="#D92322"/>
<stop offset="1" stop-color="#7C142F"/>
</linearGradient>
<linearGradient id="paint2_linear_504_7147" x1="135.506" y1="76.6387" x2="156.654" y2="77.62" gradientUnits="userSpaceOnUse">
<stop stop-color="#D92322"/>
<stop offset="1" stop-color="#7C142F"/>
</linearGradient>
<linearGradient id="paint3_linear_504_7147" x1="193.736" y1="98.1035" x2="215.381" y2="100.094" gradientUnits="userSpaceOnUse">
<stop stop-color="#D92322"/>
<stop offset="1" stop-color="#7C142F"/>
</linearGradient>
<linearGradient id="paint4_linear_504_7147" x1="194.179" y1="96.0479" x2="215.417" y2="97.9634" gradientUnits="userSpaceOnUse">
<stop stop-color="#D92322"/>
<stop offset="1" stop-color="#7C142F"/>
</linearGradient>
<linearGradient id="paint5_linear_504_7147" x1="151.475" y1="122.129" x2="173.216" y2="124.134" gradientUnits="userSpaceOnUse">
<stop stop-color="#D92322"/>
<stop offset="1" stop-color="#7C142F"/>
</linearGradient>
<linearGradient id="paint6_linear_504_7147" x1="151.945" y1="120.042" x2="173.226" y2="121.962" gradientUnits="userSpaceOnUse">
<stop stop-color="#D92322"/>
<stop offset="1" stop-color="#7C142F"/>
</linearGradient>
<linearGradient id="paint7_linear_504_7147" x1="172.173" y1="109.715" x2="194.807" y2="111.781" gradientUnits="userSpaceOnUse">
<stop stop-color="#D92322"/>
<stop offset="1" stop-color="#7C142F"/>
</linearGradient>
<linearGradient id="paint8_linear_504_7147" x1="172.64" y1="107.636" x2="194.831" y2="109.62" gradientUnits="userSpaceOnUse">
<stop stop-color="#D92322"/>
<stop offset="1" stop-color="#7C142F"/>
</linearGradient>
<linearGradient id="paint9_linear_504_7147" x1="165.233" y1="136.092" x2="190.796" y2="138.655" gradientUnits="userSpaceOnUse">
<stop stop-color="#D92322"/>
<stop offset="1" stop-color="#7C142F"/>
</linearGradient>
<linearGradient id="paint10_linear_504_7147" x1="165.25" y1="133.706" x2="190.831" y2="136.273" gradientUnits="userSpaceOnUse">
<stop stop-color="#D92322"/>
<stop offset="1" stop-color="#7C142F"/>
</linearGradient>
<linearGradient id="paint11_linear_504_7147" x1="209.766" y1="170.053" x2="235.337" y2="172.618" gradientUnits="userSpaceOnUse">
<stop stop-color="#D92322"/>
<stop offset="1" stop-color="#7C142F"/>
</linearGradient>
<linearGradient id="paint12_linear_504_7147" x1="209.722" y1="167.665" x2="235.286" y2="170.229" gradientUnits="userSpaceOnUse">
<stop stop-color="#D92322"/>
<stop offset="1" stop-color="#7C142F"/>
</linearGradient>
<linearGradient id="paint13_linear_504_7147" x1="180.023" y1="147.411" x2="205.631" y2="149.988" gradientUnits="userSpaceOnUse">
<stop stop-color="#D92322"/>
<stop offset="1" stop-color="#7C142F"/>
</linearGradient>
<linearGradient id="paint14_linear_504_7147" x1="180.072" y1="145.025" x2="205.648" y2="147.592" gradientUnits="userSpaceOnUse">
<stop stop-color="#D92322"/>
<stop offset="1" stop-color="#7C142F"/>
</linearGradient>
<linearGradient id="paint15_linear_504_7147" x1="194.894" y1="158.73" x2="220.464" y2="161.296" gradientUnits="userSpaceOnUse">
<stop stop-color="#D92322"/>
<stop offset="1" stop-color="#7C142F"/>
</linearGradient>
<linearGradient id="paint16_linear_504_7147" x1="194.928" y1="156.374" x2="220.464" y2="158.937" gradientUnits="userSpaceOnUse">
<stop stop-color="#D92322"/>
<stop offset="1" stop-color="#7C142F"/>
</linearGradient>
<linearGradient id="paint17_linear_504_7147" x1="188.062" y1="122.898" x2="213.695" y2="125.47" gradientUnits="userSpaceOnUse">
<stop stop-color="#D92322"/>
<stop offset="1" stop-color="#7C142F"/>
</linearGradient>
<linearGradient id="paint18_linear_504_7147" x1="188.123" y1="120.513" x2="213.696" y2="123.078" gradientUnits="userSpaceOnUse">
<stop stop-color="#D92322"/>
<stop offset="1" stop-color="#7C142F"/>
</linearGradient>
<linearGradient id="paint19_linear_504_7147" x1="232.594" y1="156.857" x2="258.195" y2="159.432" gradientUnits="userSpaceOnUse">
<stop stop-color="#D92322"/>
<stop offset="1" stop-color="#7C142F"/>
</linearGradient>
<linearGradient id="paint20_linear_504_7147" x1="232.635" y1="154.474" x2="258.204" y2="157.038" gradientUnits="userSpaceOnUse">
<stop stop-color="#D92322"/>
<stop offset="1" stop-color="#7C142F"/>
</linearGradient>
<linearGradient id="paint21_linear_504_7147" x1="202.956" y1="134.218" x2="228.526" y2="136.783" gradientUnits="userSpaceOnUse">
<stop stop-color="#D92322"/>
<stop offset="1" stop-color="#7C142F"/>
</linearGradient>
<linearGradient id="paint22_linear_504_7147" x1="202.95" y1="131.833" x2="228.53" y2="134.4" gradientUnits="userSpaceOnUse">
<stop stop-color="#D92322"/>
<stop offset="1" stop-color="#7C142F"/>
</linearGradient>
<linearGradient id="paint23_linear_504_7147" x1="217.79" y1="145.517" x2="243.36" y2="148.082" gradientUnits="userSpaceOnUse">
<stop stop-color="#D92322"/>
<stop offset="1" stop-color="#7C142F"/>
</linearGradient>
<linearGradient id="paint24_linear_504_7147" x1="217.801" y1="143.154" x2="243.372" y2="145.719" gradientUnits="userSpaceOnUse">
<stop stop-color="#D92322"/>
<stop offset="1" stop-color="#7C142F"/>
</linearGradient>
<linearGradient id="paint25_linear_504_7147" x1="211.009" y1="109.698" x2="236.58" y2="112.263" gradientUnits="userSpaceOnUse">
<stop stop-color="#D92322"/>
<stop offset="1" stop-color="#7C142F"/>
</linearGradient>
<linearGradient id="paint26_linear_504_7147" x1="211.021" y1="107.313" x2="236.592" y2="109.879" gradientUnits="userSpaceOnUse">
<stop stop-color="#D92322"/>
<stop offset="1" stop-color="#7C142F"/>
</linearGradient>
<linearGradient id="paint27_linear_504_7147" x1="255.527" y1="143.657" x2="281.083" y2="146.215" gradientUnits="userSpaceOnUse">
<stop stop-color="#D92322"/>
<stop offset="1" stop-color="#7C142F"/>
</linearGradient>
<linearGradient id="paint28_linear_504_7147" x1="255.536" y1="141.272" x2="281.091" y2="143.834" gradientUnits="userSpaceOnUse">
<stop stop-color="#D92322"/>
<stop offset="1" stop-color="#7C142F"/>
</linearGradient>
<linearGradient id="paint29_linear_504_7147" x1="240.67" y1="132.337" x2="266.249" y2="134.903" gradientUnits="userSpaceOnUse">
<stop stop-color="#D92322"/>
<stop offset="1" stop-color="#7C142F"/>
</linearGradient>
<linearGradient id="paint30_linear_504_7147" x1="240.709" y1="129.951" x2="266.258" y2="132.511" gradientUnits="userSpaceOnUse">
<stop stop-color="#D92322"/>
<stop offset="1" stop-color="#7C142F"/>
</linearGradient>
<linearGradient id="paint31_linear_504_7147" x1="225.888" y1="121.019" x2="251.437" y2="123.577" gradientUnits="userSpaceOnUse">
<stop stop-color="#D92322"/>
<stop offset="1" stop-color="#7C142F"/>
</linearGradient>
<linearGradient id="paint32_linear_504_7147" x1="225.855" y1="118.633" x2="251.424" y2="121.198" gradientUnits="userSpaceOnUse">
<stop stop-color="#D92322"/>
<stop offset="1" stop-color="#7C142F"/>
</linearGradient>
<linearGradient id="paint33_linear_504_7147" x1="66.731" y1="111.198" x2="95.2923" y2="112.133" gradientUnits="userSpaceOnUse">
<stop stop-color="#D92322"/>
<stop offset="1" stop-color="#7C142F"/>
</linearGradient>
<linearGradient id="paint34_linear_504_7147" x1="91.3384" y1="120.689" x2="106.027" y2="120.989" gradientUnits="userSpaceOnUse">
<stop stop-color="#D92322"/>
<stop offset="1" stop-color="#7C142F"/>
</linearGradient>
<linearGradient id="paint35_linear_504_7147" x1="93.561" y1="156.924" x2="105.78" y2="158.067" gradientUnits="userSpaceOnUse">
<stop stop-color="#D92322"/>
<stop offset="1" stop-color="#7C142F"/>
</linearGradient>
<linearGradient id="paint36_linear_504_7147" x1="91.1899" y1="120.942" x2="97.6721" y2="121.001" gradientUnits="userSpaceOnUse">
<stop stop-color="#D92322"/>
<stop offset="1" stop-color="#7C142F"/>
</linearGradient>
<linearGradient id="paint37_linear_504_7147" x1="66.731" y1="108.19" x2="97.4188" y2="111.99" gradientUnits="userSpaceOnUse">
<stop stop-color="#D92322"/>
<stop offset="1" stop-color="#7C142F"/>
</linearGradient>
<linearGradient id="paint38_linear_504_7147" x1="91.1899" y1="120.689" x2="106.033" y2="121.058" gradientUnits="userSpaceOnUse">
<stop stop-color="#D92322"/>
<stop offset="1" stop-color="#7C142F"/>
</linearGradient>
<linearGradient id="paint39_linear_504_7147" x1="71.3545" y1="108.19" x2="73.0043" y2="108.218" gradientUnits="userSpaceOnUse">
<stop stop-color="#D92322"/>
<stop offset="1" stop-color="#7C142F"/>
</linearGradient>
<linearGradient id="paint40_linear_504_7147" x1="37.3921" y1="47.0762" x2="73.8332" y2="48.8095" gradientUnits="userSpaceOnUse">
<stop stop-color="#D92322"/>
<stop offset="1" stop-color="#7C142F"/>
</linearGradient>
<linearGradient id="paint41_linear_504_7147" x1="19.4575" y1="104.175" x2="53.2908" y2="105.354" gradientUnits="userSpaceOnUse">
<stop stop-color="#D92322"/>
<stop offset="1" stop-color="#7C142F"/>
</linearGradient>
<linearGradient id="paint42_linear_504_7147" x1="45.9468" y1="154.894" x2="59.9317" y2="156.218" gradientUnits="userSpaceOnUse">
<stop stop-color="#D92322"/>
<stop offset="1" stop-color="#7C142F"/>
</linearGradient>
<linearGradient id="paint43_linear_504_7147" x1="45.9468" y1="114.881" x2="54.4105" y2="114.971" gradientUnits="userSpaceOnUse">
<stop stop-color="#D92322"/>
<stop offset="1" stop-color="#7C142F"/>
</linearGradient>
<linearGradient id="paint44_linear_504_7147" x1="24.7559" y1="99.5869" x2="60.9806" y2="103.707" gradientUnits="userSpaceOnUse">
<stop stop-color="#D92322"/>
<stop offset="1" stop-color="#7C142F"/>
</linearGradient>
<linearGradient id="paint45_linear_504_7147" x1="51.2451" y1="114.881" x2="59.7084" y2="114.987" gradientUnits="userSpaceOnUse">
<stop stop-color="#D92322"/>
<stop offset="1" stop-color="#7C142F"/>
</linearGradient>
<linearGradient id="paint46_linear_504_7147" x1="24.7559" y1="102.647" x2="33.1593" y2="103.364" gradientUnits="userSpaceOnUse">
<stop stop-color="#D92322"/>
<stop offset="1" stop-color="#7C142F"/>
</linearGradient>
</defs>
</svg>
