<svg width="30" height="28" viewBox="0 0 30 28" fill="none" xmlns="http://www.w3.org/2000/svg">
<path d="M0.375 0.75V23.25H11.1593L15 27.0907L18.8407 23.25H29.625V0.75H0.375ZM2.625 3H27.375V21H17.9093L15 23.9093L12.0907 21H2.625V3ZM13.875 5.25V6.5865C12.5745 7.05562 11.625 8.29763 11.625 9.75225C11.625 11.6029 13.1494 13.1273 15 13.1273C15.6368 13.1273 16.125 13.6155 16.125 14.2523C16.125 14.889 15.6368 15.3773 15 15.3773C14.3632 15.3773 13.875 14.889 13.875 14.2523H11.625C11.625 15.7069 12.5745 16.9455 13.875 17.4157V18.75H16.125V17.4135C17.4255 16.9433 18.375 15.7024 18.375 14.2477C18.375 12.3971 16.8506 10.8728 15 10.8728C14.3632 10.8728 13.875 10.3845 13.875 9.74775C13.875 9.111 14.3632 8.62275 15 8.62275C15.6368 8.62275 16.125 9.111 16.125 9.74775H18.375C18.375 8.29313 17.4255 7.0545 16.125 6.58425V5.25H13.875Z" fill="#455A64"/>
</svg>
