<svg width="38" height="38" viewBox="0 0 38 38" fill="none" xmlns="http://www.w3.org/2000/svg">
<g filter="url(#filter0_b_2818_18394)">
<rect width="38" height="38" rx="19" fill="white" fill-opacity="0.7"/>
<path d="M23.9208 20.5147C25.3458 20.5147 26.5 21.6494 26.5 23.0494C26.5 24.4486 25.3458 25.5833 23.9208 25.5833C22.4967 25.5833 21.3417 24.4486 21.3417 23.0494C21.3417 21.6494 22.4967 20.5147 23.9208 20.5147ZM17.5625 21.9685C18.1866 21.9685 18.6933 22.4662 18.6933 23.0795C18.6933 23.6919 18.1866 24.1905 17.5625 24.1905H12.6308C12.0067 24.1905 11.5 23.6919 11.5 23.0795C11.5 22.4662 12.0067 21.9685 12.6308 21.9685H17.5625ZM14.0792 12.25C15.5041 12.25 16.6583 13.3847 16.6583 14.7839C16.6583 16.1839 15.5041 17.3187 14.0792 17.3187C12.655 17.3187 11.5 16.1839 11.5 14.7839C11.5 13.3847 12.655 12.25 14.0792 12.25ZM25.37 13.6737C25.9933 13.6737 26.5 14.1715 26.5 14.7839C26.5 15.3971 25.9933 15.8949 25.37 15.8949H20.4384C19.8142 15.8949 19.3075 15.3971 19.3075 14.7839C19.3075 14.1715 19.8142 13.6737 20.4384 13.6737H25.37Z" fill="black"/>
</g>
<defs>
<filter id="filter0_b_2818_18394" x="-12" y="-12" width="62" height="62" filterUnits="userSpaceOnUse" color-interpolation-filters="sRGB">
<feFlood flood-opacity="0" result="BackgroundImageFix"/>
<feGaussianBlur in="BackgroundImage" stdDeviation="6"/>
<feComposite in2="SourceAlpha" operator="in" result="effect1_backgroundBlur_2818_18394"/>
<feBlend mode="normal" in="SourceGraphic" in2="effect1_backgroundBlur_2818_18394" result="shape"/>
</filter>
</defs>
</svg>
