<svg width="24" height="24" viewBox="0 0 24 24" fill="none" xmlns="http://www.w3.org/2000/svg">
<path d="M21.3333 2.6665H2.66665C2.31302 2.6665 1.97389 2.80698 1.72384 3.05703C1.47379 3.30708 1.33331 3.64622 1.33331 3.99984V19.9998C1.33331 20.3535 1.47379 20.6926 1.72384 20.9426C1.97389 21.1927 2.31302 21.3332 2.66665 21.3332H21.3333C21.6869 21.3332 22.0261 21.1927 22.2761 20.9426C22.5262 20.6926 22.6666 20.3535 22.6666 19.9998V3.99984C22.6666 3.64622 22.5262 3.30708 22.2761 3.05703C22.0261 2.80698 21.6869 2.6665 21.3333 2.6665ZM5.94665 5.33317C6.34221 5.33317 6.72889 5.45047 7.05779 5.67023C7.38668 5.88999 7.64303 6.20235 7.79441 6.5678C7.94578 6.93326 7.98539 7.33539 7.90822 7.72335C7.83105 8.11131 7.64056 8.46768 7.36086 8.74738C7.08115 9.02709 6.72479 9.21757 6.33683 9.29474C5.94886 9.37191 5.54673 9.33231 5.18128 9.18093C4.81583 9.02955 4.50347 8.77321 4.28371 8.44431C4.06394 8.11541 3.94665 7.72873 3.94665 7.33317C3.94665 6.80274 4.15736 6.29403 4.53243 5.91896C4.90751 5.54388 5.41621 5.33317 5.94665 5.33317ZM3.99998 17.9998V15.2665L7.99998 11.2132C8.12489 11.089 8.29386 11.0193 8.46998 11.0193C8.6461 11.0193 8.81507 11.089 8.93998 11.2132L10.6666 12.8998L5.54665 17.9998H3.99998ZM20 17.9998H7.43331L11.5866 13.8465L15.1866 10.2465C15.3116 10.1223 15.4805 10.0526 15.6566 10.0526C15.8328 10.0526 16.0017 10.1223 16.1266 10.2465L20 14.1198V17.9998Z" fill="url(#paint0_linear_90_2214)"/>
<defs>
<linearGradient id="paint0_linear_90_2214" x1="1.33331" y1="2.6665" x2="23.9402" y2="4.36303" gradientUnits="userSpaceOnUse">
<stop stop-color="#D92322"/>
<stop offset="1" stop-color="#7C142F"/>
</linearGradient>
</defs>
</svg>
