<svg width="20" height="20" viewBox="0 0 20 20" fill="none" xmlns="http://www.w3.org/2000/svg">
<path d="M12.9382 1.6665H7.19109C4.8204 1.6665 3.33333 3.3214 3.33333 5.9766V16.9357C3.33333 17.7075 3.94444 18.3332 4.69827 18.3332C4.9265 18.3332 5.15112 18.2749 5.35201 18.164L10.0287 15.5677L15.4741 18.1787C15.6218 18.2422 15.788 18.243 15.9362 18.1809C16.0845 18.1188 16.2025 17.999 16.2644 17.8477C16.3556 17.5691 16.245 17.2629 15.9986 17.1122L10.5891 14.5232C10.2357 14.3243 9.80744 14.3243 9.45402 14.5232L4.77011 17.1122C4.7164 17.1423 4.65141 17.1423 4.5977 17.1122C4.54663 17.0786 4.51661 17.0199 4.51868 16.9578V5.9766C4.52586 4.01278 5.4885 2.89481 7.21264 2.89481H12.9598C15.1724 2.89481 15.4957 4.73358 15.4957 5.83685V6.337H9.27442C9.11625 6.34274 8.9668 6.41264 8.859 6.53129C8.75119 6.64994 8.69389 6.8076 8.69971 6.96953C8.70729 7.29124 8.96021 7.55019 9.27442 7.55794H15.4741V13.9937C15.4741 14.3308 15.7411 14.6041 16.0704 14.6041C16.3969 14.6042 16.6627 14.3353 16.6667 14.001V5.83685C16.6667 3.26256 15.2443 1.6665 12.9382 1.6665Z" fill="#717E95"/>
</svg>
