<svg width="37" height="36" viewBox="0 0 37 36" fill="none" xmlns="http://www.w3.org/2000/svg">
<path d="M13.8594 24.7499H23.1407C23.2953 24.7499 23.4219 24.6233 23.4219 24.4687V21.5155C23.4219 21.3608 23.2953 21.2343 23.1407 21.2343H21.7344C21.5797 21.2343 21.4532 21.3608 21.4532 21.5155V22.7812H15.5469V21.5155C15.5469 21.3608 15.4203 21.2343 15.2657 21.2343H13.8594C13.7047 21.2343 13.5782 21.3608 13.5782 21.5155V24.4687C13.5782 24.6233 13.7047 24.7499 13.8594 24.7499ZM25.8125 20.4257C25.8125 20.7986 25.9607 21.1563 26.2244 21.4201C26.4881 21.6838 26.8458 21.8319 27.2188 21.8319C27.5917 21.8319 27.9494 21.6838 28.2132 21.4201C28.4769 21.1563 28.625 20.7986 28.625 20.4257C28.625 20.0527 28.4769 19.695 28.2132 19.4313C27.9494 19.1676 27.5917 19.0194 27.2188 19.0194C26.8458 19.0194 26.4881 19.1676 26.2244 19.4313C25.9607 19.695 25.8125 20.0527 25.8125 20.4257ZM34.2149 14.5335L33.3817 13.078C33.3442 13.0139 33.2829 12.9671 33.2111 12.948C33.1393 12.9289 33.0629 12.939 32.9985 12.9761L31.2161 14.0167L28.4633 6.41592C28.318 5.96238 28.0323 5.56677 27.6474 5.2862C27.2626 5.00563 26.7986 4.85462 26.3223 4.85498H11.0891C9.86918 4.85498 8.78636 5.64248 8.41019 6.80615L5.78754 14.0202L4.0016 12.9796C3.93721 12.9425 3.86077 12.9324 3.78897 12.9515C3.71718 12.9706 3.65585 13.0174 3.6184 13.0815L2.78519 14.5335C2.70785 14.6671 2.75355 14.8358 2.88715 14.9132L5.01058 16.1507L4.50082 17.5569C4.45863 17.6694 4.43754 17.789 4.43754 17.9085V30.1499C4.43754 30.7019 4.85238 31.1483 5.36215 31.1483H7.73871C8.17113 31.1483 8.5473 30.8214 8.63871 30.3644L8.90941 29.039H28.0907L28.3614 30.3644C28.4563 30.8214 28.8289 31.1483 29.2614 31.1483H31.6379C32.1477 31.1483 32.5625 30.7019 32.5625 30.1499V17.9085C32.5625 17.789 32.5414 17.6694 32.4993 17.5569L31.9895 16.1507L34.1094 14.9132C34.1732 14.8763 34.22 14.8159 34.2398 14.7449C34.2595 14.6739 34.2505 14.598 34.2149 14.5335V14.5335ZM30.0313 18.1757V26.5077H6.96879V18.1757L7.51722 16.664H29.4829L30.0313 18.1757ZM10.7903 7.66748L10.8078 7.62178L10.8219 7.57607C10.8606 7.46006 10.9661 7.38272 11.0891 7.38272H26.1219L28.7727 14.6952H8.23441L10.7903 7.66748ZM8.37504 20.4257C8.37504 20.7986 8.52319 21.1563 8.78692 21.4201C9.05064 21.6838 9.40833 21.8319 9.78129 21.8319C10.1542 21.8319 10.5119 21.6838 10.7757 21.4201C11.0394 21.1563 11.1875 20.7986 11.1875 20.4257C11.1875 20.0527 11.0394 19.695 10.7757 19.4313C10.5119 19.1676 10.1542 19.0194 9.78129 19.0194C9.40833 19.0194 9.05064 19.1676 8.78692 19.4313C8.52319 19.695 8.37504 20.0527 8.37504 20.4257Z" fill="white"/>
</svg>
