<svg width="34" height="26" viewBox="0 0 34 26" fill="none" xmlns="http://www.w3.org/2000/svg">
<path d="M6.18112 25.8706V24.1498C6.18112 23.49 5.77286 23.0599 5.07307 23.0599C4.72324 23.0599 4.34419 23.1746 4.08175 23.5475C3.87775 23.232 3.58623 23.0599 3.14888 23.0599C2.85722 23.0599 2.56583 23.1459 2.33248 23.4614V23.1173H1.72021V25.8706H2.33248V24.3505C2.33248 23.863 2.59492 23.6335 3.00318 23.6335C3.41118 23.6335 3.61545 23.8916 3.61545 24.3505V25.8706H4.22772V24.3505C4.22772 23.863 4.51911 23.6335 4.89815 23.6335C5.30642 23.6335 5.51042 23.8916 5.51042 24.3505V25.8706H6.18112ZM15.2484 23.1173H14.2572V22.2855H13.6449V23.1173H13.091V23.6621H13.6448V24.9242C13.6448 25.5552 13.9072 25.928 14.607 25.928C14.8694 25.928 15.1608 25.842 15.3651 25.7273L15.1901 25.211C15.0151 25.3257 14.8111 25.3544 14.6653 25.3544C14.3738 25.3544 14.2572 25.1824 14.2572 24.8954V23.6621H15.2484V23.1173ZM20.4381 23.0598C20.0883 23.0598 19.8551 23.232 19.7093 23.4614V23.1173H19.097V25.8706H19.7093V24.3219C19.7093 23.863 19.9133 23.6049 20.2923 23.6049C20.4089 23.6049 20.5548 23.6336 20.6714 23.6622L20.8463 23.0886C20.7297 23.0599 20.5548 23.0599 20.4381 23.0599V23.0598ZM12.5953 23.3467C12.3036 23.1459 11.8955 23.0599 11.4582 23.0599C10.7585 23.0599 10.2921 23.404 10.2921 23.949C10.2921 24.408 10.6419 24.666 11.2542 24.7521L11.5457 24.7809C11.8664 24.8381 12.0413 24.9242 12.0413 25.0676C12.0413 25.2683 11.8081 25.4118 11.3999 25.4118C10.9917 25.4118 10.671 25.2683 10.4668 25.125L10.1753 25.5839C10.4961 25.8133 10.9334 25.928 11.3706 25.928C12.187 25.928 12.6536 25.5552 12.6536 25.0389C12.6536 24.5513 12.2746 24.2931 11.6914 24.2072L11.3999 24.1784C11.1374 24.1497 10.9334 24.0924 10.9334 23.9204C10.9334 23.7196 11.1374 23.6049 11.4582 23.6049C11.8081 23.6049 12.1579 23.7482 12.3329 23.8343L12.5953 23.3467ZM28.8642 23.0599C28.5142 23.0599 28.281 23.232 28.1352 23.4614V23.1173H27.5229V25.8706H28.1352V24.3219C28.1352 23.863 28.3393 23.6049 28.7182 23.6049C28.8349 23.6049 28.9808 23.6336 29.0974 23.6622L29.2723 23.0886C29.1557 23.0599 28.9808 23.0599 28.8642 23.0599ZM21.0504 24.4939C21.0504 25.3257 21.6335 25.928 22.5374 25.928C22.9455 25.928 23.237 25.842 23.5286 25.6126L23.237 25.125C23.0038 25.2971 22.7706 25.383 22.5082 25.383C22.0125 25.383 21.6627 25.0389 21.6627 24.4939C21.6627 23.9777 22.0125 23.6335 22.5082 23.6049C22.7706 23.6049 23.0038 23.6908 23.237 23.863L23.5286 23.3754C23.237 23.1459 22.9455 23.0599 22.5374 23.0599C21.6335 23.0599 21.0504 23.6622 21.0504 24.4939ZM26.7066 24.4939V23.1173H26.0944V23.4614C25.8902 23.2034 25.5987 23.0599 25.2197 23.0599C24.4325 23.0599 23.8202 23.6622 23.8202 24.4939C23.8202 25.3257 24.4325 25.928 25.2197 25.928C25.6278 25.928 25.9195 25.7847 26.0944 25.5265V25.8706H26.7066V24.4939ZM24.4616 24.4939C24.4616 24.0063 24.7823 23.6049 25.3071 23.6049C25.8027 23.6049 26.1527 23.9777 26.1527 24.4939C26.1527 24.9815 25.8027 25.383 25.3071 25.383C24.7823 25.3543 24.4616 24.9815 24.4616 24.4939ZM17.1436 23.0599C16.3272 23.0599 15.744 23.6335 15.744 24.4939C15.744 25.3544 16.3271 25.928 17.1727 25.928C17.5808 25.928 17.9891 25.8133 18.3098 25.5552L18.0182 25.125C17.785 25.2971 17.4934 25.4118 17.2019 25.4118C16.8229 25.4118 16.4438 25.2397 16.3563 24.752H18.4264V24.5227C18.4557 23.6335 17.9308 23.0599 17.1435 23.0599H17.1436ZM17.1436 23.5761C17.5225 23.5761 17.7851 23.8057 17.8433 24.2359H16.3855C16.4438 23.863 16.7062 23.5761 17.1436 23.5761ZM32.3336 24.4939V22.0273H31.7214V23.4614C31.5172 23.2034 31.2257 23.0599 30.8467 23.0599C30.0595 23.0599 29.4472 23.6622 29.4472 24.4939C29.4472 25.3257 30.0595 25.928 30.8467 25.928C31.2549 25.928 31.5464 25.7847 31.7214 25.5265V25.8706H32.3336V24.4939ZM30.0887 24.4939C30.0887 24.0063 30.4093 23.6049 30.9342 23.6049C31.4298 23.6049 31.7797 23.9777 31.7797 24.4939C31.7797 24.9815 31.4298 25.383 30.9342 25.383C30.4093 25.3543 30.0887 24.9815 30.0887 24.4939ZM9.62136 24.4939V23.1173H9.0091V23.4614C8.80497 23.2034 8.51344 23.0599 8.13439 23.0599C7.34722 23.0599 6.73495 23.6622 6.73495 24.4939C6.73495 25.3257 7.34722 25.928 8.13439 25.928C8.54266 25.928 8.83418 25.7847 9.0091 25.5265V25.8706H9.62136V24.4939ZM7.34721 24.4939C7.34721 24.0063 7.66796 23.6049 8.1927 23.6049C8.68836 23.6049 9.03832 23.9777 9.03832 24.4939C9.03832 24.9815 8.68836 25.383 8.1927 25.383C7.66796 25.3543 7.34721 24.9815 7.34721 24.4939Z" fill="black"/>
<path d="M12.3911 2.20801H21.5751V18.4418H12.3911V2.20801Z" fill="#FF5F00"/>
<path d="M12.9743 10.3254C12.9743 7.02706 14.5487 4.10147 16.9685 2.20843C15.1902 0.831739 12.9452 0 10.4962 0C4.69399 0 0 4.61768 0 10.3254C0 16.033 4.69399 20.6508 10.496 20.6508C12.9451 20.6508 15.19 19.8191 16.9685 18.4422C14.5487 16.5779 12.9743 13.6237 12.9743 10.3254Z" fill="#EB001B"/>
<path d="M33.9663 10.3254C33.9663 16.033 29.2723 20.6508 23.4703 20.6508C21.0212 20.6508 18.7763 19.8191 16.9978 18.4422C19.4469 16.5493 20.9921 13.6237 20.9921 10.3254C20.9921 7.02706 19.4176 4.10147 16.9978 2.20843C18.7762 0.831739 21.0212 0 23.4703 0C29.2723 0 33.9665 4.64642 33.9665 10.3254H33.9663Z" fill="#F79E1B"/>
</svg>
