<svg width="46" height="46" viewBox="0 0 46 46" fill="none" xmlns="http://www.w3.org/2000/svg">
<circle cx="23" cy="23" r="22.5" stroke="white" stroke-dasharray="5 5"/>
<path d="M23 18C23.1658 18 23.3247 18.0658 23.4419 18.1831C23.5592 18.3003 23.625 18.4592 23.625 18.625V22.375H27.375C27.5408 22.375 27.6997 22.4408 27.8169 22.5581C27.9342 22.6753 28 22.8342 28 23C28 23.1658 27.9342 23.3247 27.8169 23.4419C27.6997 23.5592 27.5408 23.625 27.375 23.625H23.625V27.375C23.625 27.5408 23.5592 27.6997 23.4419 27.8169C23.3247 27.9342 23.1658 28 23 28C22.8342 28 22.6753 27.9342 22.5581 27.8169C22.4408 27.6997 22.375 27.5408 22.375 27.375V23.625H18.625C18.4592 23.625 18.3003 23.5592 18.1831 23.4419C18.0658 23.3247 18 23.1658 18 23C18 22.8342 18.0658 22.6753 18.1831 22.5581C18.3003 22.4408 18.4592 22.375 18.625 22.375H22.375V18.625C22.375 18.4592 22.4408 18.3003 22.5581 18.1831C22.6753 18.0658 22.8342 18 23 18Z" fill="white"/>
</svg>
