<svg width="24" height="25" viewBox="0 0 24 25" fill="none" xmlns="http://www.w3.org/2000/svg">
<path d="M20.2209 19.925C20.651 19.925 21 20.2778 21 20.7125C21 21.1472 20.651 21.5 20.2209 21.5H13.5963C13.1652 21.5 12.8172 21.1472 12.8172 20.7125C12.8172 20.2778 13.1652 19.925 13.5963 19.925H20.2209ZM12.1051 4.53845C13.0836 3.27427 14.7977 3.15037 16.1783 4.24341L17.6223 5.38789C18.2528 5.88768 18.6839 6.54497 18.8346 7.24006C19.0029 8.016 18.8169 8.80349 18.312 9.45448L9.70121 20.5591C9.26594 21.1208 8.61148 21.4484 7.90404 21.4579L4.58187 21.4999C4.20997 21.4999 3.89521 21.2479 3.81314 20.8909L3.06103 17.6213C2.90105 16.9251 3.05895 16.2038 3.49526 15.642L4.6255 14.1836C4.8904 13.8413 5.38073 13.7804 5.71938 14.0503C6.05804 14.318 6.11726 14.8136 5.85132 15.1559L4.72107 16.6143C4.57771 16.7991 4.52577 17.0354 4.57875 17.2643L5.18854 19.9165L7.8843 19.8829C8.11596 19.8798 8.33099 19.7727 8.47435 19.5879L17.0852 8.48324C17.3054 8.19975 17.3812 7.89525 17.3127 7.57606C17.2389 7.23901 17.0083 6.90197 16.6613 6.62792L15.2174 5.48239C14.6585 5.04139 13.87 4.8146 13.3319 5.51074L12.1944 6.97652L13.9999 8.44019C14.3354 8.71109 14.3894 9.20773 14.1204 9.54583C13.9666 9.74112 13.7402 9.84192 13.5116 9.84192C13.3413 9.84192 13.1688 9.78522 13.0254 9.66867L11.2335 8.21655L8.28736 12.0164C8.02142 12.3587 7.53214 12.4207 7.19244 12.1498C6.85482 11.882 6.79561 11.3864 7.06051 11.0442L12.1051 4.53845Z" fill="#202020"/>
</svg>
