<svg width="25" height="30" viewBox="0 0 25 30" fill="none" xmlns="http://www.w3.org/2000/svg">
<path d="M24.1671 6.70181L12.9171 0.514307C12.751 0.42292 12.5645 0.375 12.3749 0.375C12.1853 0.375 11.9988 0.42292 11.8326 0.514307L0.582644 6.70181C0.406258 6.79892 0.25917 6.9416 0.156727 7.11494C0.0542852 7.28829 0.000244141 7.48595 0.000244141 7.68731C0.000244141 7.88866 0.0542852 8.08632 0.156727 8.25967C0.25917 8.43302 0.406258 8.57569 0.582644 8.67281L11.2499 14.5397V26.5986L7.83439 24.7198L6.7499 26.6897L11.8326 29.4853C11.9987 29.5769 12.1853 29.6249 12.3749 29.6249C12.5645 29.6249 12.7511 29.5769 12.9171 29.4853L24.1671 23.2978C24.3436 23.2007 24.4908 23.0581 24.5933 22.8847C24.6958 22.7114 24.7499 22.5137 24.7499 22.3123V7.68731C24.7499 7.48592 24.6958 7.28823 24.5933 7.11488C24.4908 6.94153 24.3436 6.79888 24.1671 6.70181ZM12.3749 2.78456L21.2905 7.68731L12.3749 12.5901L3.45927 7.68731L12.3749 2.78456ZM22.4999 21.6474L13.4999 26.5974V14.5386L22.4999 9.58856V21.6474Z" fill="#455A64"/>
</svg>
