<svg width="18" height="24" viewBox="0 0 18 24" fill="none" xmlns="http://www.w3.org/2000/svg">
<path fill-rule="evenodd" clip-rule="evenodd" d="M10.4 0.390625L11.01 0.398625L11.3117 0.399578L17.6 6.79657V21.0996C17.6 22.2594 16.6598 23.1996 15.5 23.1996H2.9C1.7402 23.1996 0.799999 22.2594 0.799999 21.0996V2.49958C0.799999 1.33978 1.7402 0.399578 2.9 0.399578L10.399 0.398625L10.4 0.390625ZM10.399 1.59862L2.9 1.59958C2.40294 1.59958 2 2.00252 2 2.49958V21.0996C2 21.5966 2.40294 21.9996 2.9 21.9996H15.5C15.9971 21.9996 16.4 21.5966 16.4 21.0996V7.63962L12.5 7.59958C11.3402 7.59958 10.4 6.65938 10.4 5.49958L10.399 1.59862ZM11.6 5.49958V2.40452L15.559 6.43156L12.5063 6.39961C12.0029 6.39958 11.6 5.99663 11.6 5.49958Z" fill="url(#paint0_linear_96_3918)"/>
<defs>
<linearGradient id="paint0_linear_96_3918" x1="0.799999" y1="0.390625" x2="18.6614" y2="1.25449" gradientUnits="userSpaceOnUse">
<stop stop-color="#D92322"/>
<stop offset="1" stop-color="#7C142F"/>
</linearGradient>
</defs>
</svg>
