<svg width="16" height="16" viewBox="0 0 16 16" fill="none" xmlns="http://www.w3.org/2000/svg">
<path d="M14.963 6.02601C14.919 5.89643 14.838 5.78258 14.73 5.6985C14.6221 5.61442 14.4918 5.56379 14.3554 5.55287L10.3647 5.23582L8.63776 1.41362C8.58277 1.29052 8.49331 1.18596 8.38019 1.11256C8.26708 1.03917 8.13513 1.00007 8.00029 1C7.86544 0.999926 7.73345 1.03887 7.62025 1.11215C7.50706 1.18542 7.41749 1.28988 7.36236 1.41292L5.63545 5.23582L1.64472 5.55287C1.51064 5.56349 1.38246 5.61251 1.27551 5.69407C1.16856 5.77562 1.08737 5.88625 1.04166 6.01273C0.995954 6.13921 0.987655 6.27618 1.01776 6.40725C1.04787 6.53832 1.1151 6.65795 1.21142 6.75181L4.16054 9.62633L3.11753 14.1421C3.08586 14.2788 3.09601 14.4219 3.14666 14.5527C3.19732 14.6836 3.28614 14.7962 3.40159 14.8759C3.51705 14.9557 3.65382 14.9989 3.79414 15C3.93447 15.001 4.07188 14.9599 4.18854 14.8819L8.00006 12.3413L11.8116 14.8819C11.9308 14.9611 12.0714 15.0018 12.2145 14.9987C12.3576 14.9956 12.4963 14.9487 12.612 14.8644C12.7276 14.7801 12.8147 14.6624 12.8614 14.5271C12.9082 14.3919 12.9124 14.2456 12.8735 14.1078L11.5932 9.62843L14.7684 6.77141C14.9763 6.58384 15.0526 6.29128 14.963 6.02601Z" fill="#94A0B4"/>
</svg>
