<svg width="24" height="24" viewBox="0 0 24 24" fill="none" xmlns="http://www.w3.org/2000/svg">
<path d="M8.99998 21.3333C9.92045 21.3333 10.6666 20.5871 10.6666 19.6667C10.6666 18.7462 9.92045 18 8.99998 18C8.07951 18 7.33331 18.7462 7.33331 19.6667C7.33331 20.5871 8.07951 21.3333 8.99998 21.3333Z" fill="white"/>
<path d="M17.6667 21.3333C18.5871 21.3333 19.3333 20.5871 19.3333 19.6667C19.3333 18.7462 18.5871 18 17.6667 18C16.7462 18 16 18.7462 16 19.6667C16 20.5871 16.7462 21.3333 17.6667 21.3333Z" fill="white"/>
<path d="M22.0667 4.26034C22.0046 4.17967 21.9248 4.11429 21.8335 4.06922C21.7422 4.02415 21.6418 4.00059 21.54 4.00034H6.14001L5.84001 3.04701C5.80706 2.94465 5.74983 2.85178 5.67321 2.77632C5.5966 2.70087 5.50286 2.64506 5.40001 2.61368L2.66668 1.77368C2.58263 1.74785 2.49432 1.73883 2.40679 1.74713C2.31926 1.75543 2.23422 1.7809 2.15653 1.82206C1.99962 1.9052 1.88217 2.04727 1.83001 2.21701C1.77785 2.38675 1.79526 2.57025 1.8784 2.72716C1.96154 2.88407 2.10361 3.00152 2.27335 3.05368L4.66668 3.78701L7.72001 13.4337L6.63335 14.327L6.54668 14.4137C6.27794 14.7249 6.12569 15.1197 6.11596 15.5308C6.10623 15.9418 6.23963 16.3435 6.49335 16.667C6.67505 16.888 6.90595 17.0634 7.16757 17.1791C7.42919 17.2949 7.71427 17.3478 8.00001 17.3337H19.1267C19.3035 17.3337 19.4731 17.2634 19.5981 17.1384C19.7231 17.0134 19.7933 16.8438 19.7933 16.667C19.7933 16.4902 19.7231 16.3206 19.5981 16.1956C19.4731 16.0706 19.3035 16.0003 19.1267 16.0003H7.89335C7.81658 15.9977 7.74178 15.9753 7.67618 15.9354C7.61059 15.8954 7.55641 15.8392 7.51888 15.7722C7.48134 15.7052 7.46173 15.6296 7.46193 15.5528C7.46213 15.476 7.48213 15.4005 7.52001 15.3337L9.12668 14.0003H19.4133C19.5656 14.0048 19.7148 13.9569 19.8361 13.8647C19.9574 13.7725 20.0435 13.6416 20.08 13.4937L22.2133 4.82701C22.2336 4.72762 22.2309 4.62492 22.2055 4.52672C22.1801 4.42852 22.1326 4.33741 22.0667 4.26034Z" fill="white"/>
</svg>
