<svg width="18" height="18" viewBox="0 0 18 18" fill="none" xmlns="http://www.w3.org/2000/svg">
<path d="M12.7046 2.25C13.7103 2.25 14.6778 2.6475 15.3896 3.36075C16.1021 4.0725 16.5003 5.0325 16.5003 6.0375V11.9625C16.5003 14.055 14.7978 15.75 12.7046 15.75H5.2953C3.20206 15.75 1.50031 14.055 1.50031 11.9625V6.0375C1.50031 3.945 3.19455 2.25 5.2953 2.25H12.7046ZM13.5528 6.15C13.3953 6.14175 13.2453 6.195 13.1321 6.3L9.7503 9C9.3153 9.36075 8.69205 9.36075 8.2503 9L4.8753 6.3C4.64206 6.1275 4.31956 6.15 4.1253 6.3525C3.92281 6.555 3.9003 6.8775 4.07205 7.1025L4.17031 7.2L7.5828 9.8625C8.0028 10.1925 8.51205 10.3725 9.0453 10.3725C9.57705 10.3725 10.0953 10.1925 10.5146 9.8625L13.8978 7.155L13.9578 7.095C14.1371 6.8775 14.1371 6.5625 13.9496 6.345C13.8453 6.23325 13.7021 6.165 13.5528 6.15Z" fill="url(#paint0_linear_99_2655)"/>
<defs>
<linearGradient id="paint0_linear_99_2655" x1="1.50031" y1="2.25" x2="17.4006" y2="3.41009" gradientUnits="userSpaceOnUse">
<stop stop-color="#D92322"/>
<stop offset="1" stop-color="#7C142F"/>
</linearGradient>
</defs>
</svg>
