<svg width="76" height="76" viewBox="0 0 76 76" fill="none" xmlns="http://www.w3.org/2000/svg">
<circle cx="38" cy="38" r="37" fill="#EEF2F8" stroke="white" stroke-width="2"/>
<path d="M41.7313 25.125C43.065 25.1387 44.1512 25.8255 44.7837 27.0616C44.947 27.3878 45.1748 27.8642 45.4132 28.3668L45.7011 28.9745L45.8425 29.2729L45.98 29.5751C46.035 29.6712 46.1313 29.7399 46.255 29.7399C49.555 29.7399 52.25 32.4319 52.25 35.7282V43.8867C52.25 47.183 49.555 49.875 46.255 49.875H30.745C27.4313 49.875 24.75 47.183 24.75 43.8867V35.7282C24.75 32.4319 27.4313 29.7399 30.745 29.7399C30.855 29.7399 30.965 29.6849 31.0063 29.5751L31.0888 29.4102C31.4738 28.5999 31.9412 27.611 32.2162 27.0616C32.8487 25.8255 33.9212 25.1387 35.255 25.125H41.7313ZM38.5 33.929C37.0563 33.929 35.695 34.4921 34.6638 35.5222C33.6463 36.5523 33.0825 37.8983 33.0963 39.3267C33.0963 40.7689 33.66 42.1149 34.6775 43.145C35.7087 44.1613 37.0563 44.7245 38.5 44.7245C39.985 44.7245 41.3325 44.1201 42.3088 43.145C43.285 42.1698 43.89 40.8238 43.9038 39.3267C43.9038 37.8983 43.34 36.5386 42.3225 35.5085C41.305 34.4921 39.9437 33.929 38.5 33.929ZM38.5 35.9892C39.3937 35.9892 40.2325 36.3325 40.865 36.9643C41.4975 37.5961 41.8413 38.434 41.8413 39.3267C41.8275 41.1672 40.3425 42.6643 38.5 42.6643C37.6063 42.6643 36.7675 42.3209 36.135 41.6891C35.5025 41.0573 35.1588 40.2195 35.1588 39.3267V39.313C35.145 38.4477 35.4888 37.6099 36.1213 36.9781C36.7675 36.3325 37.6063 35.9892 38.5 35.9892ZM46.2137 33.5993C45.5262 33.5993 44.9763 34.1625 44.9763 34.8492C44.9763 35.5359 45.5262 36.0853 46.2137 36.0853C46.9012 36.0853 47.465 35.5359 47.465 34.8492C47.465 34.1625 46.9012 33.5993 46.2137 33.5993Z" fill="#293345" fill-opacity="0.15"/>
</svg>
