<svg width="25" height="24" viewBox="0 0 25 24" fill="none" xmlns="http://www.w3.org/2000/svg">
<path d="M15.684 16.0966C14.8728 15.7568 14.5489 14.8231 14.5489 14.8231C14.5489 14.8231 14.1834 15.0346 14.1834 14.4406C14.1834 13.8466 14.5489 14.8231 14.9144 12.5296C14.9144 12.5296 15.9269 12.2318 15.7241 9.76956H15.4805C15.4805 9.76956 16.0896 7.13706 15.4805 6.24456C14.8714 5.35356 14.6292 4.75956 13.2898 4.33431C11.9504 3.90906 12.4384 3.99381 11.4646 4.03731C10.49 4.08081 9.67875 4.63206 9.67875 4.92981C9.67875 4.92981 9.06962 4.97181 8.82741 5.22681C8.58376 5.48181 8.17815 6.66981 8.17815 6.96681C8.17815 7.26381 8.38095 9.26181 8.58376 9.68556L8.34225 9.77106C8.13873 12.2333 9.15203 12.5311 9.15203 12.5311C9.51751 14.8246 9.88299 13.8481 9.88299 14.4421C9.88299 15.0361 9.51751 14.8246 9.51751 14.8246C9.51751 14.8246 9.1936 15.7583 8.38239 16.0981C7.57117 16.4371 3.06794 18.2626 2.70175 18.6451C2.33484 19.0276 2.3764 20.8111 2.3764 20.8111H21.6871C21.6871 20.8111 21.7301 19.0283 21.3632 18.6451C20.9977 18.2626 16.4938 16.4371 15.6826 16.0981L15.684 16.0966ZM6.74778 15.9676C6.67612 15.8326 6.64172 15.7351 6.64172 15.7351C6.64172 15.7351 6.33214 15.9151 6.33214 15.4111C6.33214 14.9071 6.64172 15.7351 6.9513 13.7911C6.9513 13.7911 7.81124 13.5398 7.63925 11.4526H7.43143C7.43143 11.4526 7.53463 11.0101 7.60199 10.4521C7.59897 10.2028 7.60782 9.95345 7.6285 9.70506L7.65573 9.38556C7.6414 9.01656 7.57906 8.68056 7.43215 8.46606C6.91618 7.71081 6.7098 7.20606 5.57611 6.84606C4.44098 6.48606 4.85232 6.55806 4.02821 6.59481C3.20266 6.63231 2.51471 7.09881 2.51471 7.35231C2.51471 7.35231 1.99874 7.38756 1.79236 7.60356C1.59887 7.80606 1.28714 8.70006 1.24988 9.01731V9.22731C1.28428 9.71781 1.4362 11.0648 1.58669 11.3821L1.38174 11.4541C1.20975 13.5406 2.06969 13.7926 2.06969 13.7926C2.37784 15.7351 2.68813 14.9086 2.68813 15.4126C2.68813 15.9166 2.37855 15.7351 2.37855 15.7351C2.37855 15.7351 2.10409 16.5286 1.41613 16.8151L1.24988 16.8841V20.8096H1.66193C1.64044 19.8511 1.71711 18.6143 2.19653 18.1141C2.45236 17.8478 3.28866 17.4091 6.74921 15.9676H6.74778ZM22.7499 9.17556C22.7212 8.89206 22.6589 8.63931 22.5406 8.46606C22.0261 7.71006 21.819 7.20606 20.6846 6.84606C19.5502 6.48606 19.9629 6.55806 19.1367 6.59481C18.3126 6.63231 17.6246 7.09881 17.6246 7.35231C17.6246 7.35231 17.1087 7.38756 16.9023 7.60356C16.7088 7.80756 16.3935 8.70756 16.3591 9.02106H16.3827L16.44 9.70656C16.4544 9.87906 16.4558 10.0328 16.4594 10.1896C16.5239 10.6891 16.6099 11.2021 16.6959 11.3821L16.4909 11.4533C16.3189 13.5398 17.1789 13.7918 17.1789 13.7918C17.4885 15.7343 17.7973 14.9078 17.7973 15.4118C17.7973 15.9158 17.4892 15.7343 17.4892 15.7343C17.4892 15.7343 17.4505 15.8416 17.3717 15.9893C20.7899 17.4143 21.6191 17.8493 21.872 18.1141C22.3522 18.6151 22.4267 19.8511 22.4059 20.8103H22.7499V16.8316L22.714 16.8151C22.0261 16.5278 21.7509 15.7351 21.7509 15.7351C21.7509 15.7351 21.4406 15.9151 21.4406 15.4126C21.4406 14.9101 21.7509 15.7351 22.0598 13.7926C22.0598 13.7926 22.6359 13.6201 22.7499 12.4126V11.4916C22.7499 11.4781 22.7499 11.4668 22.7477 11.4541H22.5399C22.5399 11.4541 22.6947 10.7866 22.7499 10.0576V9.17556Z" fill="white"/>
</svg>
