<svg width="45" height="15" viewBox="0 0 45 15" fill="none" xmlns="http://www.w3.org/2000/svg">
<path d="M23.2729 4.77657C23.2472 6.85778 25.077 8.0191 26.4553 8.70965C27.8713 9.41808 28.347 9.87242 28.3414 10.506C28.3308 11.4756 27.2118 11.9036 26.1647 11.9202C24.3378 11.9493 23.2755 11.4131 22.4311 11.0075L21.773 14.1736C22.6202 14.575 24.1891 14.9251 25.8159 14.9404C29.6348 14.9404 32.1332 13.0024 32.1467 9.99748C32.1616 6.18386 27.016 5.97278 27.0512 4.2682C27.0633 3.75133 27.543 3.19977 28.5942 3.05953C29.1145 2.98868 30.5508 2.93447 32.1792 3.70543L32.8184 0.642178C31.9426 0.314346 30.8171 0.000430107 29.4158 0.000430107C25.8214 0.000430107 23.2933 1.96489 23.2729 4.77657ZM38.9598 0.264285C38.2625 0.264285 37.6748 0.682477 37.4126 1.32422L31.9576 14.7154H35.7736L36.533 12.5578H41.1961L41.6366 14.7154H45L42.065 0.264285H38.9598ZM39.4937 4.16808L40.5949 9.59465H37.5789L39.4937 4.16808ZM18.6462 0.264465L15.6382 14.7152H19.2746L22.2812 0.264105H18.6462V0.264465ZM13.2667 0.264105L9.48182 10.1003L7.95076 1.737C7.77111 0.803382 7.06166 0.264285 6.27381 0.264285H0.0866602L0 0.683924C1.2702 0.967297 2.71336 1.42435 3.5877 1.91338C4.12277 2.21212 4.27535 2.47326 4.45113 3.18314L7.351 14.7154H11.1938L17.0852 0.264285H13.2667" fill="url(#paint0_linear_302_5293)"/>
<defs>
<linearGradient id="paint0_linear_302_5293" x1="20.6883" y1="15.2401" x2="21.1329" y2="-0.102778" gradientUnits="userSpaceOnUse">
<stop stop-color="#222357"/>
<stop offset="1" stop-color="#254AA5"/>
</linearGradient>
</defs>
</svg>
