<svg width="38" height="38" viewBox="0 0 38 38" fill="none" xmlns="http://www.w3.org/2000/svg">
<g filter="url(#filter0_b_2818_18391)">
<rect width="38" height="38" rx="19" fill="white" fill-opacity="0.7"/>
<path d="M11.9787 24H10.348L14.0121 13.8182H15.7869L19.451 24H17.8203L14.9418 15.6676H14.8622L11.9787 24ZM12.2521 20.0128H17.5419V21.3054H12.2521V20.0128ZM23.0243 24.169C22.5404 24.169 22.1029 24.0795 21.7118 23.9006C21.3207 23.7183 21.0108 23.4548 20.7821 23.1101C20.5568 22.7654 20.4441 22.3428 20.4441 21.8423C20.4441 21.4115 20.5269 21.0568 20.6926 20.7784C20.8584 20.5 21.0821 20.2796 21.3638 20.1172C21.6455 19.9548 21.9604 19.8321 22.3084 19.7493C22.6564 19.6664 23.0111 19.6035 23.3723 19.5604C23.8297 19.5073 24.2009 19.4643 24.486 19.4311C24.771 19.3946 24.9782 19.3366 25.1074 19.2571C25.2367 19.1776 25.3013 19.0483 25.3013 18.8693V18.8345C25.3013 18.4003 25.1787 18.0639 24.9334 17.8253C24.6915 17.5866 24.3302 17.4673 23.8496 17.4673C23.3491 17.4673 22.9547 17.5784 22.6664 17.8004C22.3813 18.0192 22.1841 18.2628 22.0748 18.5312L20.6777 18.2131C20.8435 17.7491 21.0854 17.3745 21.4036 17.0895C21.7251 16.8011 22.0946 16.5923 22.5123 16.4631C22.9299 16.3305 23.369 16.2642 23.8297 16.2642C24.1346 16.2642 24.4578 16.3007 24.7992 16.3736C25.1439 16.4432 25.4654 16.5724 25.7637 16.7614C26.0653 16.9503 26.3122 17.2204 26.5044 17.5717C26.6967 17.9197 26.7928 18.3722 26.7928 18.929V24H25.3411V22.956H25.2814C25.1853 23.1482 25.0411 23.3371 24.8489 23.5227C24.6567 23.7083 24.4097 23.8625 24.1081 23.9851C23.8065 24.1077 23.4453 24.169 23.0243 24.169ZM23.3475 22.9759C23.7585 22.9759 24.1098 22.8946 24.4015 22.7322C24.6964 22.5698 24.9202 22.3577 25.0726 22.0959C25.2284 21.8307 25.3063 21.5473 25.3063 21.2457V20.2614C25.2533 20.3144 25.1505 20.3641 24.998 20.4105C24.8489 20.4536 24.6782 20.4917 24.486 20.5249C24.2937 20.5547 24.1065 20.5829 23.9242 20.6094C23.7419 20.6326 23.5894 20.6525 23.4668 20.669C23.1784 20.7055 22.915 20.7668 22.6763 20.853C22.441 20.9392 22.2521 21.0634 22.1096 21.2259C21.9703 21.3849 21.9007 21.5971 21.9007 21.8622C21.9007 22.2301 22.0366 22.5085 22.3084 22.6974C22.5802 22.883 22.9266 22.9759 23.3475 22.9759Z" fill="#202020"/>
</g>
<defs>
<filter id="filter0_b_2818_18391" x="-12" y="-12" width="62" height="62" filterUnits="userSpaceOnUse" color-interpolation-filters="sRGB">
<feFlood flood-opacity="0" result="BackgroundImageFix"/>
<feGaussianBlur in="BackgroundImage" stdDeviation="6"/>
<feComposite in2="SourceAlpha" operator="in" result="effect1_backgroundBlur_2818_18391"/>
<feBlend mode="normal" in="SourceGraphic" in2="effect1_backgroundBlur_2818_18391" result="shape"/>
</filter>
</defs>
</svg>
