<svg width="18" height="20" viewBox="0 0 18 20" fill="none" xmlns="http://www.w3.org/2000/svg">
<path fill-rule="evenodd" clip-rule="evenodd" d="M10.9758 0.000488281C11.0189 0.000488281 11.0611 0.0041191 11.1021 0.0110909L11.2372 0.0118883C11.4412 0.0118883 11.6362 0.0948883 11.7782 0.241888L16.8442 5.51889C16.9772 5.65789 17.0523 5.84489 17.0523 6.03789V15.2279C17.0682 17.7369 15.1122 19.7759 12.5992 19.8659H4.45922C2.01899 19.8134 0.0619244 17.8415 0.00158637 15.4261L0.0012207 4.49089C0.0602207 2.00989 2.10822 0.0118883 4.57022 0.0118883L10.8495 0.0110909C10.8906 0.0041191 10.9328 0.000488281 10.9758 0.000488281ZM10.2252 1.51149L4.57322 1.51189C2.91622 1.51189 1.54022 2.85389 1.50122 4.50889V15.2279C1.46522 16.9289 2.80522 18.3289 4.49022 18.3659H12.5732C14.2422 18.3059 15.5632 16.9289 15.5523 15.2329L15.5522 6.98349L13.5438 6.98449C11.7128 6.97949 10.2258 5.48749 10.2258 3.65949L10.2252 1.51149ZM8.14262 7.15939C8.55662 7.15939 8.89262 7.49539 8.89262 7.90939L8.89222 12.1315L9.95462 11.0654C10.2466 10.7714 10.7216 10.7714 11.0156 11.0634C11.3086 11.3554 11.3096 11.8304 11.0176 12.1244L8.69861 14.4536C8.63979 14.5185 8.56976 14.5731 8.49159 14.6143C8.48461 14.6165 8.4783 14.6197 8.47194 14.6228C8.44285 14.6386 8.41209 14.6513 8.3804 14.6619C8.3773 14.6615 8.37427 14.6625 8.37124 14.6634C8.29924 14.6879 8.22238 14.7004 8.14262 14.7004C8.06509 14.7004 7.99029 14.6886 7.91993 14.6667C7.90887 14.6625 7.89708 14.6586 7.88541 14.6543C7.86357 14.6471 7.84264 14.6383 7.82221 14.6286C7.81001 14.6223 7.79799 14.6163 7.78613 14.6099C7.76242 14.5975 7.73919 14.5832 7.71684 14.5678C7.7092 14.5622 7.70164 14.5568 7.69416 14.5512C7.66196 14.5274 7.63182 14.5008 7.60395 14.4721L5.26562 12.1244C4.97362 11.8304 4.97462 11.3554 5.26762 11.0634C5.56162 10.7714 6.03662 10.7714 6.32862 11.0654L7.39222 12.1335L7.39262 7.90939C7.39262 7.49539 7.72862 7.15939 8.14262 7.15939ZM11.7252 2.35249L11.7258 3.65949C11.7258 4.66349 12.5418 5.48149 13.5458 5.48449L14.7302 5.48349L11.7252 2.35249Z" fill="white"/>
</svg>
