<svg width="36" height="36" viewBox="0 0 36 36" fill="none" xmlns="http://www.w3.org/2000/svg">
<path d="M12.24 16.8082H24.075V19.6207H12.24V16.8082ZM12.24 22.1182H24.075V24.9307H12.24V22.1182ZM12.24 11.4082H24.075V14.2207H12.24V11.4082Z" fill="#455A64"/>
<path d="M25.5149 2.25L21.6899 0.63L18.1799 2.25L14.4224 0.63L10.8899 2.25L5.53491 0V36L10.8899 33.75L14.4224 35.3025L18.1799 33.75L21.6899 35.3025L25.5149 33.75L30.4649 36V0L25.5149 2.25ZM27.6299 31.7475L25.5599 30.825L21.7574 32.3775L18.2249 30.7575L14.4449 32.31L10.9574 30.7575L8.36991 31.815V4.185L10.9574 5.2425L14.4449 3.69L18.2249 5.2425L21.7574 3.69L25.5599 5.2425L27.6299 4.32V31.7475Z" fill="#455A64"/>
</svg>
