<svg width="18" height="19" viewBox="0 0 18 19" fill="none" xmlns="http://www.w3.org/2000/svg">
<path d="M11.8435 2.00069C12.1275 2.01846 12.3467 2.26192 12.3391 2.55131V3.32748C14.5957 3.5464 15.75 4.79357 15.75 7.03584V13.2386C15.75 15.7329 14.3283 17 11.5304 17H6.46957C3.67174 17 2.25 15.7329 2.25 13.2386V7.03584C2.25 5.54321 2.7587 4.47515 3.80217 3.85156L3.87537 3.80984C4.02663 3.73924 4.20405 3.74571 4.35151 3.83132C4.52355 3.9312 4.62515 4.12157 4.61377 4.32274C4.60239 4.5239 4.48 4.70116 4.29783 4.78031C3.60652 5.19161 3.28043 5.90807 3.28043 7.03584V7.23486H12.7957C13.0802 7.23486 13.3109 7.4695 13.3109 7.75894C13.3109 8.04838 13.0802 8.28302 12.7957 8.28302H3.28043V13.2386C3.28043 15.1425 4.20652 15.9319 6.46957 15.9452H11.5304C13.7609 15.9452 14.713 15.1359 14.713 13.2319V7.02921C14.713 5.37073 13.9891 4.56802 12.3391 4.37564V4.87982C12.3011 5.14855 12.0698 5.34473 11.803 5.33449C11.5363 5.32425 11.3202 5.1109 11.3022 4.84001V2.50487L11.3117 2.42192C11.3329 2.31321 11.3877 2.21337 11.4691 2.13756C11.5709 2.04279 11.7057 1.99349 11.8435 2.00069ZM12.1403 12.6477L12.2233 12.6531C12.3657 12.671 12.4992 12.7363 12.6023 12.8401C12.7261 12.9647 12.7957 13.1344 12.7957 13.3115C12.7957 13.6779 12.5037 13.9749 12.1435 13.9749C11.7833 13.9749 11.4913 13.6779 11.4913 13.3115C11.4913 12.9452 11.7833 12.6481 12.1435 12.6481L12.1403 12.6477ZM9.01304 12.6481L9.09485 12.6533C9.41642 12.6942 9.66522 12.9733 9.66522 13.3115C9.66522 13.6779 9.37323 13.9749 9.01304 13.9749C8.65286 13.9749 8.36087 13.6779 8.36087 13.3115C8.36087 12.9452 8.65286 12.6481 9.01304 12.6481ZM5.886 12.6477L5.96894 12.6531C6.11134 12.671 6.24489 12.7363 6.34799 12.8401C6.47171 12.9647 6.5413 13.1344 6.5413 13.3115C6.5413 13.6779 6.24932 13.9749 5.88913 13.9749C5.52894 13.9749 5.23696 13.6779 5.23696 13.3115C5.23696 12.9452 5.52894 12.6481 5.88913 12.6481L5.886 12.6477ZM12.1403 9.96125L12.2233 9.96635C12.3657 9.98421 12.4992 10.0495 12.6023 10.1533C12.7261 10.2779 12.7957 10.4477 12.7957 10.6248C12.7957 10.9912 12.5037 11.2882 12.1435 11.2882C11.7833 11.2882 11.4913 10.9912 11.4913 10.6248C11.4913 10.2584 11.7833 9.9614 12.1435 9.9614L12.1403 9.96125ZM9.01304 9.9614L9.09485 9.96657C9.41642 10.0075 9.66522 10.2866 9.66522 10.6248C9.66522 10.9912 9.37323 11.2882 9.01304 11.2882C8.65286 11.2882 8.36087 10.9912 8.36087 10.6248C8.36087 10.2584 8.65286 9.9614 9.01304 9.9614ZM5.886 9.96125L5.96894 9.96635C6.11134 9.98421 6.24489 10.0495 6.34799 10.1533C6.47171 10.2779 6.5413 10.4477 6.5413 10.6248C6.5413 10.9912 6.24932 11.2882 5.88913 11.2882C5.52894 11.2882 5.23696 10.9912 5.23696 10.6248C5.23696 10.2584 5.52894 9.9614 5.88913 9.9614L5.886 9.96125ZM6.17935 2.07984C6.44496 2.07984 6.66818 2.28281 6.69783 2.55131V3.2744H9.64565C9.9302 3.2744 10.1609 3.50904 10.1609 3.79849C10.1609 4.08793 9.9302 4.32257 9.64565 4.32257H6.68478V4.84665C6.68479 4.9868 6.62962 5.12111 6.53158 5.21959C6.43354 5.31807 6.30081 5.3725 6.16304 5.37073L6.08771 5.3632C5.84223 5.32006 5.65754 5.10084 5.66083 4.84001V2.55131L5.67539 2.47286C5.73559 2.24425 5.9403 2.07984 6.17935 2.07984Z" fill="url(#paint0_linear_2279_16939)"/>
<defs>
<linearGradient id="paint0_linear_2279_16939" x1="9" y1="2" x2="9" y2="17" gradientUnits="userSpaceOnUse">
<stop stop-color="#D92322"/>
<stop offset="1" stop-color="#C00808"/>
</linearGradient>
</defs>
</svg>
