<svg width="16" height="16" viewBox="0 0 16 16" fill="none" xmlns="http://www.w3.org/2000/svg">
<path d="M15.4246 14.0652L15.2546 13.9152C14.7723 13.4855 14.3502 12.9927 13.9996 12.4502C13.6167 11.7015 13.3872 10.8838 13.3246 10.0452V7.5752C13.3279 6.258 12.8501 4.98493 11.981 3.99518C11.1119 3.00543 9.91121 2.36713 8.60463 2.2002V1.5552C8.60463 1.37816 8.5343 1.20838 8.40912 1.0832C8.28394 0.958021 8.11416 0.887695 7.93713 0.887695C7.7601 0.887695 7.59031 0.958021 7.46513 1.0832C7.33995 1.20838 7.26963 1.37816 7.26963 1.5552V2.2102C5.97476 2.38916 4.78861 3.03132 3.93089 4.01775C3.07317 5.00417 2.60199 6.26802 2.60463 7.5752V10.0452C2.54201 10.8838 2.31252 11.7015 1.92963 12.4502C1.58507 12.9914 1.16973 13.4841 0.694628 13.9152L0.524628 14.0652V15.4752H15.4246V14.0652Z" fill="white"/>
</svg>
