<svg width="20" height="14" viewBox="0 0 20 14" fill="none" xmlns="http://www.w3.org/2000/svg">
<path d="M0 0.995C0 0.445 0.446 0 0.995 0H9.005C9.26889 7.86455e-09 9.52197 0.10483 9.70857 0.291429C9.89517 0.478027 10 0.731109 10 0.995C10 1.25889 9.89517 1.51197 9.70857 1.69857C9.52197 1.88517 9.26889 1.99 9.005 1.99H0.995C0.731109 1.99 0.478028 1.88517 0.291429 1.69857C0.10483 1.51197 0 1.25889 0 0.995Z" fill="#202020"/>
<path opacity="0.4" d="M0 6.99988C0 6.44988 0.446 6.00488 0.995 6.00488H19.005C19.2689 6.00488 19.522 6.10971 19.7086 6.29631C19.8952 6.48291 20 6.73599 20 6.99988C20 7.26377 19.8952 7.51685 19.7086 7.70345C19.522 7.89005 19.2689 7.99488 19.005 7.99488H0.995C0.731109 7.99488 0.478028 7.89005 0.291429 7.70345C0.10483 7.51685 0 7.26377 0 6.99988Z" fill="#202020"/>
<path d="M0.995 12.0098C0.73111 12.0098 0.478028 12.1146 0.291429 12.3012C0.10483 12.4878 0 12.7409 0 13.0048C0 13.2687 0.10483 13.5217 0.291429 13.7083C0.478028 13.8949 0.73111 13.9998 0.995 13.9998H13.005C13.2689 13.9998 13.522 13.8949 13.7086 13.7083C13.8952 13.5217 14 13.2687 14 13.0048C14 12.7409 13.8952 12.4878 13.7086 12.3012C13.522 12.1146 13.2689 12.0098 13.005 12.0098H0.995Z" fill="#202020"/>
</svg>
