<svg width="98" height="98" viewBox="0 0 98 98" fill="none" xmlns="http://www.w3.org/2000/svg">
<rect x="0.5" y="0.5" width="97" height="97" rx="7.5" fill="#F7F9FC"/>
<path d="M50.5 36V29H48.5V36H41.5V38H48.5V45H50.5V38H57.5V36H50.5Z" fill="url(#paint0_linear_549_10426)"/>
<path d="M18.6506 75H17.358L21.0966 64.8182H22.3693L26.108 75H24.8153L21.7727 66.429H21.6932L18.6506 75ZM19.1278 71.0227H24.3381V72.1165H19.1278V71.0227ZM30.4183 75.1591C29.782 75.1591 29.2202 74.9983 28.733 74.6768C28.2457 74.352 27.8646 73.8946 27.5895 73.3047C27.3144 72.7114 27.1768 72.0104 27.1768 71.2017C27.1768 70.3996 27.3144 69.7036 27.5895 69.1136C27.8646 68.5237 28.2474 68.0679 28.7379 67.7464C29.2285 67.425 29.7952 67.2642 30.4382 67.2642C30.9354 67.2642 31.3281 67.3471 31.6165 67.5128C31.9081 67.6752 32.1302 67.8608 32.2827 68.0696C32.4384 68.2751 32.5594 68.4441 32.6456 68.5767H32.745V64.8182H33.9183V75H32.7848V73.8267H32.6456C32.5594 73.9659 32.4368 74.1416 32.2777 74.3537C32.1186 74.5625 31.8916 74.7498 31.5966 74.9155C31.3016 75.0779 30.9089 75.1591 30.4183 75.1591ZM30.5774 74.1051C31.0481 74.1051 31.4458 73.9825 31.7706 73.7372C32.0954 73.4886 32.3423 73.1456 32.5114 72.7081C32.6804 72.2673 32.7649 71.7585 32.7649 71.1818C32.7649 70.6117 32.6821 70.1129 32.5163 69.6854C32.3506 69.2545 32.1054 68.9197 31.7805 68.6811C31.4557 68.4392 31.0547 68.3182 30.5774 68.3182C30.0803 68.3182 29.666 68.4458 29.3345 68.701C29.0064 68.9529 28.7595 69.2959 28.5938 69.7301C28.4313 70.161 28.3501 70.6449 28.3501 71.1818C28.3501 71.7254 28.433 72.2192 28.5987 72.6634C28.7678 73.1042 29.0163 73.4555 29.3445 73.7173C29.6759 73.9759 30.0869 74.1051 30.5774 74.1051ZM39.1136 75.1591C38.4773 75.1591 37.9155 74.9983 37.4283 74.6768C36.9411 74.352 36.5599 73.8946 36.2848 73.3047C36.0097 72.7114 35.8722 72.0104 35.8722 71.2017C35.8722 70.3996 36.0097 69.7036 36.2848 69.1136C36.5599 68.5237 36.9427 68.0679 37.4332 67.7464C37.9238 67.425 38.4905 67.2642 39.1335 67.2642C39.6307 67.2642 40.0234 67.3471 40.3118 67.5128C40.6035 67.6752 40.8255 67.8608 40.978 68.0696C41.1338 68.2751 41.2547 68.4441 41.3409 68.5767H41.4403V64.8182H42.6136V75H41.4801V73.8267H41.3409C41.2547 73.9659 41.1321 74.1416 40.973 74.3537C40.8139 74.5625 40.5869 74.7498 40.2919 74.9155C39.9969 75.0779 39.6042 75.1591 39.1136 75.1591ZM39.2727 74.1051C39.7434 74.1051 40.1411 73.9825 40.4659 73.7372C40.7907 73.4886 41.0376 73.1456 41.2067 72.7081C41.3757 72.2673 41.4602 71.7585 41.4602 71.1818C41.4602 70.6117 41.3774 70.1129 41.2116 69.6854C41.0459 69.2545 40.8007 68.9197 40.4759 68.6811C40.151 68.4392 39.75 68.3182 39.2727 68.3182C38.7756 68.3182 38.3613 68.4458 38.0298 68.701C37.7017 68.9529 37.4548 69.2959 37.2891 69.7301C37.1267 70.161 37.0455 70.6449 37.0455 71.1818C37.0455 71.7254 37.1283 72.2192 37.294 72.6634C37.4631 73.1042 37.7116 73.4555 38.0398 73.7173C38.3712 73.9759 38.7822 74.1051 39.2727 74.1051ZM49.022 64.8182H50.4936L53.9538 73.2699H54.0732L57.5334 64.8182H59.005V75H57.8516V67.2642H57.7521L54.5703 75H53.4567L50.2749 67.2642H50.1754V75H49.022V64.8182ZM64.4203 75.1591C63.7309 75.1591 63.126 74.995 62.6056 74.6669C62.0886 74.3388 61.6842 73.8797 61.3926 73.2898C61.1042 72.6998 60.96 72.0104 60.96 71.2216C60.96 70.4261 61.1042 69.7318 61.3926 69.1385C61.6842 68.5452 62.0886 68.0845 62.6056 67.7564C63.126 67.4283 63.7309 67.2642 64.4203 67.2642C65.1097 67.2642 65.7129 67.4283 66.2299 67.7564C66.7503 68.0845 67.1547 68.5452 67.443 69.1385C67.7347 69.7318 67.8805 70.4261 67.8805 71.2216C67.8805 72.0104 67.7347 72.6998 67.443 73.2898C67.1547 73.8797 66.7503 74.3388 66.2299 74.6669C65.7129 74.995 65.1097 75.1591 64.4203 75.1591ZM64.4203 74.1051C64.944 74.1051 65.3748 73.9709 65.7129 73.7024C66.051 73.4339 66.3012 73.081 66.4636 72.6435C66.626 72.206 66.7072 71.732 66.7072 71.2216C66.7072 70.7112 66.626 70.2356 66.4636 69.7947C66.3012 69.3539 66.051 68.9976 65.7129 68.7259C65.3748 68.4541 64.944 68.3182 64.4203 68.3182C63.8966 68.3182 63.4657 68.4541 63.1277 68.7259C62.7896 68.9976 62.5394 69.3539 62.377 69.7947C62.2145 70.2356 62.1333 70.7112 62.1333 71.2216C62.1333 71.732 62.2145 72.206 62.377 72.6435C62.5394 73.081 62.7896 73.4339 63.1277 73.7024C63.4657 73.9709 63.8966 74.1051 64.4203 74.1051ZM69.6715 75V67.3636H70.805V68.517H70.8846C71.0238 68.1392 71.2757 67.8326 71.6403 67.5973C72.0049 67.362 72.4158 67.2443 72.8732 67.2443C72.9594 67.2443 73.0671 67.246 73.1964 67.2493C73.3256 67.2526 73.4234 67.2576 73.4897 67.2642V68.4574C73.4499 68.4474 73.3588 68.4325 73.2163 68.4126C73.0771 68.3894 72.9296 68.3778 72.7738 68.3778C72.4026 68.3778 72.0711 68.4557 71.7795 68.6115C71.4911 68.764 71.2624 68.9761 71.0934 69.2479C70.9277 69.5163 70.8448 69.8229 70.8448 70.1676V75H69.6715ZM77.8498 75.1591C77.114 75.1591 76.4793 74.9967 75.9457 74.6719C75.4154 74.3438 75.006 73.8864 74.7177 73.2997C74.4326 72.7098 74.2901 72.0237 74.2901 71.2415C74.2901 70.4593 74.4326 69.7699 74.7177 69.1733C75.006 68.5734 75.4071 68.1061 75.9208 67.7713C76.4379 67.4332 77.0411 67.2642 77.7305 67.2642C78.1282 67.2642 78.521 67.3305 78.9087 67.4631C79.2965 67.5956 79.6495 67.8111 79.9677 68.1094C80.2859 68.4044 80.5394 68.7955 80.7283 69.2827C80.9173 69.7699 81.0117 70.3698 81.0117 71.0824V71.5795H75.1254V70.5653H79.8185C79.8185 70.1345 79.7324 69.75 79.56 69.4119C79.391 69.0739 79.149 68.8071 78.8342 68.6115C78.5226 68.416 78.1547 68.3182 77.7305 68.3182C77.2631 68.3182 76.8588 68.4342 76.5174 68.6662C76.1793 68.8949 75.9192 69.1932 75.7369 69.5611C75.5546 69.929 75.4634 70.3234 75.4634 70.7443V71.4205C75.4634 71.9972 75.5629 72.486 75.7617 72.8871C75.9639 73.2848 76.244 73.5881 76.6019 73.7969C76.9599 74.0024 77.3758 74.1051 77.8498 74.1051C78.158 74.1051 78.4364 74.062 78.685 73.9759C78.9369 73.8864 79.154 73.7538 79.3363 73.5781C79.5186 73.3991 79.6594 73.1771 79.7589 72.9119L80.8924 73.2301C80.7731 73.6146 80.5726 73.9527 80.2908 74.2443C80.0091 74.5327 79.6611 74.758 79.2468 74.9205C78.8325 75.0795 78.3668 75.1591 77.8498 75.1591Z" fill="url(#paint1_linear_549_10426)"/>
<rect x="0.5" y="0.5" width="97" height="97" rx="7.5" stroke="url(#paint2_linear_549_10426)" stroke-dasharray="10 10"/>
<defs>
<linearGradient id="paint0_linear_549_10426" x1="41.5" y1="29" x2="58.4774" y2="30.1148" gradientUnits="userSpaceOnUse">
<stop stop-color="#D92322"/>
<stop offset="1" stop-color="#7C142F"/>
</linearGradient>
<linearGradient id="paint1_linear_549_10426" x1="17" y1="61" x2="82.1607" y2="77.3598" gradientUnits="userSpaceOnUse">
<stop stop-color="#D92322"/>
<stop offset="1" stop-color="#7C142F"/>
</linearGradient>
<linearGradient id="paint2_linear_549_10426" x1="0" y1="0" x2="103.987" y2="6.82819" gradientUnits="userSpaceOnUse">
<stop stop-color="#D92322"/>
<stop offset="1" stop-color="#7C142F"/>
</linearGradient>
</defs>
</svg>
