<svg width="21" height="20" viewBox="0 0 21 20" fill="none" xmlns="http://www.w3.org/2000/svg">
<path d="M11.5247 8.22266C11.0736 8.22266 10.724 8.57227 10.724 9.00391C10.724 9.43555 11.0736 9.78516 11.5247 9.78516C11.9369 9.78516 12.2865 9.43555 12.2865 9.00391C12.2865 8.57227 11.9369 8.22266 11.5247 8.22266ZM6.056 8.22266C5.60483 8.22266 5.25522 8.57227 5.25522 9.00391C5.25522 9.43555 5.60483 9.78516 6.056 9.78516C6.46811 9.78516 6.81772 9.43555 6.81772 9.00391C6.81772 8.57227 6.46811 8.22266 6.056 8.22266Z" fill="#717E95"/>
<path d="M17.7943 6.73818C16.8548 5.44912 15.5423 4.58779 14.1029 4.19912V4.20107C13.7689 3.82998 13.3919 3.48818 12.97 3.18349C9.77278 0.859272 5.2845 1.56826 2.95051 4.76552C1.06966 7.36318 1.14973 10.8573 3.0677 13.3397L3.08333 15.9296C3.08333 15.9921 3.09309 16.0546 3.11262 16.1132C3.21614 16.4433 3.5677 16.6249 3.89583 16.5214L6.36848 15.7421C7.02278 15.9745 7.69856 16.1073 8.37043 16.1444L8.36067 16.1522C10.1009 17.4198 12.3822 17.8007 14.4739 17.1093L16.9564 17.9179C17.0189 17.9374 17.0833 17.9491 17.1497 17.9491C17.4954 17.9491 17.7747 17.6698 17.7747 17.3241V14.7069C19.4954 12.371 19.5404 9.14248 17.7943 6.73818ZM6.64192 14.3554L6.40754 14.2577L4.47395 14.8632L4.45442 12.8319L4.29817 12.6561C2.64583 10.6405 2.53645 7.73623 4.08333 5.60537C5.96614 3.02333 9.57551 2.45302 12.1497 4.3163C14.7318 6.19326 15.304 9.79677 13.4388 12.3632C11.8743 14.5097 9.07356 15.3026 6.64192 14.3554ZM16.5052 14.0233L16.3489 14.2186L16.3685 16.2499L14.4544 15.6054L14.22 15.703C13.1263 16.1093 11.9603 16.1425 10.8802 15.8397L10.8763 15.8378C12.3197 15.3944 13.6282 14.496 14.5716 13.203C16.0638 11.1464 16.306 8.5624 15.4388 6.35927L15.4505 6.36709C15.8997 6.68935 16.3118 7.0917 16.6614 7.57802C18.0794 9.52334 17.9993 12.1718 16.5052 14.0233Z" fill="#717E95"/>
<path d="M8.79037 8.22266C8.3392 8.22266 7.98959 8.57227 7.98959 9.00391C7.98959 9.43555 8.3392 9.78516 8.79037 9.78516C9.20248 9.78516 9.55209 9.43555 9.55209 9.00391C9.55209 8.57227 9.20248 8.22266 8.79037 8.22266Z" fill="#717E95"/>
</svg>
