<svg width="24" height="24" viewBox="0 0 24 24" fill="none" xmlns="http://www.w3.org/2000/svg">
<path d="M7.2 12C9.52125 12 11.4 9.65156 11.4 6.75C11.4 3.84844 9.52125 1.5 7.2 1.5C4.87875 1.5 3 3.84844 3 6.75C3 9.65156 4.87875 12 7.2 12ZM10.08 13.5H9.76875C8.98875 13.9688 8.1225 14.25 7.2 14.25C6.2775 14.25 5.415 13.9688 4.63125 13.5H4.32C1.935 13.5 0 15.9188 0 18.9V20.25C0 21.4922 0.80625 22.5 1.8 22.5H12.6C13.5938 22.5 14.4 21.4922 14.4 20.25V18.9C14.4 15.9188 12.465 13.5 10.08 13.5ZM18 12C19.9875 12 21.6 9.98438 21.6 7.5C21.6 5.01562 19.9875 3 18 3C16.0125 3 14.4 5.01562 14.4 7.5C14.4 9.98438 16.0125 12 18 12ZM19.8 13.5H19.6575C19.1363 13.725 18.585 13.875 18 13.875C17.415 13.875 16.8638 13.725 16.3425 13.5H16.2C15.435 13.5 14.73 13.7766 14.1112 14.2219C15.0262 15.4547 15.6 17.0906 15.6 18.9V20.7C15.6 20.8031 15.5813 20.9016 15.5775 21H22.2C23.1938 21 24 19.9922 24 18.75C24 15.8484 22.1213 13.5 19.8 13.5Z" fill="white"/>
</svg>
