<svg width="16" height="16" viewBox="0 0 16 16" fill="none" xmlns="http://www.w3.org/2000/svg">
<path d="M7.99992 1.33301C11.6759 1.33301 14.6666 4.32301 14.6666 7.99967C14.6666 11.6757 11.6759 14.6663 7.99992 14.6663C5.91525 14.6663 3.98859 13.7177 2.71525 12.065C2.55192 11.8523 2.59192 11.5477 2.80392 11.385C3.01592 11.221 3.31925 11.2617 3.48325 11.473C4.57192 12.8863 6.21792 13.697 7.99992 13.697C11.1413 13.697 13.6973 11.1417 13.6973 7.99967C13.6973 4.85834 11.1413 2.30234 7.99992 2.30234C4.85859 2.30234 2.30325 4.85834 2.30325 7.99967C2.30325 8.29167 2.32459 8.58167 2.36792 8.86567C2.40792 9.12967 2.22659 9.37701 1.96192 9.41768C1.69592 9.46167 1.44992 9.27701 1.40992 9.01234C1.35925 8.68034 1.33325 8.33967 1.33325 7.99967C1.33325 4.32301 4.32392 1.33301 7.99992 1.33301ZM7.77399 4.73927C8.04132 4.73927 8.25865 4.95661 8.25865 5.22461V8.18861L10.5413 9.54994C10.7713 9.68727 10.8467 9.98461 10.7093 10.2146C10.6193 10.3659 10.458 10.4506 10.2933 10.4506C10.2087 10.4506 10.1227 10.4286 10.0453 10.3826L7.52532 8.87994C7.37932 8.79194 7.28932 8.63394 7.28932 8.46327V5.22461C7.28932 4.95661 7.50665 4.73927 7.77399 4.73927Z" fill="white"/>
</svg>
