<svg width="24" height="24" viewBox="0 0 24 24" fill="none" xmlns="http://www.w3.org/2000/svg">
<path d="M15.434 16.0966C14.6228 15.7568 14.2989 14.8231 14.2989 14.8231C14.2989 14.8231 13.9334 15.0346 13.9334 14.4406C13.9334 13.8466 14.2989 14.8231 14.6644 12.5296C14.6644 12.5296 15.677 12.2318 15.4742 9.76956H15.2305C15.2305 9.76956 15.8397 7.13706 15.2305 6.24456C14.6214 5.35356 14.3792 4.75956 13.0398 4.33431C11.7005 3.90906 12.1885 3.99381 11.2146 4.03731C10.24 4.08081 9.42878 4.63206 9.42878 4.92981C9.42878 4.92981 8.81965 4.97181 8.57744 5.22681C8.33379 5.48181 7.92818 6.66981 7.92818 6.96681C7.92818 7.26381 8.13098 9.26181 8.33379 9.68556L8.09229 9.77106C7.88877 12.2333 8.90206 12.5311 8.90206 12.5311C9.26754 14.8246 9.63302 13.8481 9.63302 14.4421C9.63302 15.0361 9.26754 14.8246 9.26754 14.8246C9.26754 14.8246 8.94363 15.7583 8.13242 16.0981C7.3212 16.4371 2.81797 18.2626 2.45178 18.6451C2.08487 19.0276 2.12643 20.8111 2.12643 20.8111H21.4372C21.4372 20.8111 21.4802 19.0283 21.1133 18.6451C20.7478 18.2626 16.2438 16.4371 15.4326 16.0981L15.434 16.0966ZM6.49781 15.9676C6.42615 15.8326 6.39175 15.7351 6.39175 15.7351C6.39175 15.7351 6.08217 15.9151 6.08217 15.4111C6.08217 14.9071 6.39175 15.7351 6.70133 13.7911C6.70133 13.7911 7.56127 13.5398 7.38928 11.4526H7.18146C7.18146 11.4526 7.28466 11.0101 7.35202 10.4521C7.349 10.2028 7.35785 9.95345 7.37853 9.70506L7.40577 9.38556C7.39143 9.01656 7.32909 8.68056 7.18218 8.46606C6.66621 7.71081 6.45983 7.20606 5.32614 6.84606C4.19101 6.48606 4.60235 6.55806 3.77824 6.59481C2.9527 6.63231 2.26474 7.09881 2.26474 7.35231C2.26474 7.35231 1.74878 7.38756 1.54239 7.60356C1.3489 7.80606 1.03717 8.70006 0.999908 9.01731V9.22731C1.03431 9.71781 1.18623 11.0648 1.33672 11.3821L1.13177 11.4541C0.959778 13.5406 1.81972 13.7926 1.81972 13.7926C2.12787 15.7351 2.43816 14.9086 2.43816 15.4126C2.43816 15.9166 2.12858 15.7351 2.12858 15.7351C2.12858 15.7351 1.85412 16.5286 1.16616 16.8151L0.999908 16.8841V20.8096H1.41196C1.39047 19.8511 1.46714 18.6143 1.94656 18.1141C2.20239 17.8478 3.03869 17.4091 6.49924 15.9676H6.49781ZM22.4999 9.17556C22.4712 8.89206 22.4089 8.63931 22.2907 8.46606C21.7761 7.71006 21.569 7.20606 20.4346 6.84606C19.3002 6.48606 19.713 6.55806 18.8867 6.59481C18.0626 6.63231 17.3747 7.09881 17.3747 7.35231C17.3747 7.35231 16.8587 7.38756 16.6523 7.60356C16.4588 7.80756 16.1435 8.70756 16.1091 9.02106H16.1328L16.1901 9.70656C16.2044 9.87906 16.2058 10.0328 16.2094 10.1896C16.2739 10.6891 16.3599 11.2021 16.4459 11.3821L16.241 11.4533C16.069 13.5398 16.9289 13.7918 16.9289 13.7918C17.2385 15.7343 17.5474 14.9078 17.5474 15.4118C17.5474 15.9158 17.2392 15.7343 17.2392 15.7343C17.2392 15.7343 17.2005 15.8416 17.1217 15.9893C20.54 17.4143 21.3691 17.8493 21.6221 18.1141C22.1022 18.6151 22.1767 19.8511 22.1559 20.8103H22.4999V16.8316L22.4641 16.8151C21.7761 16.5278 21.5009 15.7351 21.5009 15.7351C21.5009 15.7351 21.1906 15.9151 21.1906 15.4126C21.1906 14.9101 21.5009 15.7351 21.8098 13.7926C21.8098 13.7926 22.386 13.6201 22.4999 12.4126V11.4916C22.4999 11.4781 22.4999 11.4668 22.4978 11.4541H22.2899C22.2899 11.4541 22.4447 10.7866 22.4999 10.0576V9.17556Z" fill="url(#paint0_linear_2362_13598)"/>
<defs>
<linearGradient id="paint0_linear_2362_13598" x1="0.999908" y1="4" x2="23.7512" y2="5.91064" gradientUnits="userSpaceOnUse">
<stop stop-color="#D92322"/>
<stop offset="1" stop-color="#7C142F"/>
</linearGradient>
</defs>
</svg>
