<svg width="20" height="20" viewBox="0 0 20 20" fill="none" xmlns="http://www.w3.org/2000/svg">
<path d="M14.375 4.375H16.875V6.875H14.375V4.375ZM14.375 8.125H16.875V10.625H14.375V8.125ZM10.625 4.375H13.125V6.875H10.625V4.375ZM10.625 8.125H13.125V10.625H10.625V8.125Z" fill="black"/>
<path d="M9.0625 16.25C9.58027 16.25 10 15.8303 10 15.3125C10 14.7947 9.58027 14.375 9.0625 14.375C8.54473 14.375 8.125 14.7947 8.125 15.3125C8.125 15.8303 8.54473 16.25 9.0625 16.25Z" fill="black"/>
<path d="M13.125 18.75H5C4.66858 18.7497 4.35083 18.6179 4.11648 18.3835C3.88213 18.1492 3.75033 17.8314 3.75 17.5V2.5C3.75033 2.16858 3.88213 1.85083 4.11648 1.61648C4.35083 1.38213 4.66858 1.25033 5 1.25H13.125V2.5H5V17.5H13.125V12.5H14.375V17.5C14.3747 17.8314 14.2429 18.1492 14.0085 18.3835C13.7742 18.6179 13.4564 18.7497 13.125 18.75Z" fill="black"/>
</svg>
