<svg width="22" height="19" viewBox="0 0 22 19" fill="none" xmlns="http://www.w3.org/2000/svg">
<path fill-rule="evenodd" clip-rule="evenodd" d="M14.5426 0.674438C14.0671 0.24029 13.4496 0 12.8093 0H9.30259C8.66249 0 8.0451 0.240166 7.56965 0.674113L6.88139 1.3023C6.41363 1.72923 5.80622 1.96552 5.17647 1.96552C2.31758 1.96552 0 4.31216 0 7.2069V13.7586C0 16.6534 2.31758 19 5.17647 19H16.8235C19.6824 19 22 16.6534 22 13.7586V7.2069C22 4.31216 19.6824 1.96552 16.8235 1.96552L16.6384 1.95782C16.1474 1.91689 15.6812 1.71404 15.3128 1.37767L14.5426 0.674438ZM9.30259 1.2002H12.8093C13.1497 1.2002 13.4787 1.32824 13.7335 1.56081L14.5037 2.26405C15.0668 2.77821 15.7821 3.0908 16.5387 3.15386L16.7737 3.16468C19.0163 3.16571 20.8 4.97178 20.8 7.20709V13.7588C20.8 15.9941 19.0163 17.8002 16.8235 17.8002H5.17647C2.9837 17.8002 1.2 15.9941 1.2 13.7588V7.20709C1.2 5.03951 2.87723 3.27557 4.97829 3.17065L5.40806 3.15849C6.25389 3.10569 7.05922 2.76487 7.69035 2.18883L8.37862 1.56064C8.63332 1.32817 8.9623 1.2002 9.30259 1.2002ZM11 5.00488C13.7614 5.00488 16 7.24346 16 10.0049C16 12.7663 13.7614 15.0049 11 15.0049C8.23858 15.0049 6 12.7663 6 10.0049C6 7.24346 8.23858 5.00488 11 5.00488ZM7.2 10.0051C7.2 7.9064 8.90132 6.20508 11 6.20508C13.0987 6.20508 14.8 7.9064 14.8 10.0051C14.8 12.1038 13.0987 13.8051 11 13.8051C8.90132 13.8051 7.2 12.1038 7.2 10.0051Z" fill="white"/>
</svg>
