<svg width="18" height="18" viewBox="0 0 18 18" fill="none" xmlns="http://www.w3.org/2000/svg">
<path d="M16.6114 7.24121H12.1114C12.0341 7.24121 11.9708 7.30449 11.9708 7.38184V8.22559C11.9708 8.30293 12.0341 8.36621 12.1114 8.36621H16.6114C16.6888 8.36621 16.7521 8.30293 16.7521 8.22559V7.38184C16.7521 7.30449 16.6888 7.24121 16.6114 7.24121ZM14.256 9.63184H12.1114C12.0341 9.63184 11.9708 9.69512 11.9708 9.77246V10.6162C11.9708 10.6936 12.0341 10.7568 12.1114 10.7568H14.256C14.3333 10.7568 14.3966 10.6936 14.3966 10.6162V9.77246C14.3966 9.69512 14.3333 9.63184 14.256 9.63184ZM8.39014 5.66797H7.629C7.52002 5.66797 7.43213 5.75586 7.43213 5.86484V10.2242C7.43213 10.2875 7.46201 10.3455 7.51299 10.3824L10.1304 12.2914C10.2183 12.3547 10.3413 12.3371 10.4046 12.2492L10.8563 11.6322V11.6305C10.9196 11.5426 10.9003 11.4195 10.8124 11.3562L8.58525 9.74609V5.86484C8.58701 5.75586 8.49736 5.66797 8.39014 5.66797Z" fill="#202020"/>
<path d="M14.1469 11.8466H13.1309C13.0324 11.8466 12.9393 11.8976 12.8865 11.982C12.6633 12.3353 12.4031 12.6623 12.1043 12.9611C11.5893 13.4761 10.9899 13.8804 10.3236 14.1617C9.63282 14.4535 8.89982 14.6011 8.14396 14.6011C7.38634 14.6011 6.65333 14.4535 5.96427 14.1617C5.29806 13.8804 4.69864 13.4761 4.18361 12.9611C3.66857 12.446 3.26427 11.8466 2.98302 11.1804C2.69122 10.4914 2.54357 9.75835 2.54357 9.00073C2.54357 8.24311 2.69122 7.51186 2.98302 6.82104C3.26427 6.15483 3.66857 5.55542 4.18361 5.04038C4.69864 4.52534 5.29806 4.12104 5.96427 3.83979C6.65333 3.548 7.3881 3.40034 8.14396 3.40034C8.90157 3.40034 9.63458 3.548 10.3236 3.83979C10.9899 4.12104 11.5893 4.52534 12.1043 5.04038C12.4031 5.33921 12.6633 5.66616 12.8865 6.01948C12.9393 6.10386 13.0324 6.15483 13.1309 6.15483H14.1469C14.2682 6.15483 14.3455 6.02827 14.291 5.92104C13.1449 3.64116 10.8211 2.15933 8.22657 2.12944C4.42794 2.08198 1.27267 5.19155 1.26564 8.98667C1.25861 12.7888 4.34005 15.8738 8.1422 15.8738C10.7701 15.8738 13.1326 14.3867 14.291 12.0804C14.3455 11.9732 14.2664 11.8466 14.1469 11.8466Z" fill="#202020"/>
</svg>
