<svg width="20" height="20" viewBox="0 0 20 20" fill="none" xmlns="http://www.w3.org/2000/svg">
<path d="M10 6.5V2H5.5C5.10218 2 4.72064 2.15804 4.43934 2.43934C4.15804 2.72064 4 3.10218 4 3.5V16.5C4 16.8978 4.15804 17.2794 4.43934 17.5607C4.72064 17.842 5.10218 18 5.5 18H14.5C14.8978 18 15.2794 17.842 15.5607 17.5607C15.842 17.2794 16 16.8978 16 16.5V8H11.5C11.1022 8 10.7206 7.84196 10.4393 7.56066C10.158 7.27936 10 6.89782 10 6.5ZM6 10.5C6 10.3674 6.05268 10.2402 6.14645 10.1464C6.24021 10.0527 6.36739 10 6.5 10C6.63261 10 6.75979 10.0527 6.85355 10.1464C6.94732 10.2402 7 10.3674 7 10.5C7 10.6326 6.94732 10.7598 6.85355 10.8536C6.75979 10.9473 6.63261 11 6.5 11C6.36739 11 6.24021 10.9473 6.14645 10.8536C6.05268 10.7598 6 10.6326 6 10.5ZM6 12.5C6 12.3674 6.05268 12.2402 6.14645 12.1464C6.24021 12.0527 6.36739 12 6.5 12C6.63261 12 6.75979 12.0527 6.85355 12.1464C6.94732 12.2402 7 12.3674 7 12.5C7 12.6326 6.94732 12.7598 6.85355 12.8536C6.75979 12.9473 6.63261 13 6.5 13C6.36739 13 6.24021 12.9473 6.14645 12.8536C6.05268 12.7598 6 12.6326 6 12.5ZM6 14.5C6 14.3674 6.05268 14.2402 6.14645 14.1464C6.24021 14.0527 6.36739 14 6.5 14C6.63261 14 6.75979 14.0527 6.85355 14.1464C6.94732 14.2402 7 14.3674 7 14.5C7 14.6326 6.94732 14.7598 6.85355 14.8536C6.75979 14.9473 6.63261 15 6.5 15C6.36739 15 6.24021 14.9473 6.14645 14.8536C6.05268 14.7598 6 14.6326 6 14.5ZM8 10.5C8 10.3674 8.05268 10.2402 8.14645 10.1464C8.24021 10.0527 8.36739 10 8.5 10H13.5C13.6326 10 13.7598 10.0527 13.8536 10.1464C13.9473 10.2402 14 10.3674 14 10.5C14 10.6326 13.9473 10.7598 13.8536 10.8536C13.7598 10.9473 13.6326 11 13.5 11H8.5C8.36739 11 8.24021 10.9473 8.14645 10.8536C8.05268 10.7598 8 10.6326 8 10.5ZM8 12.5C8 12.3674 8.05268 12.2402 8.14645 12.1464C8.24021 12.0527 8.36739 12 8.5 12H13.5C13.6326 12 13.7598 12.0527 13.8536 12.1464C13.9473 12.2402 14 12.3674 14 12.5C14 12.6326 13.9473 12.7598 13.8536 12.8536C13.7598 12.9473 13.6326 13 13.5 13H8.5C8.36739 13 8.24021 12.9473 8.14645 12.8536C8.05268 12.7598 8 12.6326 8 12.5ZM8 14.5C8 14.3674 8.05268 14.2402 8.14645 14.1464C8.24021 14.0527 8.36739 14 8.5 14H13.5C13.6326 14 13.7598 14.0527 13.8536 14.1464C13.9473 14.2402 14 14.3674 14 14.5C14 14.6326 13.9473 14.7598 13.8536 14.8536C13.7598 14.9473 13.6326 15 13.5 15H8.5C8.36739 15 8.24021 14.9473 8.14645 14.8536C8.05268 14.7598 8 14.6326 8 14.5ZM11 6.5V2.25L15.75 7H11.5C11.3674 7 11.2402 6.94732 11.1464 6.85355C11.0527 6.75979 11 6.63261 11 6.5Z" fill="black"/>
</svg>
