<svg width="20" height="21" viewBox="0 0 20 21" fill="none" xmlns="http://www.w3.org/2000/svg">
<path d="M10.0277 2.1665C13.933 2.18185 17.0985 5.36815 17.0832 9.26844V9.3459C17.0305 12.1332 15.3548 14.4462 13.9586 15.8953C13.5613 16.3097 13.1384 16.7073 12.7022 17.0785C12.441 17.3014 12.0488 17.2707 11.8256 17.0098C11.6024 16.7482 11.6339 16.3565 11.8951 16.1336C12.299 15.7894 12.692 15.4196 13.0615 15.0345C14.304 13.7453 15.7939 11.7071 15.8392 9.32325C15.8517 6.04852 13.243 3.42129 10.0226 3.40814H9.9999C6.79048 3.40814 4.17303 6.00979 4.16059 9.21728C4.21547 10.8017 4.75111 12.3078 5.71042 13.5714C6.82999 15.0622 8.52837 16.6408 10.1426 17.6917C10.4309 17.8787 10.5121 18.2631 10.3241 18.5511C10.2055 18.7338 10.0058 18.8332 9.80233 18.8332C9.68599 18.8332 9.56891 18.801 9.46354 18.7323C7.73516 17.6076 5.91604 15.9165 4.71672 14.3197C3.60373 12.853 2.98102 11.1027 2.91663 9.2604C2.93199 5.32138 6.10703 2.1665 9.9999 2.1665H10.0277ZM9.99771 6.65268C11.4839 6.65268 12.6935 7.85996 12.6935 9.34495C12.6935 10.8292 11.4839 12.0365 9.99771 12.0365C8.51154 12.0365 7.30197 10.8292 7.30197 9.34495C7.30197 9.00147 7.58076 8.72377 7.92395 8.72377C8.26714 8.72377 8.54593 9.00147 8.54593 9.34495C8.54593 10.1437 9.19718 10.7949 9.99771 10.7949C10.7982 10.7949 11.4495 10.1437 11.4495 9.34495C11.4495 8.54545 10.7982 7.89431 9.99771 7.89431C9.65452 7.89431 9.37573 7.6166 9.37573 7.27386C9.37573 6.93038 9.65452 6.65268 9.99771 6.65268Z" fill="#202020"/>
</svg>
