<svg width="16" height="24" viewBox="0 0 16 24" fill="none" xmlns="http://www.w3.org/2000/svg">
<path fill-rule="evenodd" clip-rule="evenodd" d="M8 0C10.5328 0 12.586 2.05322 12.586 4.58599V11.7197C12.586 14.2525 10.5328 16.3057 8 16.3057C5.46723 16.3057 3.41401 14.2525 3.41401 11.7197V4.58599C3.41401 2.05322 5.46723 0 8 0ZM0.611465 10.5254C0.915397 10.5254 1.16754 10.7471 1.21493 11.0377L1.22293 11.1369V11.2713C1.22293 15.0828 4.25936 18.1687 8 18.1687C11.6611 18.1687 14.6475 15.2127 14.773 11.5136L14.7771 11.2713V11.1475C14.7771 10.8098 15.0508 10.536 15.3885 10.536C15.6925 10.536 15.9446 10.7577 15.992 11.0483L16 11.1475L15.9962 11.5241C15.8709 15.6828 12.6641 19.0575 8.61133 19.3683L8.61146 22.9296C8.61146 23.2673 8.3377 23.5411 8 23.5411C7.69607 23.5411 7.44393 23.3193 7.39654 23.0288L7.38853 22.9296L7.38901 19.3683C3.33869 19.0579 0.133196 15.6872 0.00404601 11.532L0 11.1369C0 10.7992 0.273762 10.5254 0.611465 10.5254ZM4.63694 4.58669C4.63694 2.72932 6.14263 1.22363 8 1.22363C9.85736 1.22363 11.3631 2.72932 11.3631 4.58669V11.7204C11.3631 13.5778 9.85736 15.0835 8 15.0835C6.14263 15.0835 4.63694 13.5778 4.63694 11.7204V4.58669Z" fill="white"/>
</svg>
