<svg width="20" height="20" viewBox="0 0 20 20" fill="none" xmlns="http://www.w3.org/2000/svg">
<path d="M9.48815 19.7531C9.78215 19.9101 10.1512 19.9091 10.4452 19.7521C18.4571 15.4481 19.0261 7.03913 19.0191 4.64813C19.0184 4.45596 18.9616 4.26818 18.8557 4.1078C18.7499 3.94741 18.5996 3.82137 18.4232 3.74513L10.3732 0.17913C10.245 0.12266 10.1065 0.0935786 9.96655 0.0937508C9.82654 0.093923 9.68812 0.123345 9.56015 0.18013L1.56615 3.74613C1.39235 3.82242 1.24414 3.94706 1.13918 4.10521C1.03422 4.26335 0.976934 4.44834 0.97415 4.63813C0.94015 7.01713 1.41915 15.4441 9.48815 19.7531ZM6.67415 8.29213L8.96715 10.5851L13.2602 6.29213L14.6742 7.70613L8.96715 13.4131L5.26015 9.70613L6.67415 8.29213Z" fill="#5D067B"/>
</svg>
