<svg fill="none" height="18" viewBox="0 0 20 18" width="20" xmlns="http://www.w3.org/2000/svg" xmlns:xlink="http://www.w3.org/1999/xlink"><linearGradient id="a"><stop offset="0" stop-color="#d92322"/><stop offset="1" stop-color="#7c142f"/></linearGradient><linearGradient id="b" gradientUnits="userSpaceOnUse" x1="0" x2="15.2864" xlink:href="#a" y1="11.8574" y2="14.2595"/><linearGradient id="c" gradientUnits="userSpaceOnUse" x1="2.48633" x2="12.8046" xlink:href="#a" y1="0" y2=".691857"/><linearGradient id="d" gradientUnits="userSpaceOnUse" x1="12.9089" x2="18.2494" xlink:href="#a" y1=".794922" y2="1.01421"/><linearGradient id="e" gradientUnits="userSpaceOnUse" x1="13.532" x2="20.3799" xlink:href="#a" y1="10.3809" y2="10.9352"/><path d="m7.34933 11.8574c-3.9638 0-7.34933.6123-7.34933 3.0597 0 2.4492 3.364 3.0826 7.34933 3.0826 3.96377 0 7.34937-.6123 7.34937-3.0596 0-2.4493-3.364-3.0827-7.34937-3.0827z" fill="url(#b)"/><path d="m7.34935 9.52482c2.69965 0 4.86305-2.11865 4.86305-4.76241s-2.1634-4.76241-4.86305-4.76241c-2.69863 0-4.86302 2.11865-4.86302 4.76241s2.16439 4.76241 4.86302 4.76241z" fill="url(#c)" opacity=".4"/><path d="m14.1735 4.84824c0 1.34632-.4129 2.60256-1.137 3.64607-.0753.10732-.0088.25202.1223.27502.182.0297.3689.04791.5597.05174 1.8983.04887 3.6018-1.14796 4.0725-2.9504.6976-2.67442-1.3494-5.075748-3.957-5.075748-.2828 0-.5538.028747-.818.08145-.0362.007665-.0754.024914-.0949.055577-.0255.039287-.0069.090071.0186.123611.7837 1.0761 1.2338 2.386 1.2338 3.79268z" fill="url(#d)" opacity=".4"/><path d="m19.7792 12.1697c-.3474-.7253-1.1859-1.2227-2.4619-1.467-.6017-.1437-2.2319-.3479-3.7475-.3191-.0225.0029-.0352.0182-.0372.0278-.0029.0153.0039.0383.0333.0546.7006.3392 3.408 1.8149 3.0675 4.9272-.0147.1361.0959.2511.2339.2319.6663-.0929 2.3806-.4542 2.9119-1.5772.2945-.5941.2945-1.2841 0-1.8782z" fill="url(#e)"/></svg>