<svg width="23" height="24" viewBox="0 0 23 24" fill="none" xmlns="http://www.w3.org/2000/svg">
<path d="M10.2622 3.79167C10.2622 3.63509 10.3067 3.48203 10.39 3.35184C10.4734 3.22165 10.5919 3.12018 10.7305 3.06026C10.8692 3.00034 11.0217 2.98467 11.1689 3.01521C11.316 3.04576 11.4512 3.12116 11.5573 3.23187C11.6634 3.34259 11.7357 3.48365 11.765 3.63722C11.7942 3.79079 11.7792 3.94997 11.7218 4.09462C11.6644 4.23928 11.5671 4.36292 11.4424 4.44991C11.3176 4.5369 11.1709 4.58333 11.0209 4.58333C10.8196 4.58333 10.6267 4.49993 10.4844 4.35146C10.3421 4.20299 10.2622 4.00163 10.2622 3.79167ZM4.19273 8.54167C4.34278 8.54167 4.48946 8.49524 4.61423 8.40825C4.73899 8.32126 4.83624 8.19762 4.89366 8.05296C4.95108 7.9083 4.96611 7.74912 4.93683 7.59555C4.90756 7.44199 4.8353 7.30092 4.7292 7.19021C4.62309 7.07949 4.48791 7.00409 4.34074 6.97355C4.19357 6.943 4.04103 6.95868 3.90239 7.0186C3.76376 7.07852 3.64527 7.17999 3.56191 7.31017C3.47854 7.44036 3.43405 7.59342 3.43405 7.75C3.43405 7.95996 3.51398 8.16133 3.65626 8.30979C3.79854 8.45826 3.99151 8.54167 4.19273 8.54167ZM7.22745 5.375C7.3775 5.375 7.52419 5.32857 7.64895 5.24158C7.77372 5.15459 7.87096 5.03095 7.92838 4.88629C7.9858 4.74163 8.00083 4.58246 7.97155 4.42889C7.94228 4.27532 7.87002 4.13426 7.76392 4.02354C7.65782 3.91282 7.52263 3.83743 7.37546 3.80688C7.22829 3.77633 7.07575 3.79201 6.93712 3.85193C6.79849 3.91185 6.68 4.01332 6.59663 4.14351C6.51327 4.2737 6.46877 4.42676 6.46877 4.58333C6.46877 4.7933 6.5487 4.99466 6.69098 5.14313C6.83326 5.29159 7.02624 5.375 7.22745 5.375ZM14.8143 5.375C14.9643 5.375 15.111 5.32857 15.2358 5.24158C15.3605 5.15459 15.4578 5.03095 15.5152 4.88629C15.5726 4.74163 15.5876 4.58246 15.5584 4.42889C15.5291 4.27532 15.4568 4.13426 15.3507 4.02354C15.2446 3.91282 15.1094 3.83743 14.9623 3.80688C14.8151 3.77633 14.6626 3.79201 14.5239 3.85193C14.3853 3.91185 14.2668 4.01332 14.1834 4.14351C14.1001 4.2737 14.0556 4.42676 14.0556 4.58333C14.0556 4.7933 14.1355 4.99466 14.2778 5.14313C14.4201 5.29159 14.613 5.375 14.8143 5.375ZM17.849 8.54167C17.999 8.54167 18.1457 8.49524 18.2705 8.40825C18.3952 8.32126 18.4925 8.19762 18.5499 8.05296C18.6073 7.9083 18.6224 7.74912 18.5931 7.59555C18.5638 7.44199 18.4916 7.30092 18.3854 7.19021C18.2793 7.07949 18.1442 7.00409 17.997 6.97355C17.8498 6.943 17.6973 6.95868 17.5586 7.0186C17.42 7.07852 17.3015 7.17999 17.2182 7.31017C17.1348 7.44036 17.0903 7.59342 17.0903 7.75C17.0903 7.95996 17.1702 8.16133 17.3125 8.30979C17.4548 8.45826 17.6478 8.54167 17.849 8.54167ZM10.027 18.7407C9.8118 18.1806 9.66153 17.5956 9.57936 16.9982C8.53599 16.6405 7.65304 15.8987 7.09531 14.9115C6.53759 13.9242 6.3432 12.759 6.54843 11.6331L9.20002 14.4V15.0333C9.20143 15.3384 9.30931 15.6325 9.50349 15.8606V12.5H8.59308V11.2333H9.80696C9.96781 11.2329 10.122 11.1661 10.2357 11.0474C10.3494 10.9287 10.4135 10.7678 10.4139 10.6V9.33333H11.6278C11.9357 9.33195 12.2316 9.20853 12.4556 8.98804C12.6796 8.76756 12.8149 8.4665 12.8341 8.14583C13.5383 8.47118 14.1524 8.97686 14.6193 9.61596L15.5729 9.20113L16.3923 9.55737C15.9128 8.60211 15.2075 7.79048 14.3431 7.19943C13.4787 6.60839 12.484 6.25752 11.4533 6.1801C10.4225 6.10268 9.3899 6.30128 8.45332 6.75706C7.51675 7.21284 6.70726 7.9107 6.10162 8.78446C5.49599 9.65822 5.11427 10.6789 4.99267 11.7498C4.87107 12.8206 5.01362 13.9062 5.4068 14.9034C5.79998 15.9007 6.43076 16.7766 7.23932 17.4482C8.04788 18.1197 9.00743 18.5646 10.027 18.7407ZM7.22745 19.625C7.0774 19.625 6.93072 19.6714 6.80595 19.7584C6.68119 19.8454 6.58394 19.9691 6.52652 20.1137C6.4691 20.2584 6.45407 20.4175 6.48335 20.5711C6.51262 20.7247 6.58488 20.8657 6.69098 20.9765C6.79709 21.0872 6.93227 21.1626 7.07944 21.1931C7.22661 21.2237 7.37916 21.208 7.51779 21.1481C7.65642 21.0882 7.77491 20.9867 7.85827 20.8565C7.94164 20.7263 7.98613 20.5732 7.98613 20.4167C7.98613 20.2067 7.9062 20.0053 7.76392 19.8569C7.62164 19.7084 7.42867 19.625 7.22745 19.625ZM11.0209 20.4167C10.8708 20.4167 10.7241 20.4631 10.5994 20.5501C10.4746 20.6371 10.3773 20.7607 10.3199 20.9054C10.2625 21.05 10.2475 21.2092 10.2768 21.3628C10.306 21.5163 10.3783 21.6574 10.4844 21.7681C10.5905 21.8788 10.7257 21.9542 10.8728 21.9848C11.02 22.0153 11.1726 21.9997 11.3112 21.9397C11.4498 21.8798 11.5683 21.7783 11.6517 21.6482C11.735 21.518 11.7795 21.3649 11.7795 21.2083C11.7795 20.9984 11.6996 20.797 11.5573 20.6485C11.415 20.5001 11.2221 20.4167 11.0209 20.4167ZM4.19273 16.4583C4.04268 16.4583 3.89599 16.5048 3.77123 16.5918C3.64646 16.6787 3.54922 16.8024 3.4918 16.947C3.43438 17.0917 3.41935 17.2509 3.44863 17.4044C3.4779 17.558 3.55016 17.6991 3.65626 17.8098C3.76236 17.9205 3.89755 17.9959 4.04472 18.0265C4.19189 18.057 4.34443 18.0413 4.48306 17.9814C4.62169 17.9215 4.74018 17.82 4.82355 17.6898C4.90691 17.5596 4.95141 17.4066 4.95141 17.25C4.95141 17.04 4.87148 16.8387 4.7292 16.6902C4.58692 16.5417 4.39394 16.4583 4.19273 16.4583ZM2.67537 11.7083C2.52532 11.7083 2.37863 11.7548 2.25387 11.8418C2.1291 11.9287 2.03186 12.0524 1.97444 12.197C1.91702 12.3417 1.90199 12.5009 1.93127 12.6544C1.96054 12.808 2.0328 12.9491 2.1389 13.0598C2.245 13.1705 2.38019 13.2459 2.52736 13.2765C2.67453 13.307 2.82707 13.2913 2.9657 13.2314C3.10433 13.1715 3.22282 13.07 3.30619 12.9398C3.38955 12.8096 3.43405 12.6566 3.43405 12.5C3.43405 12.29 3.35412 12.0887 3.21184 11.9402C3.06956 11.7917 2.87658 11.7083 2.67537 11.7083ZM20.125 12.8958V15.954C20.0861 17.3374 19.6229 18.6713 18.8035 19.7596C17.9841 20.8478 16.8518 21.6331 15.5729 22C14.2961 21.6403 13.1641 20.8614 12.3443 19.7784C11.5245 18.6954 11.0605 17.3659 11.0209 15.9865V12.8958L15.5729 10.9167L20.125 12.8958Z" fill="#12C2E9"/>
</svg>
