<svg width="16" height="16" viewBox="0 0 16 16" fill="none" xmlns="http://www.w3.org/2000/svg">
<circle cx="8" cy="8" r="7.5" fill="#EB5757" stroke="white"/>
<path d="M6.75984 4.83355C6.96984 4.83993 7.17318 4.8766 7.37018 4.9436H7.38984C7.40318 4.94993 7.41318 4.95693 7.41984 4.96327C7.49351 4.98693 7.56318 5.0136 7.62984 5.05027L7.75651 5.10693C7.80651 5.1336 7.86651 5.18327 7.89984 5.2036C7.93318 5.22327 7.96984 5.2436 7.99984 5.2666C8.37018 4.9836 8.81984 4.83027 9.28318 4.83355C9.49351 4.83355 9.70351 4.86327 9.90318 4.93027C11.1335 5.33027 11.5768 6.68027 11.2065 7.86027C10.9965 8.46327 10.6532 9.0136 10.2035 9.46327C9.55984 10.0866 8.85351 10.6399 8.09318 11.1166L8.00984 11.1669L7.92318 11.1133C7.16018 10.6399 6.44984 10.0866 5.80018 9.45993C5.35351 9.01027 5.00984 8.46327 4.79651 7.86027C4.41984 6.68027 4.86318 5.33027 6.10684 4.92327C6.20351 4.88993 6.30318 4.8666 6.40318 4.8536H6.44318C6.53684 4.83993 6.62984 4.83355 6.72318 4.83355H6.75984ZM9.72984 5.88693C9.59318 5.83993 9.44318 5.9136 9.39318 6.0536C9.34651 6.1936 9.41984 6.34693 9.55984 6.3966C9.77351 6.4766 9.91651 6.68693 9.91651 6.91993V6.93027C9.91018 7.0066 9.93318 7.08027 9.97984 7.13693C10.0265 7.1936 10.0965 7.2266 10.1698 7.2336C10.3065 7.22993 10.4232 7.12027 10.4332 6.97993V6.94027C10.4432 6.47327 10.1602 6.05027 9.72984 5.88693Z" fill="white"/>
</svg>
