<svg width="18" height="18" viewBox="0 0 18 18" fill="none" xmlns="http://www.w3.org/2000/svg">
<path fill-rule="evenodd" clip-rule="evenodd" d="M17.6986 16.3006L14.159 12.761L14.158 12.76C16.7188 9.46107 16.2738 4.7398 13.1417 1.97751C10.0096 -0.784774 5.26972 -0.636239 2.31674 2.31674C-0.636239 5.26972 -0.784775 10.0096 1.97751 13.1417C4.73981 16.2737 9.46108 16.7188 12.76 14.158L16.2996 17.6976C16.5477 17.9548 16.9152 18.0582 17.2609 17.9679C17.6067 17.8777 17.8768 17.6079 17.9676 17.2623C18.0583 16.9167 17.9555 16.549 17.6986 16.3006ZM13.8426 7.91031C13.8426 11.1866 11.1866 13.8426 7.91028 13.8426C4.63395 13.8426 1.97797 11.1866 1.97797 7.91031C1.97797 4.63397 4.63395 1.97798 7.91028 1.97798C11.1866 1.97798 13.8426 4.63397 13.8426 7.91031Z" fill="white"/>
</svg>
