<svg width="36" height="36" viewBox="0 0 36 36" fill="none" xmlns="http://www.w3.org/2000/svg">
<g clip-path="url(#clip0_2848_14603)">
<path d="M2.44784 17.091V29.9736H7.90184L8.17724 30.006C13.2406 31.1868 16.5958 32.0382 18.268 32.5656C20.4892 33.2658 21.3172 33.4368 22.8238 33.5376C23.9506 33.615 25.2304 33.1812 25.8136 32.5872C26.1358 32.2596 26.377 31.5864 26.4724 30.5424C26.4922 30.3235 26.5705 30.1139 26.699 29.9356C26.8276 29.7573 27.0018 29.6169 27.2032 29.529C27.6514 29.3346 28.024 29.0178 28.3354 28.557C28.6234 28.1358 28.8106 27.351 28.8448 26.2152C28.8509 26.0064 28.91 25.8026 29.0168 25.6231C29.1236 25.4435 29.2744 25.2942 29.455 25.1892C30.5026 24.5826 31.021 23.8986 31.129 23.0958C31.2478 22.2084 30.9598 21.2094 30.2056 20.0718C30.0287 19.805 29.9628 19.4797 30.0219 19.1651C30.0811 18.8505 30.2607 18.5713 30.5224 18.387C31.2442 17.8794 31.6402 17.1738 31.7392 16.173C31.8976 14.5782 30.8806 13.3992 28.5784 13.1634C26.528 12.9606 24.4578 13.1333 22.4692 13.6728C22.2437 13.7318 22.0059 13.7251 21.7841 13.6535C21.5622 13.582 21.3653 13.4485 21.2167 13.2689C21.0681 13.0892 20.9738 12.8709 20.9451 12.6395C20.9164 12.4081 20.9543 12.1734 21.0544 11.9628C21.9544 10.0584 22.4548 8.48703 22.5718 7.27023C22.7248 5.65563 22.3522 4.48563 21.481 3.52083C20.8204 2.79003 19.7638 2.37243 19.3678 2.45883C18.8458 2.57043 18.5056 2.87283 18.0628 3.93123C17.8018 4.55763 17.6758 5.09043 17.4598 6.33423C17.2528 7.51503 17.1394 8.04783 16.9036 8.74623C16.1926 10.863 14.4484 13.0572 12.1066 14.571C10.4654 15.6307 8.68663 16.4604 6.82004 17.037C6.70342 17.073 6.58206 17.0912 6.46004 17.091H2.44784V17.091ZM2.37224 32.427C1.79084 32.4432 1.26884 32.3136 0.831436 32.0076C0.273436 31.617 0.0106356 31.0014 0.00523564 30.2922L0.0106356 17.1108C-0.0505644 16.4088 0.156436 15.7644 0.646036 15.2856C1.10504 14.8356 1.70444 14.6232 2.33804 14.6376H6.27104C7.86198 14.1307 9.37877 13.4153 10.7818 12.51C12.6682 11.2896 14.0578 9.54003 14.5888 7.96323C14.7706 7.41963 14.8678 6.96963 15.0514 5.91123C15.2998 4.49103 15.4546 3.83043 15.811 2.98083C16.549 1.21323 17.5174 0.349233 18.853 0.0594331C20.167 -0.224967 22.0804 0.532833 23.29 1.87203C24.631 3.35523 25.2232 5.21103 25.0036 7.50423C24.91 8.49063 24.6364 9.59403 24.1864 10.8234C25.7232 10.5995 27.2818 10.5656 28.8268 10.7226C32.4394 11.0916 34.468 13.4442 34.1728 16.4178C34.0432 17.6994 33.5788 18.7884 32.7886 19.6434C33.4528 20.9232 33.7174 22.1886 33.5518 23.4234C33.361 24.8454 32.569 26.0298 31.2514 26.9496C31.1488 28.197 30.8626 29.1924 30.355 29.9376C29.9551 30.5397 29.4332 31.0511 28.8232 31.4388C28.6288 32.67 28.2202 33.633 27.5524 34.3098C26.4454 35.4366 24.4672 36.108 22.66 35.9856C20.9446 35.8704 19.9294 35.6616 17.5354 34.9056C15.9568 34.407 12.688 33.579 7.76144 32.427H2.37044H2.37224ZM5.43404 16.5312C5.43356 16.3702 5.46487 16.2106 5.52617 16.0617C5.58747 15.9128 5.67756 15.7774 5.79126 15.6634C5.90497 15.5494 6.04006 15.4589 6.1888 15.3971C6.33754 15.3354 6.49699 15.3036 6.65804 15.3036C6.81877 15.3041 6.97785 15.3362 7.12617 15.3982C7.27449 15.4601 7.40916 15.5507 7.52248 15.6647C7.63581 15.7787 7.72557 15.9139 7.78664 16.0626C7.84772 16.2112 7.87891 16.3705 7.87844 16.5312V30.3516C7.87867 30.5124 7.84725 30.6716 7.78595 30.8202C7.72466 30.9688 7.6347 31.1038 7.52121 31.2177C7.40772 31.3315 7.27292 31.4218 7.1245 31.4836C6.97609 31.5453 6.81697 31.5772 6.65624 31.5774C6.4955 31.5772 6.33638 31.5453 6.18797 31.4836C6.03956 31.4218 5.90476 31.3315 5.79126 31.2177C5.67777 31.1038 5.58781 30.9688 5.52652 30.8202C5.46522 30.6716 5.4338 30.5124 5.43404 30.3516V16.5312V16.5312Z" fill="white"/>
</g>
<defs>
<clipPath id="clip0_2848_14603">
<rect width="36" height="36" fill="white"/>
</clipPath>
</defs>
</svg>
