<svg width="37" height="36" viewBox="0 0 37 36" fill="none" xmlns="http://www.w3.org/2000/svg">
<path d="M10.625 7.875C6.9125 7.875 3.875 10.9125 3.875 14.625C3.875 16.857 4.97412 18.8437 6.65262 20.0745C3.686 21.546 1.625 24.597 1.625 28.125H3.875C3.875 24.3855 6.8855 21.375 10.625 21.375C14.3645 21.375 17.375 24.3855 17.375 28.125H19.625C19.625 24.3855 22.6355 21.375 26.375 21.375C30.1145 21.375 33.125 24.3855 33.125 28.125H35.375C35.375 24.5959 33.314 21.546 30.3474 20.0745C31.2063 19.4486 31.9055 18.6289 32.3881 17.682C32.8708 16.7352 33.1232 15.6878 33.125 14.625C33.125 10.9125 30.0875 7.875 26.375 7.875C22.6625 7.875 19.625 10.9125 19.625 14.625C19.625 16.857 20.7241 18.8437 22.4026 20.0745C20.7589 20.8826 19.3984 22.1695 18.5 23.7656C17.6016 22.1695 16.2411 20.8826 14.5974 20.0745C15.4563 19.4486 16.1555 18.6289 16.6381 17.682C17.1208 16.7352 17.3732 15.6878 17.375 14.625C17.375 10.9125 14.3375 7.875 10.625 7.875ZM10.625 10.125C13.1259 10.125 15.125 12.1241 15.125 14.625C15.125 17.1259 13.1259 19.125 10.625 19.125C8.12412 19.125 6.125 17.1259 6.125 14.625C6.125 12.1241 8.12412 10.125 10.625 10.125ZM26.375 10.125C28.8759 10.125 30.875 12.1241 30.875 14.625C30.875 17.1259 28.8759 19.125 26.375 19.125C23.8741 19.125 21.875 17.1259 21.875 14.625C21.875 12.1241 23.8741 10.125 26.375 10.125Z" fill="white"/>
</svg>
