<svg width="36" height="36" viewBox="0 0 36 36" fill="none" xmlns="http://www.w3.org/2000/svg">
<path d="M33.1671 9.70181L21.9171 3.51431C21.751 3.42292 21.5645 3.375 21.3749 3.375C21.1853 3.375 20.9988 3.42292 20.8326 3.51431L9.58264 9.70181C9.40626 9.79892 9.25917 9.9416 9.15673 10.1149C9.05429 10.2883 9.00024 10.486 9.00024 10.6873C9.00024 10.8887 9.05429 11.0863 9.15673 11.2597C9.25917 11.433 9.40626 11.5757 9.58264 11.6728L20.2499 17.5397V29.5986L16.8344 27.7198L15.7499 29.6897L20.8326 32.4853C20.9987 32.5769 21.1853 32.6249 21.3749 32.6249C21.5645 32.6249 21.7511 32.5769 21.9171 32.4853L33.1671 26.2978C33.3436 26.2007 33.4908 26.0581 33.5933 25.8847C33.6958 25.7114 33.7499 25.5137 33.7499 25.3123V10.6873C33.7499 10.4859 33.6958 10.2882 33.5933 10.1149C33.4908 9.94153 33.3436 9.79888 33.1671 9.70181ZM21.3749 5.78456L30.2905 10.6873L21.3749 15.5901L12.4593 10.6873L21.3749 5.78456ZM31.4999 24.6474L22.4999 29.5974V17.5386L31.4999 12.5886V24.6474Z" fill="#455A64"/>
<path d="M11.25 18H2.25V15.75H11.25V18ZM13.5 27H4.5V24.75H13.5V27ZM15.75 22.5H6.75V20.25H15.75V22.5Z" fill="#455A64"/>
</svg>
