<svg width="18" height="18" viewBox="0 0 18 18" fill="none" xmlns="http://www.w3.org/2000/svg">
<path d="M12.75 3.75V4.5M12.75 12H6C5.80109 12 5.61032 11.921 5.46967 11.7803C5.32902 11.6397 5.25 11.4489 5.25 11.25V4.5C5.25 4.30109 5.32902 4.11032 5.46967 3.96967C5.61032 3.82902 5.80109 3.75 6 3.75H12.75V12ZM12.75 12H15C15.1989 12 15.3897 11.921 15.5303 11.7803C15.671 11.6397 15.75 11.4489 15.75 11.25V4.5C15.75 4.30109 15.671 4.11032 15.5303 3.96967C15.3897 3.82902 15.1989 3.75 15 3.75H12.75V12ZM12.75 12V11.25V12Z" stroke="url(#paint0_linear_2279_16932)" stroke-linecap="round" stroke-linejoin="round"/>
<path d="M12.75 9.00075V9M9.75 15H3C2.80109 15 2.61032 14.921 2.46967 14.7803C2.32902 14.6397 2.25 14.4489 2.25 14.25V7.5C2.25 7.30109 2.32902 7.11032 2.46967 6.96967C2.61032 6.82902 2.80109 6.75 3 6.75H5.25L9.75 15ZM9.75 15H12C12.1989 15 12.3897 14.921 12.5303 14.7803C12.671 14.6397 12.75 14.4489 12.75 14.25V12.375L9.75 15ZM9.75 15V14.25V15ZM12.75 6.75075V6.75V6.75075Z" stroke="url(#paint1_linear_2279_16932)" stroke-linecap="round" stroke-linejoin="round"/>
<defs>
<linearGradient id="paint0_linear_2279_16932" x1="10.5" y1="3.75" x2="10.5" y2="12" gradientUnits="userSpaceOnUse">
<stop stop-color="#D92322"/>
<stop offset="1" stop-color="#C00808"/>
</linearGradient>
<linearGradient id="paint1_linear_2279_16932" x1="7.5" y1="6.75" x2="7.5" y2="15" gradientUnits="userSpaceOnUse">
<stop stop-color="#D92322"/>
<stop offset="1" stop-color="#C00808"/>
</linearGradient>
</defs>
</svg>
