<svg width="20" height="20" viewBox="0 0 20 20" fill="none" xmlns="http://www.w3.org/2000/svg">
<path d="M10.0278 1.66797C13.9331 1.68332 17.0986 4.86961 17.0833 8.7699V8.84737C17.0305 11.6346 15.3548 13.9476 13.9587 15.3968C13.5613 15.8112 13.1384 16.2087 12.7023 16.58C12.441 16.8029 12.0488 16.7722 11.8257 16.5113C11.6025 16.2497 11.6339 15.8579 11.8952 15.6351C12.2991 15.2908 12.692 14.9211 13.0616 14.5359C14.3041 13.2468 15.7939 11.2086 15.8393 8.82471C15.8517 5.54999 13.243 2.92276 10.0226 2.9096H9.99995C6.79052 2.9096 4.17308 5.51126 4.16064 8.71875C4.21552 10.3031 4.75115 11.8093 5.71047 13.0729C6.83004 14.5637 8.52841 16.1422 10.1426 17.1931C10.4309 17.3802 10.5122 17.7646 10.3241 18.0525C10.2056 18.2352 10.0058 18.3346 9.80238 18.3346C9.68603 18.3346 9.56895 18.3025 9.46358 18.2338C7.7352 17.1091 5.91609 15.418 4.71676 13.8212C3.60378 12.3545 2.98107 10.6042 2.91667 8.76186C2.93204 4.82284 6.10707 1.66797 9.99995 1.66797H10.0278ZM9.99775 6.15414C11.4839 6.15414 12.6935 7.36143 12.6935 8.84642C12.6935 10.3307 11.4839 11.538 9.99775 11.538C8.51158 11.538 7.30201 10.3307 7.30201 8.84642C7.30201 8.50294 7.58081 8.22523 7.92399 8.22523C8.26718 8.22523 8.54598 8.50294 8.54598 8.84642C8.54598 9.64518 9.19723 10.2963 9.99775 10.2963C10.7983 10.2963 11.4495 9.64518 11.4495 8.84642C11.4495 8.04692 10.7983 7.39577 9.99775 7.39577C9.65457 7.39577 9.37577 7.11807 9.37577 6.77532C9.37577 6.43185 9.65457 6.15414 9.99775 6.15414Z" fill="#202020"/>
</svg>
