<svg width="25" height="21" viewBox="0 0 25 21" fill="none" xmlns="http://www.w3.org/2000/svg">
<path fill-rule="evenodd" clip-rule="evenodd" d="M24.3 5.00039C24.3 2.73602 22.4644 0.900391 20.2 0.900391H5C2.73563 0.900391 0.9 2.73602 0.9 5.00039V16.2004C0.9 18.4648 2.73563 20.3004 5 20.3004H20.2C22.4644 20.3004 24.3 18.4648 24.3 16.2004V5.00039ZM18.0034 11.9745L18.0964 11.8934C18.4204 11.6475 18.8768 11.6477 19.2024 11.9084L23.099 15.0294L23.1 16.2004C23.1 17.802 21.8016 19.1004 20.2 19.1004L5.575 19.0994L9.65643 15.0186L9.74255 14.9427C10.0718 14.6879 10.5406 14.6904 10.8684 14.9631L12.3601 16.2042L12.4644 16.2811C12.8946 16.5611 13.4703 16.5075 13.8414 16.1364L18.0034 11.9745ZM20.2 2.10039H5C3.39837 2.10039 2.1 3.39877 2.1 5.00039V16.2004C2.1 17.4658 2.9105 18.542 4.04071 18.938L8.8079 14.1701C9.53281 13.4452 10.6667 13.3549 11.4934 13.9319L11.6359 14.0407L13.0574 15.2234L12.9929 15.2879C13.0295 15.2513 13.0878 15.2487 13.1276 15.2817L13.0574 15.2234L17.1549 11.1259C17.8697 10.4111 18.9844 10.3121 19.8099 10.867L19.9525 10.9717L23.099 13.4914L23.1 5.00039C23.1 3.39877 21.8016 2.10039 20.2 2.10039ZM8.1 5.20039C9.59117 5.20039 10.8 6.40922 10.8 7.90039C10.8 9.39156 9.59117 10.6004 8.1 10.6004C6.60883 10.6004 5.4 9.39156 5.4 7.90039C5.4 6.40922 6.60883 5.20039 8.1 5.20039ZM6.6 7.90039C6.6 7.07196 7.27157 6.40039 8.1 6.40039C8.92843 6.40039 9.6 7.07196 9.6 7.90039C9.6 8.72882 8.92843 9.40039 8.1 9.40039C7.27157 9.40039 6.6 8.72882 6.6 7.90039Z" fill="url(#paint0_linear_96_3907)"/>
<defs>
<linearGradient id="paint0_linear_96_3907" x1="0.9" y1="0.900391" x2="25.6811" y2="2.86313" gradientUnits="userSpaceOnUse">
<stop stop-color="#D92322"/>
<stop offset="1" stop-color="#7C142F"/>
</linearGradient>
</defs>
</svg>
