<svg width="13" height="13" viewBox="0 0 13 13" fill="none" xmlns="http://www.w3.org/2000/svg">
<path d="M7.14175 12.6748H6.29824C6.26028 12.6672 6.22296 12.6574 6.18501 12.652C5.98828 12.6248 5.78935 12.6094 5.59483 12.5708C4.52708 12.3599 3.56654 11.9169 2.73062 11.2166C1.66507 10.3227 1.01417 9.18537 0.769688 7.81628C0.729205 7.58673 0.706433 7.35433 0.674805 7.1232V6.23313C0.684522 6.19589 0.691916 6.15809 0.696944 6.11994C0.744461 5.43093 0.915887 4.75614 1.20299 4.12796C1.76976 2.9002 2.68033 2.00287 3.87238 1.38978C5.21087 0.700176 6.62084 0.494022 8.09343 0.838666C9.90033 1.26172 11.2034 2.33802 12.0327 3.98441C12.547 5.00569 12.7687 6.0959 12.638 7.23766C12.5134 8.37929 12.0893 9.46775 11.4087 10.3929C10.4829 11.6576 9.23109 12.3814 7.68417 12.6046C7.50389 12.6305 7.32266 12.6514 7.14175 12.6748ZM3.38215 6.88131H1.07964C0.999623 7.80237 1.68215 9.59135 2.3593 10.2414C2.37189 10.2338 2.38384 10.2251 2.39504 10.2155C2.76122 9.84125 3.17611 9.51794 3.62853 9.2543C3.70127 9.21193 3.6823 9.16165 3.6687 9.10664C3.53411 8.56182 3.44942 8.00588 3.41567 7.44571C3.40271 7.25979 3.3948 7.07387 3.38215 6.88131ZM2.34096 3.12976C1.64768 3.85224 0.978116 5.61815 1.08217 6.4747H3.385C3.39227 6.3106 3.3967 6.15503 3.40619 6.00042C3.4401 5.4011 3.5301 4.80629 3.67502 4.22376C3.69147 4.15863 3.67028 4.12701 3.61398 4.09507C3.49726 4.03223 3.38531 3.96089 3.27904 3.88165C2.96624 3.63692 2.65914 3.38555 2.34096 3.12976ZM12.2784 6.47849C12.2168 5.20805 11.7952 4.0897 10.9972 3.11173C10.985 3.11674 10.9734 3.12288 10.9624 3.13007C10.5945 3.50817 10.1775 3.83518 9.72259 4.10235C9.65933 4.13997 9.66344 4.18361 9.67704 4.23894C9.8495 4.93174 9.94225 5.64197 9.95347 6.35581C9.95505 6.45762 9.9851 6.48734 10.0879 6.4864C10.7748 6.48165 11.4621 6.48418 12.1494 6.48387C12.1873 6.48387 12.2256 6.4807 12.2784 6.47849ZM10.9959 10.2474C11.7952 9.26315 12.219 8.14543 12.2775 6.87214H12.151C11.4637 6.87214 10.7764 6.87499 10.0895 6.8693C9.97687 6.8693 9.95347 6.90724 9.95189 7.00874C9.94005 7.71868 9.84731 8.42496 9.67546 9.11391C9.65775 9.18505 9.67546 9.22204 9.73872 9.26473C9.99712 9.43927 10.2552 9.61475 10.5019 9.80509C10.6746 9.93916 10.8273 10.095 10.9959 10.2474ZM6.47314 1.09098C6.17025 1.12735 5.88362 1.24784 5.64575 1.43879C4.8209 2.07622 4.44769 2.98557 4.13869 3.94172C4.8639 4.3095 5.66048 4.51514 6.47314 4.54438V1.09098ZM6.87386 12.2647C7.17584 12.2291 7.4617 12.1092 7.69872 11.9188C8.52357 11.2814 8.89678 10.372 9.20642 9.41523C8.48177 9.04776 7.68588 8.84213 6.87386 8.81258V12.2647ZM4.14059 9.41397C4.3566 10.1298 4.63588 10.7982 5.09448 11.3788C5.39716 11.7617 5.75455 12.0744 6.23308 12.2179C6.30836 12.2407 6.38743 12.2495 6.46713 12.2672V8.81227C5.65789 8.84413 4.86493 9.04932 4.14185 9.41397H4.14059ZM9.19883 3.94552C9.05271 3.35456 8.70828 2.60141 8.36575 2.12934C8.10735 1.77078 7.80625 1.45839 7.40711 1.25508C7.24138 1.17066 7.06838 1.10584 6.87576 1.0932V4.54406C7.68402 4.5129 8.47619 4.3088 9.19883 3.94552ZM3.77908 6.47501C3.80384 6.47982 3.82887 6.48309 3.85404 6.48482C4.69692 6.48482 5.5398 6.48482 6.38427 6.48703C6.47725 6.48703 6.48168 6.44245 6.48136 6.37194C6.47947 5.94255 6.47535 5.51349 6.48358 5.08442C6.48579 4.96143 6.44815 4.92633 6.32923 4.92222C5.72903 4.89455 5.13719 4.7705 4.57642 4.55481C4.39993 4.48778 4.2263 4.41284 4.04191 4.33759C3.87587 5.03779 3.78773 5.75419 3.77908 6.47375V6.47501ZM4.05013 9.02569C4.80921 8.65861 5.63619 8.45286 6.47883 8.42146V8.29973C6.47883 7.86687 6.47535 7.43369 6.48136 7.00083C6.48136 6.89681 6.45353 6.86993 6.35042 6.87025C5.53474 6.87467 4.71937 6.87278 3.90369 6.87309C3.86574 6.87309 3.82779 6.87657 3.79141 6.87815C3.7386 7.19307 3.90654 8.59188 4.05013 9.02443V9.02569ZM9.55812 6.48545C9.59987 6.08041 9.42592 4.67591 9.29561 4.34328C9.28486 4.34398 9.27424 4.34599 9.26398 4.34929C8.54178 4.6953 7.75711 4.89189 6.95705 4.92728C6.87513 4.93044 6.86532 4.97154 6.86564 5.03952C6.86754 5.47649 6.87007 5.91347 6.86564 6.35044C6.86406 6.45636 6.89189 6.48861 7.00101 6.48798C7.81258 6.48323 8.62447 6.48545 9.43635 6.48545H9.55812ZM9.56002 6.88384C9.54663 6.87957 9.53286 6.8766 9.5189 6.87499C8.66495 6.87499 7.811 6.87499 6.95515 6.87214C6.86501 6.87214 6.86659 6.92052 6.86659 6.98376C6.86659 7.41662 6.87292 7.84979 6.86374 8.28265C6.86121 8.40692 6.90518 8.43189 7.01524 8.43569C7.53752 8.45606 8.054 8.55278 8.54824 8.72279C8.80127 8.80816 9.04733 8.91439 9.29656 9.01115C9.4218 8.70603 9.59702 7.30532 9.56002 6.88258V6.88384ZM9.54705 9.60495C9.24374 10.544 8.83574 11.4031 8.11747 12.0851C9.13209 11.817 9.99617 11.3032 10.729 10.5481C10.3807 10.1801 9.98288 9.86226 9.54705 9.60368V9.60495ZM3.79869 3.75138C4.10168 2.81641 4.50842 1.95386 5.2308 1.27184C4.21712 1.5387 3.35052 2.05314 2.61739 2.81009C2.96566 3.17702 3.36323 3.49381 3.79869 3.75138ZM8.1181 1.27153C8.83827 1.95449 9.24406 2.81705 9.548 3.75075C9.98296 3.49172 10.3802 3.17414 10.7287 2.80693C9.99522 2.05314 9.13083 1.53934 8.1181 1.27153ZM3.80312 9.62297C3.59026 9.68621 2.80779 10.3002 2.62498 10.5592C3.35242 11.3048 4.21618 11.8189 5.22669 12.0857C4.50747 11.4022 4.10263 10.5418 3.80312 9.62297Z" fill="#455A64"/>
</svg>
