<svg width="18" height="18" viewBox="0 0 18 18" fill="none" xmlns="http://www.w3.org/2000/svg">
<path d="M1.875 15.1875H3.5625C3.5625 14.7399 3.38471 14.3107 3.06824 13.9943C2.75178 13.6778 2.32255 13.5 1.875 13.5V15.1875ZM5.8125 15.1875H4.6875C4.68661 14.4419 4.39 13.727 3.86275 13.1997C3.3355 12.6725 2.62065 12.3759 1.875 12.375V11.25C2.91892 11.2512 3.91975 11.6664 4.65792 12.4046C5.39608 13.1427 5.81131 14.1436 5.8125 15.1875Z" fill="url(#paint0_linear_2279_16990)"/>
<path d="M8.0625 15.1875H6.9375C6.93601 13.8453 6.40216 12.5585 5.45308 11.6094C4.504 10.6603 3.2172 10.1265 1.875 10.125V9C3.51548 9.00179 5.08826 9.65426 6.24825 10.8143C7.40824 11.9742 8.06071 13.547 8.0625 15.1875Z" fill="url(#paint1_linear_2279_16990)"/>
<path d="M14.4107 16.875H8.14286V15.525H14.4107V4.725H2.83929V8.1H1.875V4.725C1.87526 4.36707 1.97693 4.0239 2.15771 3.7708C2.3385 3.5177 2.58362 3.37536 2.83929 3.375H14.4107C14.6664 3.37536 14.9115 3.5177 15.0923 3.7708C15.2731 4.0239 15.3747 4.36707 15.375 4.725V15.525C15.3747 15.8829 15.2731 16.2261 15.0923 16.4792C14.9115 16.7323 14.6664 16.8746 14.4107 16.875Z" fill="url(#paint2_linear_2279_16990)"/>
<defs>
<linearGradient id="paint0_linear_2279_16990" x1="3.84375" y1="11.25" x2="3.84375" y2="15.1875" gradientUnits="userSpaceOnUse">
<stop stop-color="#D92322"/>
<stop offset="1" stop-color="#C00808"/>
</linearGradient>
<linearGradient id="paint1_linear_2279_16990" x1="4.96875" y1="9" x2="4.96875" y2="15.1875" gradientUnits="userSpaceOnUse">
<stop stop-color="#D92322"/>
<stop offset="1" stop-color="#C00808"/>
</linearGradient>
<linearGradient id="paint2_linear_2279_16990" x1="8.625" y1="3.375" x2="8.625" y2="16.875" gradientUnits="userSpaceOnUse">
<stop stop-color="#D92322"/>
<stop offset="1" stop-color="#C00808"/>
</linearGradient>
</defs>
</svg>
