<svg width="23" height="19" viewBox="0 0 23 19" fill="none" xmlns="http://www.w3.org/2000/svg">
<path d="M0.200195 0.599609H19.4002V2.99961H0.200195V0.599609ZM0.200195 7.79961H13.4002V10.1996H0.200195V7.79961ZM0.200195 14.9996H8.6002V17.3996H0.200195V14.9996ZM21.5602 11.2796L22.7602 9.95961C22.8783 9.8276 22.9435 9.65671 22.9435 9.47961C22.9435 9.30251 22.8783 9.13161 22.7602 8.99961L20.6002 6.83961C20.4682 6.72154 20.2973 6.65627 20.1202 6.65627C19.9431 6.65627 19.7722 6.72154 19.6402 6.83961L18.4402 8.03961L21.5602 11.2796ZM17.6002 8.87961L11.0002 15.3596V18.5996H14.1202L20.8402 11.9996L17.6002 8.75961V8.87961Z" fill="#5D067B"/>
</svg>
