<svg width="21" height="21" viewBox="0 0 21 21" fill="none" xmlns="http://www.w3.org/2000/svg">
<path d="M4.50004 12.9997C5.37469 12.9971 6.21626 12.6651 6.85704 12.0697L13.117 15.6467C12.9073 16.4663 12.9998 17.3341 13.3775 18.0911C13.7552 18.8481 14.393 19.4437 15.174 19.7689C15.955 20.0941 16.827 20.1272 17.6304 19.862C18.4338 19.5969 19.1148 19.0512 19.5488 18.325C19.9827 17.5987 20.1406 16.7405 19.9935 15.9074C19.8464 15.0742 19.4042 14.322 18.7478 13.7882C18.0914 13.2545 17.2647 12.9751 16.419 13.0011C15.5734 13.027 14.7655 13.3567 14.143 13.9297L7.88304 10.3527C7.94904 10.1027 7.98504 9.84372 7.99104 9.58472L14.141 6.06972C14.7332 6.60849 15.4927 6.92722 16.292 6.97244C17.0913 7.01765 17.8818 6.78659 18.531 6.31804C19.1802 5.84948 19.6484 5.17192 19.8572 4.39904C20.0661 3.62616 20.0027 2.80498 19.6779 2.07325C19.353 1.34153 18.7864 0.743793 18.0731 0.380316C17.3597 0.0168389 16.5431 -0.0902617 15.7602 0.0769818C14.9772 0.244225 14.2756 0.675638 13.7731 1.29884C13.2705 1.92205 12.9976 2.69913 13 3.49972C13.004 3.78772 13.043 4.07472 13.117 4.35272L7.43304 7.59972C7.10341 7.08978 6.6468 6.67437 6.10805 6.39429C5.56931 6.11422 4.96697 5.97912 4.36021 6.00227C3.75346 6.02542 3.16316 6.20602 2.64732 6.52633C2.13148 6.84664 1.70785 7.29564 1.41804 7.82921C1.12823 8.36279 0.98222 8.96257 0.994351 9.56965C1.00648 10.1767 1.17634 10.7702 1.48723 11.2918C1.79812 11.8133 2.23936 12.2451 2.76758 12.5445C3.2958 12.844 3.89284 13.0008 4.50004 12.9997Z" fill="white"/>
</svg>
