<svg width="99" height="98" viewBox="0 0 99 98" fill="none" xmlns="http://www.w3.org/2000/svg">
<rect x="1" y="0.5" width="97" height="97" rx="7.5" fill="#F7F9FC"/>
<path d="M51 36V29H49V36H42V38H49V45H51V38H58V36H51Z" fill="url(#paint0_linear_55_884)"/>
<path d="M19.1506 75H17.858L21.5966 64.8182H22.8693L26.608 75H25.3153L22.2727 66.429H22.1932L19.1506 75ZM19.6278 71.0227H24.8381V72.1165H19.6278V71.0227ZM30.9183 75.1591C30.282 75.1591 29.7202 74.9983 29.233 74.6768C28.7457 74.352 28.3646 73.8946 28.0895 73.3047C27.8144 72.7114 27.6768 72.0104 27.6768 71.2017C27.6768 70.3996 27.8144 69.7036 28.0895 69.1136C28.3646 68.5237 28.7474 68.0679 29.2379 67.7464C29.7285 67.425 30.2952 67.2642 30.9382 67.2642C31.4354 67.2642 31.8281 67.3471 32.1165 67.5128C32.4081 67.6752 32.6302 67.8608 32.7827 68.0696C32.9384 68.2751 33.0594 68.4441 33.1456 68.5767H33.245V64.8182H34.4183V75H33.2848V73.8267H33.1456C33.0594 73.9659 32.9368 74.1416 32.7777 74.3537C32.6186 74.5625 32.3916 74.7498 32.0966 74.9155C31.8016 75.0779 31.4089 75.1591 30.9183 75.1591ZM31.0774 74.1051C31.5481 74.1051 31.9458 73.9825 32.2706 73.7372C32.5954 73.4886 32.8423 73.1456 33.0114 72.7081C33.1804 72.2673 33.2649 71.7585 33.2649 71.1818C33.2649 70.6117 33.1821 70.1129 33.0163 69.6854C32.8506 69.2545 32.6054 68.9197 32.2805 68.6811C31.9557 68.4392 31.5547 68.3182 31.0774 68.3182C30.5803 68.3182 30.166 68.4458 29.8345 68.701C29.5064 68.9529 29.2595 69.2959 29.0938 69.7301C28.9313 70.161 28.8501 70.6449 28.8501 71.1818C28.8501 71.7254 28.933 72.2192 29.0987 72.6634C29.2678 73.1042 29.5163 73.4555 29.8445 73.7173C30.1759 73.9759 30.5869 74.1051 31.0774 74.1051ZM39.6136 75.1591C38.9773 75.1591 38.4155 74.9983 37.9283 74.6768C37.4411 74.352 37.0599 73.8946 36.7848 73.3047C36.5097 72.7114 36.3722 72.0104 36.3722 71.2017C36.3722 70.3996 36.5097 69.7036 36.7848 69.1136C37.0599 68.5237 37.4427 68.0679 37.9332 67.7464C38.4238 67.425 38.9905 67.2642 39.6335 67.2642C40.1307 67.2642 40.5234 67.3471 40.8118 67.5128C41.1035 67.6752 41.3255 67.8608 41.478 68.0696C41.6338 68.2751 41.7547 68.4441 41.8409 68.5767H41.9403V64.8182H43.1136V75H41.9801V73.8267H41.8409C41.7547 73.9659 41.6321 74.1416 41.473 74.3537C41.3139 74.5625 41.0869 74.7498 40.7919 74.9155C40.4969 75.0779 40.1042 75.1591 39.6136 75.1591ZM39.7727 74.1051C40.2434 74.1051 40.6411 73.9825 40.9659 73.7372C41.2907 73.4886 41.5376 73.1456 41.7067 72.7081C41.8757 72.2673 41.9602 71.7585 41.9602 71.1818C41.9602 70.6117 41.8774 70.1129 41.7116 69.6854C41.5459 69.2545 41.3007 68.9197 40.9759 68.6811C40.651 68.4392 40.25 68.3182 39.7727 68.3182C39.2756 68.3182 38.8613 68.4458 38.5298 68.701C38.2017 68.9529 37.9548 69.2959 37.7891 69.7301C37.6267 70.161 37.5455 70.6449 37.5455 71.1818C37.5455 71.7254 37.6283 72.2192 37.794 72.6634C37.9631 73.1042 38.2116 73.4555 38.5398 73.7173C38.8712 73.9759 39.2822 74.1051 39.7727 74.1051ZM49.522 64.8182H50.9936L54.4538 73.2699H54.5732L58.0334 64.8182H59.505V75H58.3516V67.2642H58.2521L55.0703 75H53.9567L50.7749 67.2642H50.6754V75H49.522V64.8182ZM64.9203 75.1591C64.2309 75.1591 63.626 74.995 63.1056 74.6669C62.5886 74.3388 62.1842 73.8797 61.8926 73.2898C61.6042 72.6998 61.46 72.0104 61.46 71.2216C61.46 70.4261 61.6042 69.7318 61.8926 69.1385C62.1842 68.5452 62.5886 68.0845 63.1056 67.7564C63.626 67.4283 64.2309 67.2642 64.9203 67.2642C65.6097 67.2642 66.2129 67.4283 66.7299 67.7564C67.2503 68.0845 67.6547 68.5452 67.943 69.1385C68.2347 69.7318 68.3805 70.4261 68.3805 71.2216C68.3805 72.0104 68.2347 72.6998 67.943 73.2898C67.6547 73.8797 67.2503 74.3388 66.7299 74.6669C66.2129 74.995 65.6097 75.1591 64.9203 75.1591ZM64.9203 74.1051C65.444 74.1051 65.8748 73.9709 66.2129 73.7024C66.551 73.4339 66.8012 73.081 66.9636 72.6435C67.126 72.206 67.2072 71.732 67.2072 71.2216C67.2072 70.7112 67.126 70.2356 66.9636 69.7947C66.8012 69.3539 66.551 68.9976 66.2129 68.7259C65.8748 68.4541 65.444 68.3182 64.9203 68.3182C64.3966 68.3182 63.9657 68.4541 63.6277 68.7259C63.2896 68.9976 63.0394 69.3539 62.877 69.7947C62.7145 70.2356 62.6333 70.7112 62.6333 71.2216C62.6333 71.732 62.7145 72.206 62.877 72.6435C63.0394 73.081 63.2896 73.4339 63.6277 73.7024C63.9657 73.9709 64.3966 74.1051 64.9203 74.1051ZM70.1715 75V67.3636H71.305V68.517H71.3846C71.5238 68.1392 71.7757 67.8326 72.1403 67.5973C72.5049 67.362 72.9158 67.2443 73.3732 67.2443C73.4594 67.2443 73.5671 67.246 73.6964 67.2493C73.8256 67.2526 73.9234 67.2576 73.9897 67.2642V68.4574C73.9499 68.4474 73.8588 68.4325 73.7163 68.4126C73.5771 68.3894 73.4296 68.3778 73.2738 68.3778C72.9026 68.3778 72.5711 68.4557 72.2795 68.6115C71.9911 68.764 71.7624 68.9761 71.5934 69.2479C71.4277 69.5163 71.3448 69.8229 71.3448 70.1676V75H70.1715ZM78.3498 75.1591C77.614 75.1591 76.9793 74.9967 76.4457 74.6719C75.9154 74.3438 75.506 73.8864 75.2177 73.2997C74.9326 72.7098 74.7901 72.0237 74.7901 71.2415C74.7901 70.4593 74.9326 69.7699 75.2177 69.1733C75.506 68.5734 75.9071 68.1061 76.4208 67.7713C76.9379 67.4332 77.5411 67.2642 78.2305 67.2642C78.6282 67.2642 79.021 67.3305 79.4087 67.4631C79.7965 67.5956 80.1495 67.8111 80.4677 68.1094C80.7859 68.4044 81.0394 68.7955 81.2283 69.2827C81.4173 69.7699 81.5117 70.3698 81.5117 71.0824V71.5795H75.6254V70.5653H80.3185C80.3185 70.1345 80.2324 69.75 80.06 69.4119C79.891 69.0739 79.649 68.8071 79.3342 68.6115C79.0226 68.416 78.6547 68.3182 78.2305 68.3182C77.7631 68.3182 77.3588 68.4342 77.0174 68.6662C76.6793 68.8949 76.4192 69.1932 76.2369 69.5611C76.0546 69.929 75.9634 70.3234 75.9634 70.7443V71.4205C75.9634 71.9972 76.0629 72.486 76.2617 72.8871C76.4639 73.2848 76.744 73.5881 77.1019 73.7969C77.4599 74.0024 77.8758 74.1051 78.3498 74.1051C78.658 74.1051 78.9364 74.062 79.185 73.9759C79.4369 73.8864 79.654 73.7538 79.8363 73.5781C80.0186 73.3991 80.1594 73.1771 80.2589 72.9119L81.3924 73.2301C81.2731 73.6146 81.0726 73.9527 80.7908 74.2443C80.5091 74.5327 80.1611 74.758 79.7468 74.9205C79.3325 75.0795 78.8668 75.1591 78.3498 75.1591Z" fill="url(#paint1_linear_55_884)"/>
<rect x="1" y="0.5" width="97" height="97" rx="7.5" stroke="url(#paint2_linear_55_884)" stroke-dasharray="10 10"/>
<defs>
<linearGradient id="paint0_linear_55_884" x1="42" y1="29" x2="58.9774" y2="30.1148" gradientUnits="userSpaceOnUse">
<stop stop-color="#D92322"/>
<stop offset="1" stop-color="#7C142F"/>
</linearGradient>
<linearGradient id="paint1_linear_55_884" x1="17.5" y1="61" x2="82.6607" y2="77.3598" gradientUnits="userSpaceOnUse">
<stop stop-color="#D92322"/>
<stop offset="1" stop-color="#7C142F"/>
</linearGradient>
<linearGradient id="paint2_linear_55_884" x1="0.5" y1="0" x2="104.487" y2="6.82819" gradientUnits="userSpaceOnUse">
<stop stop-color="#D92322"/>
<stop offset="1" stop-color="#7C142F"/>
</linearGradient>
</defs>
</svg>
