<svg width="16" height="16" viewBox="0 0 16 16" fill="none" xmlns="http://www.w3.org/2000/svg">
<circle cx="8" cy="8" r="7.5" fill="#3496E0" stroke="white"/>
<path d="M5.33366 10.9998H5.66699V6.6665H5.33366C5.15685 6.6665 4.98728 6.73674 4.86225 6.86177C4.73723 6.98679 4.66699 7.15636 4.66699 7.33317V10.3332C4.66699 10.51 4.73723 10.6796 4.86225 10.8046C4.98728 10.9296 5.15685 10.9998 5.33366 10.9998ZM10.667 6.6665H8.33366L8.70766 5.54384C8.74103 5.44364 8.75012 5.33695 8.73418 5.23256C8.71824 5.12816 8.67773 5.02904 8.61598 4.94337C8.55424 4.8577 8.47302 4.78792 8.37902 4.73978C8.28502 4.69165 8.18093 4.66653 8.07533 4.6665H8.00033L6.33366 6.47917V10.9998H10.0003L11.3043 8.1345L11.3337 7.99984V7.33317C11.3337 7.15636 11.2634 6.98679 11.1384 6.86177C11.0134 6.73674 10.8438 6.6665 10.667 6.6665Z" fill="white"/>
</svg>
