<svg width="24" height="24" viewBox="0 0 24 24" fill="none" xmlns="http://www.w3.org/2000/svg">
<path d="M3.875 12C4.04076 12 4.19973 12.0702 4.31694 12.1953C4.43415 12.3203 4.5 12.4899 4.5 12.6667V20.6667H19.5V12.6667C19.5 12.4899 19.5658 12.3203 19.6831 12.1953C19.8003 12.0702 19.9592 12 20.125 12C20.2908 12 20.4497 12.0702 20.5669 12.1953C20.6842 12.3203 20.75 12.4899 20.75 12.6667V20.6667H21.375C21.5408 20.6667 21.6997 20.7369 21.8169 20.8619C21.9342 20.987 22 21.1565 22 21.3333C22 21.5101 21.9342 21.6797 21.8169 21.8047C21.6997 21.9298 21.5408 22 21.375 22H2.625C2.45924 22 2.30027 21.9298 2.18306 21.8047C2.06585 21.6797 2 21.5101 2 21.3333C2 21.1565 2.06585 20.987 2.18306 20.8619C2.30027 20.7369 2.45924 20.6667 2.625 20.6667H3.25V12.6667C3.25 12.4899 3.31585 12.3203 3.43306 12.1953C3.55027 12.0702 3.70924 12 3.875 12ZM6.375 12.6667C6.54076 12.6667 6.69973 12.7369 6.81694 12.8619C6.93415 12.987 7 13.1565 7 13.3333L6.375 12.6667L17.6594 12.6677L17 13.3333C17 13.1565 17.0658 12.987 17.1831 12.8619C17.3003 12.7369 17.4592 12.6667 17.625 12.6667C17.7908 12.6667 17.9497 12.7369 18.0669 12.8619C18.1842 12.987 18.25 13.1565 18.25 13.3333V18C18.25 18.3536 18.1183 18.6928 17.8839 18.9428C17.6495 19.1929 17.3315 19.3333 17 19.3333H7C6.66848 19.3333 6.35054 19.1929 6.11612 18.9428C5.8817 18.6928 5.75 18.3536 5.75 18V13.3333C5.75 13.1565 5.81585 12.987 5.93306 12.8619C6.05027 12.7369 6.20924 12.6667 6.375 12.6667Z" fill="url(#paint0_linear_2362_13616)"/>
<path d="M5.7125 2.46665C5.82986 2.32029 5.97555 2.20279 6.13954 2.12223C6.30354 2.04167 6.48195 1.99997 6.6625 1.99998H17.3375C17.5181 1.99997 17.6965 2.04167 17.8605 2.12223C18.0245 2.20279 18.1701 2.32029 18.2875 2.46665L21.5487 6.52531C21.8399 6.88776 22 7.34933 22 7.82665V8.16665C22.0001 8.82661 21.8068 9.47011 21.4473 10.0072C21.0877 10.5443 20.5798 10.9481 19.9946 11.1623C19.4094 11.3765 18.776 11.3902 18.1831 11.2017C17.5901 11.0131 17.0673 10.6317 16.6875 10.1106C16.4102 10.4917 16.0548 10.7999 15.6485 11.0119C15.2423 11.2238 14.796 11.3338 14.3438 11.3333C13.8915 11.3339 13.4452 11.2239 13.0389 11.012C12.6326 10.8001 12.2773 10.4917 12 10.1106C11.7227 10.4917 11.3674 10.8001 10.9611 11.012C10.5548 11.2239 10.1085 11.3339 9.65625 11.3333C9.20401 11.3339 8.75765 11.2239 8.3514 11.012C7.94514 10.8001 7.58976 10.4917 7.3125 10.1106C6.93274 10.6317 6.40985 11.0131 5.81692 11.2017C5.22399 11.3902 4.59065 11.3765 4.00541 11.1623C3.42017 10.9481 2.91228 10.5443 2.55273 10.0072C2.19318 9.47011 1.99993 8.82661 2 8.16665V7.82665C2.00002 7.34933 2.16007 6.88776 2.45125 6.52531L5.71375 2.46531L5.7125 2.46665ZM7.9375 8.16665C7.9375 8.65288 8.11858 9.11919 8.44091 9.46301C8.76324 9.80683 9.20041 9.99998 9.65625 9.99998C10.1121 9.99998 10.5493 9.80683 10.8716 9.46301C11.1939 9.11919 11.375 8.65288 11.375 8.16665C11.375 7.98983 11.4408 7.82027 11.5581 7.69524C11.6753 7.57022 11.8342 7.49998 12 7.49998C12.1658 7.49998 12.3247 7.57022 12.4419 7.69524C12.5592 7.82027 12.625 7.98983 12.625 8.16665C12.625 8.65288 12.8061 9.11919 13.1284 9.46301C13.4507 9.80683 13.8879 9.99998 14.3438 9.99998C14.7996 9.99998 15.2368 9.80683 15.5591 9.46301C15.8814 9.11919 16.0625 8.65288 16.0625 8.16665C16.0625 7.98983 16.1283 7.82027 16.2456 7.69524C16.3628 7.57022 16.5217 7.49998 16.6875 7.49998C16.8533 7.49998 17.0122 7.57022 17.1294 7.69524C17.2467 7.82027 17.3125 7.98983 17.3125 8.16665C17.3125 8.65288 17.4936 9.11919 17.8159 9.46301C18.1382 9.80683 18.5754 9.99998 19.0312 9.99998C19.4871 9.99998 19.6723 9.91018 19.9946 9.56636C19.6993 9.10333 19.9946 9.48621 19.9946 8.99998V8.65998C19.9946 8.50108 20.0481 8.62074 19.9513 8.49998L21.0716 8.65998L19.5 10.5L16.6875 9.22146L15 10.5L12 9.49998L9.5 10.5L7.5 9.49998L5.5 10.5L3.5 9.49998C3.40318 9.62074 3.7534 9.06256 3.75341 9.22146L4 9.49998C4 9 4 9.98621 4 9.49998C4.32233 9.8438 4.54416 9.49998 5 9.49998C5.45584 9.49998 5.86176 9.80683 6.18409 9.46301C6.50642 9.11919 6.6875 8.65288 6.6875 8.16665C6.6875 7.98983 6.75335 7.82027 6.87056 7.69524C6.98777 7.57022 7.14674 7.49998 7.3125 7.49998C7.47826 7.49998 7.63723 7.57022 7.75444 7.69524C7.87165 7.82027 7.9375 7.98983 7.9375 8.16665Z" fill="url(#paint1_linear_2362_13616)"/>
<defs>
<linearGradient id="paint0_linear_2362_13616" x1="2" y1="12" x2="22.9519" y2="14.7516" gradientUnits="userSpaceOnUse">
<stop stop-color="#D92322"/>
<stop offset="1" stop-color="#7C142F"/>
</linearGradient>
<linearGradient id="paint1_linear_2362_13616" x1="2" y1="2" x2="22.8995" y2="4.94063" gradientUnits="userSpaceOnUse">
<stop stop-color="#D92322"/>
<stop offset="1" stop-color="#7C142F"/>
</linearGradient>
</defs>
</svg>
