<svg width="44" height="44" viewBox="0 0 44 44" fill="none" xmlns="http://www.w3.org/2000/svg">
<path d="M19.31 16.7098C19.2173 16.8023 19.1438 16.9122 19.0936 17.0332C19.0434 17.1541 19.0176 17.2838 19.0176 17.4148C19.0176 17.5457 19.0434 17.6754 19.0936 17.7964C19.1438 17.9174 19.2173 18.0273 19.31 18.1198L23.19 21.9998L19.31 25.8798C19.123 26.0668 19.018 26.3204 19.018 26.5848C19.018 26.8492 19.123 27.1028 19.31 27.2898C19.497 27.4768 19.7506 27.5818 20.015 27.5818C20.2794 27.5818 20.533 27.4768 20.72 27.2898L25.31 22.6998C25.4027 22.6073 25.4763 22.4974 25.5265 22.3764C25.5766 22.2554 25.6025 22.1257 25.6025 21.9948C25.6025 21.8638 25.5766 21.7341 25.5265 21.6132C25.4763 21.4922 25.4027 21.3823 25.31 21.2898L20.72 16.6998C20.34 16.3198 19.7 16.3198 19.31 16.7098Z" fill="white"/>
<rect x="0.5" y="0.5" width="43" height="43" rx="9.5" stroke="white"/>
</svg>
