<svg width="24" height="25" viewBox="0 0 24 25" fill="none" xmlns="http://www.w3.org/2000/svg">
<rect y="0.91748" width="24" height="24" rx="8" fill="url(#paint0_linear_2211_16205)"/>
<path fill-rule="evenodd" clip-rule="evenodd" d="M18.8691 9.17616C18.8691 9.52484 18.732 9.85237 18.4963 10.0802L11.0017 17.3403C10.7384 17.581 10.3942 17.7194 10.0485 17.7194C9.69937 17.7194 9.35804 17.5787 9.11524 17.344L5.35795 13.7121C5.12226 13.4843 4.98511 13.1567 4.98511 12.8081C4.98511 12.4781 5.12452 12.1609 5.37415 11.9042C5.63019 11.6718 5.95712 11.5422 6.31479 11.5286C6.66362 11.5304 6.98766 11.6574 7.24452 11.8923L10.0485 14.6027L16.6097 8.2604C16.8666 8.02552 17.1906 7.89852 17.5394 7.89673C17.8995 7.91039 18.2254 8.04149 18.4802 8.28772C18.7261 8.52545 18.8691 8.84153 18.8691 9.17616Z" fill="white"/>
<defs>
<linearGradient id="paint0_linear_2211_16205" x1="0" y1="0.91748" x2="25.4661" y2="2.58969" gradientUnits="userSpaceOnUse">
<stop stop-color="#D92322"/>
<stop offset="1" stop-color="#7C142F"/>
</linearGradient>
</defs>
</svg>
