<svg width="92" height="77" viewBox="0 0 92 77" fill="none" xmlns="http://www.w3.org/2000/svg">
<rect x="0.5" y="0.5" width="91" height="76" rx="7.5" fill="#F7F9FC"/>
<path d="M50.5 25V18H48.5V25H41.5V27H48.5V34H50.5V27H57.5V25H50.5Z" fill="url(#paint0_linear_2284_18313)"/>
<path d="M18.6506 64H17.358L21.0966 53.8182H22.3693L26.108 64H24.8153L21.7727 55.429H21.6932L18.6506 64ZM19.1278 60.0227H24.3381V61.1165H19.1278V60.0227ZM30.4183 64.1591C29.782 64.1591 29.2202 63.9983 28.733 63.6768C28.2457 63.352 27.8646 62.8946 27.5895 62.3047C27.3144 61.7114 27.1768 61.0104 27.1768 60.2017C27.1768 59.3996 27.3144 58.7036 27.5895 58.1136C27.8646 57.5237 28.2474 57.0679 28.7379 56.7464C29.2285 56.425 29.7952 56.2642 30.4382 56.2642C30.9354 56.2642 31.3281 56.3471 31.6165 56.5128C31.9081 56.6752 32.1302 56.8608 32.2827 57.0696C32.4384 57.2751 32.5594 57.4441 32.6456 57.5767H32.745V53.8182H33.9183V64H32.7848V62.8267H32.6456C32.5594 62.9659 32.4368 63.1416 32.2777 63.3537C32.1186 63.5625 31.8916 63.7498 31.5966 63.9155C31.3016 64.0779 30.9089 64.1591 30.4183 64.1591ZM30.5774 63.1051C31.0481 63.1051 31.4458 62.9825 31.7706 62.7372C32.0954 62.4886 32.3423 62.1456 32.5114 61.7081C32.6804 61.2673 32.7649 60.7585 32.7649 60.1818C32.7649 59.6117 32.6821 59.1129 32.5163 58.6854C32.3506 58.2545 32.1054 57.9197 31.7805 57.6811C31.4557 57.4392 31.0547 57.3182 30.5774 57.3182C30.0803 57.3182 29.666 57.4458 29.3345 57.701C29.0064 57.9529 28.7595 58.2959 28.5938 58.7301C28.4313 59.161 28.3501 59.6449 28.3501 60.1818C28.3501 60.7254 28.433 61.2192 28.5987 61.6634C28.7678 62.1042 29.0163 62.4555 29.3445 62.7173C29.6759 62.9759 30.0869 63.1051 30.5774 63.1051ZM39.1136 64.1591C38.4773 64.1591 37.9155 63.9983 37.4283 63.6768C36.9411 63.352 36.5599 62.8946 36.2848 62.3047C36.0097 61.7114 35.8722 61.0104 35.8722 60.2017C35.8722 59.3996 36.0097 58.7036 36.2848 58.1136C36.5599 57.5237 36.9427 57.0679 37.4332 56.7464C37.9238 56.425 38.4905 56.2642 39.1335 56.2642C39.6307 56.2642 40.0234 56.3471 40.3118 56.5128C40.6035 56.6752 40.8255 56.8608 40.978 57.0696C41.1338 57.2751 41.2547 57.4441 41.3409 57.5767H41.4403V53.8182H42.6136V64H41.4801V62.8267H41.3409C41.2547 62.9659 41.1321 63.1416 40.973 63.3537C40.8139 63.5625 40.5869 63.7498 40.2919 63.9155C39.9969 64.0779 39.6042 64.1591 39.1136 64.1591ZM39.2727 63.1051C39.7434 63.1051 40.1411 62.9825 40.4659 62.7372C40.7907 62.4886 41.0376 62.1456 41.2067 61.7081C41.3757 61.2673 41.4602 60.7585 41.4602 60.1818C41.4602 59.6117 41.3774 59.1129 41.2116 58.6854C41.0459 58.2545 40.8007 57.9197 40.4759 57.6811C40.151 57.4392 39.75 57.3182 39.2727 57.3182C38.7756 57.3182 38.3613 57.4458 38.0298 57.701C37.7017 57.9529 37.4548 58.2959 37.2891 58.7301C37.1267 59.161 37.0455 59.6449 37.0455 60.1818C37.0455 60.7254 37.1283 61.2192 37.294 61.6634C37.4631 62.1042 37.7116 62.4555 38.0398 62.7173C38.3712 62.9759 38.7822 63.1051 39.2727 63.1051ZM49.022 53.8182H50.4936L53.9538 62.2699H54.0732L57.5334 53.8182H59.005V64H57.8516V56.2642H57.7521L54.5703 64H53.4567L50.2749 56.2642H50.1754V64H49.022V53.8182ZM64.4203 64.1591C63.7309 64.1591 63.126 63.995 62.6056 63.6669C62.0886 63.3388 61.6842 62.8797 61.3926 62.2898C61.1042 61.6998 60.96 61.0104 60.96 60.2216C60.96 59.4261 61.1042 58.7318 61.3926 58.1385C61.6842 57.5452 62.0886 57.0845 62.6056 56.7564C63.126 56.4283 63.7309 56.2642 64.4203 56.2642C65.1097 56.2642 65.7129 56.4283 66.2299 56.7564C66.7503 57.0845 67.1547 57.5452 67.443 58.1385C67.7347 58.7318 67.8805 59.4261 67.8805 60.2216C67.8805 61.0104 67.7347 61.6998 67.443 62.2898C67.1547 62.8797 66.7503 63.3388 66.2299 63.6669C65.7129 63.995 65.1097 64.1591 64.4203 64.1591ZM64.4203 63.1051C64.944 63.1051 65.3748 62.9709 65.7129 62.7024C66.051 62.4339 66.3012 62.081 66.4636 61.6435C66.626 61.206 66.7072 60.732 66.7072 60.2216C66.7072 59.7112 66.626 59.2356 66.4636 58.7947C66.3012 58.3539 66.051 57.9976 65.7129 57.7259C65.3748 57.4541 64.944 57.3182 64.4203 57.3182C63.8966 57.3182 63.4657 57.4541 63.1277 57.7259C62.7896 57.9976 62.5394 58.3539 62.377 58.7947C62.2145 59.2356 62.1333 59.7112 62.1333 60.2216C62.1333 60.732 62.2145 61.206 62.377 61.6435C62.5394 62.081 62.7896 62.4339 63.1277 62.7024C63.4657 62.9709 63.8966 63.1051 64.4203 63.1051ZM69.6715 64V56.3636H70.805V57.517H70.8846C71.0238 57.1392 71.2757 56.8326 71.6403 56.5973C72.0049 56.362 72.4158 56.2443 72.8732 56.2443C72.9594 56.2443 73.0671 56.246 73.1964 56.2493C73.3256 56.2526 73.4234 56.2576 73.4897 56.2642V57.4574C73.4499 57.4474 73.3588 57.4325 73.2163 57.4126C73.0771 57.3894 72.9296 57.3778 72.7738 57.3778C72.4026 57.3778 72.0711 57.4557 71.7795 57.6115C71.4911 57.764 71.2624 57.9761 71.0934 58.2479C70.9277 58.5163 70.8448 58.8229 70.8448 59.1676V64H69.6715ZM77.8498 64.1591C77.114 64.1591 76.4793 63.9967 75.9457 63.6719C75.4154 63.3438 75.006 62.8864 74.7177 62.2997C74.4326 61.7098 74.2901 61.0237 74.2901 60.2415C74.2901 59.4593 74.4326 58.7699 74.7177 58.1733C75.006 57.5734 75.4071 57.1061 75.9208 56.7713C76.4379 56.4332 77.0411 56.2642 77.7305 56.2642C78.1282 56.2642 78.521 56.3305 78.9087 56.4631C79.2965 56.5956 79.6495 56.8111 79.9677 57.1094C80.2859 57.4044 80.5394 57.7955 80.7283 58.2827C80.9173 58.7699 81.0117 59.3698 81.0117 60.0824V60.5795H75.1254V59.5653H79.8185C79.8185 59.1345 79.7324 58.75 79.56 58.4119C79.391 58.0739 79.149 57.8071 78.8342 57.6115C78.5226 57.416 78.1547 57.3182 77.7305 57.3182C77.2631 57.3182 76.8588 57.4342 76.5174 57.6662C76.1793 57.8949 75.9192 58.1932 75.7369 58.5611C75.5546 58.929 75.4634 59.3234 75.4634 59.7443V60.4205C75.4634 60.9972 75.5629 61.486 75.7617 61.8871C75.9639 62.2848 76.244 62.5881 76.6019 62.7969C76.9599 63.0024 77.3758 63.1051 77.8498 63.1051C78.158 63.1051 78.4364 63.062 78.685 62.9759C78.9369 62.8864 79.154 62.7538 79.3363 62.5781C79.5186 62.3991 79.6594 62.1771 79.7589 61.9119L80.8924 62.2301C80.7731 62.6146 80.5726 62.9527 80.2908 63.2443C80.0091 63.5327 79.6611 63.758 79.2468 63.9205C78.8325 64.0795 78.3668 64.1591 77.8498 64.1591Z" fill="url(#paint1_linear_2284_18313)"/>
<rect x="0.5" y="0.5" width="91" height="76" rx="7.5" stroke="url(#paint2_linear_2284_18313)" stroke-dasharray="10 10"/>
<defs>
<linearGradient id="paint0_linear_2284_18313" x1="41.5" y1="18" x2="58.4774" y2="19.1148" gradientUnits="userSpaceOnUse">
<stop stop-color="#D92322"/>
<stop offset="1" stop-color="#7C142F"/>
</linearGradient>
<linearGradient id="paint1_linear_2284_18313" x1="17" y1="50" x2="82.1607" y2="66.3598" gradientUnits="userSpaceOnUse">
<stop stop-color="#D92322"/>
<stop offset="1" stop-color="#7C142F"/>
</linearGradient>
<linearGradient id="paint2_linear_2284_18313" x1="0" y1="0" x2="97.4413" y2="7.64483" gradientUnits="userSpaceOnUse">
<stop stop-color="#D92322"/>
<stop offset="1" stop-color="#7C142F"/>
</linearGradient>
</defs>
</svg>
