<svg width="20" height="20" viewBox="0 0 20 20" fill="none" xmlns="http://www.w3.org/2000/svg">
<path d="M10.0002 1.11108C8.24217 1.11108 6.52359 1.63241 5.06182 2.60913C3.60005 3.58586 2.46074 4.97411 1.78796 6.59834C1.11518 8.22257 0.93915 10.0098 1.28213 11.7341C1.62511 13.4584 2.47169 15.0422 3.71483 16.2854C4.95796 17.5285 6.54181 18.3751 8.26609 18.7181C9.99036 19.061 11.7776 18.885 13.4019 18.2122C15.0261 17.5395 16.4143 16.4001 17.3911 14.9384C18.3678 13.4766 18.8891 11.758 18.8891 9.99997C18.8891 7.64249 17.9526 5.38157 16.2856 3.71458C14.6186 2.04759 12.3577 1.11108 10.0002 1.11108ZM10.0002 17.7778C8.46192 17.7778 6.95817 17.3216 5.67912 16.467C4.40007 15.6123 3.40317 14.3976 2.81449 12.9764C2.22581 11.5552 2.07178 9.99135 2.37189 8.4826C2.672 6.97386 3.41276 5.588 4.5005 4.50025C5.58824 3.41251 6.97411 2.67175 8.48285 2.37164C9.99159 2.07154 11.5554 2.22556 12.9766 2.81424C14.3979 3.40293 15.6126 4.39982 16.4672 5.67887C17.3218 6.95792 17.778 8.46167 17.778 9.99997C17.778 12.0628 16.9586 14.0411 15.4999 15.4997C14.0413 16.9583 12.063 17.7778 10.0002 17.7778Z" fill="black"/>
<path d="M10.511 10.2223V5.9723C10.511 5.82496 10.4525 5.68365 10.3483 5.57947C10.2441 5.47528 10.1028 5.41675 9.95546 5.41675C9.80812 5.41675 9.66681 5.47528 9.56262 5.57947C9.45843 5.68365 9.3999 5.82496 9.3999 5.9723V10.8167L12.6777 13.039C12.7381 13.0844 12.8071 13.117 12.8805 13.1348C12.9539 13.1527 13.0302 13.1553 13.1047 13.1427C13.1791 13.13 13.2503 13.1023 13.3137 13.0613C13.3771 13.0202 13.4314 12.9666 13.4734 12.9038C13.5154 12.841 13.5442 12.7703 13.5579 12.696C13.5717 12.6217 13.5701 12.5454 13.5533 12.4717C13.5366 12.398 13.505 12.3286 13.4604 12.2675C13.4159 12.2065 13.3594 12.1552 13.2943 12.1167L10.511 10.2223Z" fill="black"/>
<path d="M4.44429 9.9667C4.43921 8.96728 4.70545 7.98521 5.21464 7.12521C5.72382 6.26521 6.45686 5.55952 7.33559 5.08337C8.21431 4.60723 9.20578 4.37849 10.2043 4.42154C11.2028 4.46459 12.1709 4.77781 13.0054 5.32782L13.4776 4.57226C12.685 4.05304 11.7872 3.71581 10.8487 3.58481C9.91023 3.45381 8.9544 3.53228 8.04986 3.81459C7.14533 4.0969 6.31454 4.57604 5.61719 5.21759C4.91984 5.85914 4.37324 6.64717 4.01664 7.52508C3.66004 8.40299 3.50231 9.34897 3.55476 10.2951C3.60722 11.2412 3.86857 12.164 4.32003 12.9971C4.7715 13.8302 5.40187 14.5529 6.16587 15.1135C6.92987 15.674 7.80853 16.0583 8.73873 16.2389L8.88873 15.3889C7.63761 15.1336 6.51265 14.455 5.70318 13.4674C4.89371 12.4799 4.44914 11.2436 4.44429 9.9667Z" fill="black"/>
</svg>
