<svg width="29" height="16" viewBox="0 0 29 16" fill="none" xmlns="http://www.w3.org/2000/svg">
<circle cx="21" cy="8" r="7.5" fill="#EB5757" stroke="white"/>
<path d="M19.7599 4.83355C19.9699 4.83993 20.1733 4.8766 20.3703 4.9436H20.3899C20.4033 4.94993 20.4133 4.95693 20.4199 4.96327C20.4936 4.98693 20.5633 5.0136 20.6299 5.05027L20.7566 5.10693C20.8066 5.1336 20.8666 5.18327 20.8999 5.2036C20.9333 5.22327 20.9699 5.2436 20.9999 5.2666C21.3703 4.9836 21.8199 4.83027 22.2833 4.83355C22.4936 4.83355 22.7036 4.86327 22.9033 4.93027C24.1336 5.33027 24.5769 6.68027 24.2066 7.86027C23.9966 8.46327 23.6533 9.0136 23.2036 9.46327C22.5599 10.0866 21.8536 10.6399 21.0933 11.1166L21.0099 11.1669L20.9233 11.1133C20.1603 10.6399 19.4499 10.0866 18.8003 9.45993C18.3536 9.01027 18.0099 8.46327 17.7966 7.86027C17.4199 6.68027 17.8633 5.33027 19.1069 4.92327C19.2036 4.88993 19.3033 4.8666 19.4033 4.8536H19.4433C19.5369 4.83993 19.6299 4.83355 19.7233 4.83355H19.7599ZM22.7299 5.88693C22.5933 5.83993 22.4433 5.9136 22.3933 6.0536C22.3466 6.1936 22.4199 6.34693 22.5599 6.3966C22.7736 6.4766 22.9166 6.68693 22.9166 6.91993V6.93027C22.9103 7.0066 22.9333 7.08027 22.9799 7.13693C23.0266 7.1936 23.0966 7.2266 23.1699 7.2336C23.3066 7.22993 23.4233 7.12027 23.4333 6.97993V6.94027C23.4433 6.47327 23.1603 6.05027 22.7299 5.88693Z" fill="white"/>
<circle cx="8" cy="8" r="7.5" fill="#3496E0" stroke="white"/>
<path d="M5.33341 10.9998H5.66675V6.6665H5.33341C5.1566 6.6665 4.98703 6.73674 4.86201 6.86177C4.73699 6.98679 4.66675 7.15636 4.66675 7.33317V10.3332C4.66675 10.51 4.73699 10.6796 4.86201 10.8046C4.98703 10.9296 5.1566 10.9998 5.33341 10.9998ZM10.6667 6.6665H8.33341L8.70741 5.54384C8.74079 5.44364 8.74988 5.33695 8.73394 5.23256C8.718 5.12816 8.67749 5.02904 8.61574 4.94337C8.55399 4.8577 8.47277 4.78792 8.37878 4.73978C8.28478 4.69165 8.18069 4.66653 8.07508 4.6665H8.00008L6.33341 6.47917V10.9998H10.0001L11.3041 8.1345L11.3334 7.99984V7.33317C11.3334 7.15636 11.2632 6.98679 11.1382 6.86177C11.0131 6.73674 10.8436 6.6665 10.6667 6.6665Z" fill="white"/>
</svg>
