<svg width="24" height="24" viewBox="0 0 24 24" fill="none" xmlns="http://www.w3.org/2000/svg">
<g clip-path="url(#clip0_2370_14321)">
<path d="M11.6394 17.8254H11.7013L11.6883 17.7649C11.6719 17.6884 11.6548 17.6142 11.638 17.5414C11.6008 17.3803 11.5652 17.2261 11.5425 17.0689C11.5319 16.9951 11.5117 16.9344 11.4633 16.8954C11.4159 16.8572 11.3522 16.8487 11.2799 16.8487H11.2799C8.2117 16.8511 5.14351 16.8523 2.07532 16.8523H1.92254V16.7274C1.92254 16.7274 1.92254 16.7274 1.92254 16.7274C1.92399 12.1659 1.92308 7.60423 1.91984 3.04252C1.91984 2.97494 1.92845 2.95046 1.9387 2.93938C1.94786 2.92947 1.97015 2.91821 2.0401 2.91821C6.61985 2.92056 11.1996 2.92173 15.7794 2.92173H15.8888V10.9469V11L15.9418 10.9968L16.8095 10.9443L16.8565 10.9414V10.8944V2V1.95H16.8065H1H0.95V2V17.7754V17.8254H1H11.6394Z" fill="white" stroke="white" stroke-width="0.1"/>
<path d="M22.3895 20.3856L22.3895 20.3856C22.8502 20.854 22.7449 21.6067 22.1849 21.9236C21.7999 22.1419 21.3374 22.0734 21.0066 21.7482M22.3895 20.3856L21.0417 21.7126M22.3895 20.3856C21.9575 19.9467 21.5204 19.5126 21.0815 19.0768C20.8965 18.8931 20.7112 18.7091 20.5258 18.5242C21.7724 16.5465 21.2689 13.9906 19.4456 12.6086C17.7761 11.3419 15.3652 11.4471 13.8083 12.8684L13.8083 12.8684C12.2165 14.3218 11.885 16.6938 13.0266 18.4958L13.0266 18.4958C13.6077 19.412 14.4167 20.0506 15.4546 20.371C16.7593 20.7738 17.9969 20.5904 19.1363 19.9037M22.3895 20.3856L19.1436 19.8408M21.0066 21.7482L21.0417 21.7126M21.0066 21.7482C21.0066 21.7482 21.0066 21.7482 21.0066 21.7482L21.0417 21.7126M21.0066 21.7482C20.6139 21.3624 20.2224 20.9759 19.8285 20.5869C19.5988 20.3601 19.3683 20.1325 19.1363 19.9037M21.0417 21.7126C20.6491 21.3269 20.2577 20.9404 19.8639 20.5516C19.625 20.3157 19.3852 20.0789 19.1436 19.8408M19.1363 19.9037C19.1474 19.897 19.1586 19.8902 19.1697 19.8834L19.1436 19.8408M19.1363 19.9037C19.127 19.8946 19.1178 19.8855 19.1085 19.8764L19.1436 19.8408M13.839 16.1399V16.1399C13.8446 14.5105 15.1682 13.1937 16.7919 13.2017C18.4196 13.2097 19.7354 14.5312 19.7287 16.159C19.7221 17.7866 18.3877 19.1013 16.7523 19.0912C15.1435 19.0811 13.8331 17.7541 13.839 16.1399Z" fill="white" stroke="white" stroke-width="0.1"/>
<path d="M14.5065 6.99205H14.5565V6.94205V5.15527V5.10527H14.5065H6.32739H6.27739V5.15527V6.94205V6.99205H6.32739H14.5065Z" fill="white" stroke="white" stroke-width="0.1"/>
<path d="M14.5047 10.8184H14.5547V10.7684V8.98486V8.93486H14.5047H6.32373H6.27373V8.98486V10.7684V10.8184H6.32373H14.5047Z" fill="white" stroke="white" stroke-width="0.1"/>
<path d="M6.27324 14.6655V14.6179V12.8354V12.7854H6.32324H12.604H12.6953L12.6462 12.8624C12.6394 12.8729 12.6329 12.8837 12.6264 12.8944C12.6121 12.9179 12.598 12.9411 12.5826 12.9608L12.5823 12.9613C12.2124 13.4276 11.9277 13.9555 11.7411 14.5206L6.27324 14.6655ZM6.27324 14.6655L6.32084 14.6678M6.27324 14.6655L6.32084 14.6678M6.32084 14.6678C6.33658 14.6686 6.35246 14.6696 6.36833 14.6706C6.40002 14.6726 6.43172 14.6747 6.46239 14.6747L6.46244 14.6747M6.32084 14.6678L6.46244 14.6747M6.46244 14.6747C8.14936 14.6732 9.83638 14.674 11.5235 14.6771M6.46244 14.6747L11.5235 14.6771M11.5235 14.6771C11.5762 14.6772 11.6236 14.6696 11.6627 14.6416C11.7019 14.6136 11.7245 14.5711 11.7411 14.5207L11.5235 14.6771Z" fill="white" stroke="white" stroke-width="0.1"/>
<path d="M5.13581 13.7105L5.13581 13.7105C5.13612 13.46 5.03736 13.2197 4.8611 13.0418C4.68484 12.8639 4.44538 12.763 4.19497 12.7611L4.1949 12.7611C4.00748 12.7599 3.82392 12.8143 3.66747 12.9175C3.51102 13.0207 3.38872 13.1681 3.31605 13.3408C3.24339 13.5136 3.22363 13.704 3.25928 13.888C3.29493 14.072 3.38438 14.2413 3.51631 14.3745C3.64823 14.5076 3.8167 14.5986 4.00038 14.6359C4.18405 14.6732 4.37466 14.6552 4.54808 14.5841C4.7215 14.513 4.86992 14.392 4.97455 14.2365C5.07917 14.081 5.13529 13.898 5.13581 13.7105Z" fill="white" stroke="white" stroke-width="0.1"/>
<path d="M5.13581 9.86529C5.13598 10.0526 5.08058 10.2358 4.97662 10.3916C4.87267 10.5475 4.72482 10.669 4.55179 10.7408C4.37877 10.8125 4.18834 10.8314 4.00459 10.7949C3.82084 10.7585 3.65204 10.6683 3.51954 10.5359C3.38704 10.4035 3.29679 10.2347 3.26022 10.051C3.22364 9.8673 3.24238 9.67685 3.31407 9.50378C3.38576 9.33071 3.50717 9.18279 3.66295 9.07874C3.81872 8.97469 4.00186 8.91918 4.18919 8.91924L4.18917 8.96924L4.18914 8.91924C4.31343 8.91916 4.43652 8.94358 4.55137 8.99109C4.66622 9.0386 4.77059 9.10828 4.8585 9.19614C4.94642 9.284 5.01616 9.38832 5.06374 9.50315C5.11131 9.61796 5.1358 9.74101 5.13581 9.86529ZM5.13581 9.86529C5.13581 9.8653 5.13581 9.86532 5.13581 9.86533H5.08581L5.13581 9.86529Z" fill="white" stroke="white" stroke-width="0.1"/>
<path d="M5.06302 6.40601C5.11083 6.29122 5.13557 6.16814 5.13581 6.04379C5.1363 5.79265 5.03701 5.55161 4.85978 5.37368C4.68255 5.19575 4.4419 5.09551 4.19076 5.09502C3.93962 5.09453 3.69858 5.19382 3.52065 5.37105C3.34272 5.54828 3.24249 5.78894 3.24199 6.04007C3.24175 6.16442 3.266 6.2876 3.31336 6.40258C3.36072 6.51756 3.43027 6.62208 3.51802 6.71018C3.60578 6.79828 3.71003 6.86824 3.82482 6.91605C3.93961 6.96386 4.06269 6.98859 4.18704 6.98884C4.31139 6.98908 4.43457 6.96483 4.54955 6.91747C4.66453 6.87011 4.76905 6.80056 4.85715 6.71281C4.94525 6.62505 5.01521 6.5208 5.06302 6.40601Z" fill="white" stroke="white" stroke-width="0.1"/>
<path d="M14.7471 16.605L14.6554 16.655L14.7518 16.6951C15.422 16.974 15.9265 17.4253 16.3818 17.9051L16.4199 17.9453L16.456 17.9033C16.5601 17.7821 16.6622 17.6609 16.7638 17.5403C16.9953 17.2656 17.2238 16.9943 17.4663 16.7347C17.815 16.3615 18.1854 16.0183 18.6686 15.8233L18.719 15.803L18.6946 15.7544C18.5939 15.5542 18.5686 15.3512 18.5743 15.1402C18.578 15.0029 18.5944 14.8661 18.6115 14.7244C18.621 14.645 18.6308 14.5641 18.6385 14.4807L18.6471 14.3888L18.5654 14.4318C17.5189 14.983 16.9093 15.8873 16.372 16.8684L15.8935 16.0357L15.8691 15.9933L15.8262 16.0167L14.7471 16.605Z" fill="white" stroke="white" stroke-width="0.1"/>
</g>
<defs>
<clipPath id="clip0_2370_14321">
<rect width="21.6287" height="20" fill="white" transform="translate(1 2)"/>
</clipPath>
</defs>
</svg>
