<svg width="16" height="16" viewBox="0 0 16 16" fill="none" xmlns="http://www.w3.org/2000/svg">
<path d="M8.02212 1.3335C11.1464 1.34577 13.6788 3.89481 13.6665 7.01504V7.07701C13.6243 9.30684 12.2838 11.1572 11.1669 12.3166C10.849 12.6481 10.5106 12.9661 10.1617 13.2631C9.95275 13.4414 9.63898 13.4169 9.46043 13.2081C9.28189 12.9988 9.30706 12.6855 9.51605 12.5072C9.83918 12.2318 10.1535 11.936 10.4492 11.6279C11.4432 10.5966 12.635 8.96599 12.6713 7.05889C12.6813 4.43911 10.5943 2.33733 8.01802 2.3268H7.99987C5.43233 2.3268 3.33837 4.40813 3.32842 6.97412C3.37233 8.24162 3.80084 9.44657 4.56829 10.4574C5.46394 11.6501 6.82264 12.9129 8.11403 13.7536C8.34467 13.9033 8.40965 14.2108 8.2592 14.4412C8.16437 14.5873 8.00456 14.6668 7.84182 14.6668C7.74874 14.6668 7.65508 14.6411 7.57078 14.5862C6.18808 13.6864 4.73279 12.3335 3.77332 11.0561C2.88294 9.88271 2.38477 8.48249 2.33325 7.00861C2.34555 3.85739 4.88557 1.3335 7.99987 1.3335H8.02212ZM7.99812 4.92244C9.18705 4.92244 10.1547 5.88826 10.1547 7.07625C10.1547 8.26366 9.18705 9.22949 7.99812 9.22949C6.80918 9.22949 5.84152 8.26366 5.84152 7.07625C5.84152 6.80147 6.06456 6.57931 6.33911 6.57931C6.61366 6.57931 6.83669 6.80147 6.83669 7.07625C6.83669 7.71527 7.3577 8.23618 7.99812 8.23618C8.63854 8.23618 9.15954 7.71527 9.15954 7.07625C9.15954 6.43666 8.63854 5.91574 7.99812 5.91574C7.72357 5.91574 7.50053 5.69358 7.50053 5.41938C7.50053 5.1446 7.72357 4.92244 7.99812 4.92244Z" fill="white"/>
</svg>
