<svg width="41" height="36" viewBox="0 0 41 36" fill="none" xmlns="http://www.w3.org/2000/svg">
<path d="M29.5 15V19C29.5 19.5304 29.2893 20.0391 28.9142 20.4142C28.5391 20.7893 28.0304 21 27.5 21H13.5C12.9696 21 12.4609 20.7893 12.0858 20.4142C11.7107 20.0391 11.5 19.5304 11.5 19V15" stroke="white" stroke-width="2" stroke-linecap="round" stroke-linejoin="round"/>
<path d="M15.5 10L20.5 15L25.5 10" stroke="white" stroke-width="2" stroke-linecap="round" stroke-linejoin="round"/>
<path d="M20.5 15V3" stroke="white" stroke-width="2" stroke-linecap="round" stroke-linejoin="round"/>
<path d="M2.67622 27.424C3.28422 27.424 3.80955 27.5387 4.25222 27.768C4.70022 27.992 5.04155 28.3147 5.27622 28.736C5.51622 29.1573 5.63622 29.6533 5.63622 30.224C5.63622 30.7947 5.51622 31.2907 5.27622 31.712C5.04155 32.128 4.70022 32.448 4.25222 32.672C3.80955 32.8907 3.28422 33 2.67622 33H0.940219V27.424H2.67622ZM2.67622 32.4C3.39622 32.4 3.94555 32.2107 4.32422 31.832C4.70289 31.448 4.89222 30.912 4.89222 30.224C4.89222 29.5307 4.70022 28.9893 4.31622 28.6C3.93755 28.2107 3.39089 28.016 2.67622 28.016H1.66822V32.4H2.67622ZM8.50847 33.072C8.0978 33.072 7.72447 32.9787 7.38847 32.792C7.0578 32.6053 6.79647 32.3413 6.60447 32C6.4178 31.6533 6.32447 31.2533 6.32447 30.8C6.32447 30.352 6.42047 29.9573 6.61247 29.616C6.8098 29.2693 7.07647 29.0053 7.41247 28.824C7.74847 28.6373 8.12447 28.544 8.54047 28.544C8.95647 28.544 9.33247 28.6373 9.66847 28.824C10.0045 29.0053 10.2685 29.2667 10.4605 29.608C10.6578 29.9493 10.7565 30.3467 10.7565 30.8C10.7565 31.2533 10.6551 31.6533 10.4525 32C10.2551 32.3413 9.9858 32.6053 9.64447 32.792C9.30314 32.9787 8.92447 33.072 8.50847 33.072ZM8.50847 32.432C8.7698 32.432 9.01514 32.3707 9.24447 32.248C9.4738 32.1253 9.6578 31.9413 9.79647 31.696C9.94047 31.4507 10.0125 31.152 10.0125 30.8C10.0125 30.448 9.94314 30.1493 9.80447 29.904C9.6658 29.6587 9.48447 29.4773 9.26047 29.36C9.03647 29.2373 8.7938 29.176 8.53247 29.176C8.2658 29.176 8.02047 29.2373 7.79647 29.36C7.5778 29.4773 7.4018 29.6587 7.26847 29.904C7.13514 30.1493 7.06847 30.448 7.06847 30.8C7.06847 31.1573 7.13247 31.4587 7.26047 31.704C7.3938 31.9493 7.5698 32.1333 7.78847 32.256C8.00714 32.3733 8.24714 32.432 8.50847 32.432ZM17.5537 28.616L16.1857 33H15.4337L14.3777 29.52L13.3217 33H12.5697L11.1937 28.616H11.9377L12.9457 32.296L14.0337 28.616H14.7777L15.8417 32.304L16.8337 28.616H17.5537ZM20.4122 28.536C20.9455 28.536 21.3775 28.6987 21.7082 29.024C22.0388 29.344 22.2042 29.808 22.2042 30.416V33H21.4842V30.52C21.4842 30.0827 21.3748 29.7493 21.1562 29.52C20.9375 29.2853 20.6388 29.168 20.2602 29.168C19.8762 29.168 19.5695 29.288 19.3402 29.528C19.1162 29.768 19.0042 30.1173 19.0042 30.576V33H18.2762V28.616H19.0042V29.24C19.1482 29.016 19.3428 28.8427 19.5882 28.72C19.8388 28.5973 20.1135 28.536 20.4122 28.536ZM24.1213 27.08V33H23.3933V27.08H24.1213ZM27.2741 33.072C26.8634 33.072 26.4901 32.9787 26.1541 32.792C25.8234 32.6053 25.5621 32.3413 25.3701 32C25.1834 31.6533 25.0901 31.2533 25.0901 30.8C25.0901 30.352 25.1861 29.9573 25.3781 29.616C25.5754 29.2693 25.8421 29.0053 26.1781 28.824C26.5141 28.6373 26.8901 28.544 27.3061 28.544C27.7221 28.544 28.0981 28.6373 28.4341 28.824C28.7701 29.0053 29.0341 29.2667 29.2261 29.608C29.4234 29.9493 29.5221 30.3467 29.5221 30.8C29.5221 31.2533 29.4208 31.6533 29.2181 32C29.0208 32.3413 28.7514 32.6053 28.4101 32.792C28.0688 32.9787 27.6901 33.072 27.2741 33.072ZM27.2741 32.432C27.5354 32.432 27.7808 32.3707 28.0101 32.248C28.2394 32.1253 28.4234 31.9413 28.5621 31.696C28.7061 31.4507 28.7781 31.152 28.7781 30.8C28.7781 30.448 28.7088 30.1493 28.5701 29.904C28.4314 29.6587 28.2501 29.4773 28.0261 29.36C27.8021 29.2373 27.5594 29.176 27.2981 29.176C27.0314 29.176 26.7861 29.2373 26.5621 29.36C26.3434 29.4773 26.1674 29.6587 26.0341 29.904C25.9008 30.1493 25.8341 30.448 25.8341 30.8C25.8341 31.1573 25.8981 31.4587 26.0261 31.704C26.1594 31.9493 26.3354 32.1333 26.5541 32.256C26.7728 32.3733 27.0128 32.432 27.2741 32.432ZM30.2073 30.792C30.2073 30.344 30.2979 29.952 30.4793 29.616C30.6606 29.2747 30.9086 29.0107 31.2233 28.824C31.5433 28.6373 31.8979 28.544 32.2873 28.544C32.6713 28.544 33.0046 28.6267 33.2873 28.792C33.5699 28.9573 33.7806 29.1653 33.9193 29.416V28.616H34.6553V33H33.9193V32.184C33.7753 32.44 33.5593 32.6533 33.2713 32.824C32.9886 32.9893 32.6579 33.072 32.2793 33.072C31.8899 33.072 31.5379 32.976 31.2233 32.784C30.9086 32.592 30.6606 32.3227 30.4793 31.976C30.2979 31.6293 30.2073 31.2347 30.2073 30.792ZM33.9193 30.8C33.9193 30.4693 33.8526 30.1813 33.7193 29.936C33.5859 29.6907 33.4046 29.504 33.1753 29.376C32.9513 29.2427 32.7033 29.176 32.4313 29.176C32.1593 29.176 31.9113 29.24 31.6873 29.368C31.4633 29.496 31.2846 29.6827 31.1513 29.928C31.0179 30.1733 30.9513 30.4613 30.9513 30.792C30.9513 31.128 31.0179 31.4213 31.1513 31.672C31.2846 31.9173 31.4633 32.1067 31.6873 32.24C31.9113 32.368 32.1593 32.432 32.4313 32.432C32.7033 32.432 32.9513 32.368 33.1753 32.24C33.4046 32.1067 33.5859 31.9173 33.7193 31.672C33.8526 31.4213 33.9193 31.1307 33.9193 30.8ZM35.6135 30.792C35.6135 30.344 35.7042 29.952 35.8855 29.616C36.0669 29.2747 36.3149 29.0107 36.6295 28.824C36.9495 28.6373 37.3069 28.544 37.7015 28.544C38.0429 28.544 38.3602 28.624 38.6535 28.784C38.9469 28.9387 39.1709 29.144 39.3255 29.4V27.08H40.0615V33H39.3255V32.176C39.1815 32.4373 38.9682 32.6533 38.6855 32.824C38.4029 32.9893 38.0722 33.072 37.6935 33.072C37.3042 33.072 36.9495 32.976 36.6295 32.784C36.3149 32.592 36.0669 32.3227 35.8855 31.976C35.7042 31.6293 35.6135 31.2347 35.6135 30.792ZM39.3255 30.8C39.3255 30.4693 39.2589 30.1813 39.1255 29.936C38.9922 29.6907 38.8109 29.504 38.5815 29.376C38.3575 29.2427 38.1095 29.176 37.8375 29.176C37.5655 29.176 37.3175 29.24 37.0935 29.368C36.8695 29.496 36.6909 29.6827 36.5575 29.928C36.4242 30.1733 36.3575 30.4613 36.3575 30.792C36.3575 31.128 36.4242 31.4213 36.5575 31.672C36.6909 31.9173 36.8695 32.1067 37.0935 32.24C37.3175 32.368 37.5655 32.432 37.8375 32.432C38.1095 32.432 38.3575 32.368 38.5815 32.24C38.8109 32.1067 38.9922 31.9173 39.1255 31.672C39.2589 31.4213 39.3255 31.1307 39.3255 30.8Z" fill="white"/>
</svg>
