<svg width="37" height="36" viewBox="0 0 37 36" fill="none" xmlns="http://www.w3.org/2000/svg">
<path d="M20.75 29.25H29.75V31.5H20.75V29.25ZM20.75 24.75H34.25V27H20.75V24.75ZM20.75 20.25H34.25V22.5H20.75V20.25Z" fill="white"/>
<path d="M23.6176 12.6191L18.5 2.25L13.3824 12.6191L1.94 14.2819L10.22 22.3538L8.26475 33.75L16.25 29.5526V27.0101L11.2539 29.637L12.4374 22.734L12.6376 21.5674L11.7905 20.7427L6.77525 15.8524L13.7064 14.8455L14.8764 14.6756L15.4006 13.6148L18.5 7.33388L21.5994 13.6148L22.1236 14.6756L23.2936 14.8455L31.6794 16.0661L32 13.8375L23.6176 12.6191Z" fill="white"/>
</svg>
