<svg width="20" height="16" viewBox="0 0 20 16" fill="none" xmlns="http://www.w3.org/2000/svg">
<path d="M3.6999 0.800781C2.82469 0.800781 1.98532 1.14846 1.36645 1.76733C0.74758 2.3862 0.399902 3.22557 0.399902 4.10078V5.60078H19.5999V4.10078C19.5999 3.22557 19.2522 2.3862 18.6334 1.76733C18.0145 1.14846 17.1751 0.800781 16.2999 0.800781H3.6999ZM19.5999 6.80078H0.399902V11.9008C0.399902 12.776 0.74758 13.6154 1.36645 14.2342C1.98532 14.8531 2.82469 15.2008 3.6999 15.2008H16.2999C17.1751 15.2008 18.0145 14.8531 18.6334 14.2342C19.2522 13.6154 19.5999 12.776 19.5999 11.9008V6.80078ZM14.1999 11.6008H16.5999C16.759 11.6008 16.9116 11.664 17.0242 11.7765C17.1367 11.889 17.1999 12.0417 17.1999 12.2008C17.1999 12.3599 17.1367 12.5125 17.0242 12.625C16.9116 12.7376 16.759 12.8008 16.5999 12.8008H14.1999C14.0408 12.8008 13.8882 12.7376 13.7756 12.625C13.6631 12.5125 13.5999 12.3599 13.5999 12.2008C13.5999 12.0417 13.6631 11.889 13.7756 11.7765C13.8882 11.664 14.0408 11.6008 14.1999 11.6008Z" fill="#33C8BF"/>
</svg>
