<svg width="18" height="18" viewBox="0 0 18 18" fill="none" xmlns="http://www.w3.org/2000/svg">
<path d="M11.8435 1.50069C12.1275 1.51846 12.3467 1.76192 12.3391 2.05131V2.82748C14.5957 3.0464 15.75 4.29357 15.75 6.53584V12.7386C15.75 15.2329 14.3283 16.5 11.5304 16.5H6.46957C3.67174 16.5 2.25 15.2329 2.25 12.7386V6.53584C2.25 5.04321 2.7587 3.97515 3.80217 3.35156L3.87537 3.30984C4.02663 3.23924 4.20405 3.24571 4.35151 3.33132C4.52355 3.4312 4.62515 3.62157 4.61377 3.82274C4.60239 4.0239 4.48 4.20116 4.29783 4.28031C3.60652 4.69161 3.28043 5.40807 3.28043 6.53584V6.73486H12.7957C13.0802 6.73486 13.3109 6.9695 13.3109 7.25894C13.3109 7.54838 13.0802 7.78302 12.7957 7.78302H3.28043V12.7386C3.28043 14.6425 4.20652 15.4319 6.46957 15.4452H11.5304C13.7609 15.4452 14.713 14.6359 14.713 12.7319V6.52921C14.713 4.87073 13.9891 4.06802 12.3391 3.87564V4.37982C12.3011 4.64855 12.0698 4.84473 11.803 4.83449C11.5363 4.82425 11.3202 4.6109 11.3022 4.34001V2.00487L11.3117 1.92192C11.3329 1.81321 11.3877 1.71337 11.4691 1.63756C11.5709 1.54279 11.7057 1.49349 11.8435 1.50069ZM12.1403 12.1477L12.2233 12.1531C12.3657 12.171 12.4992 12.2363 12.6023 12.3401C12.7261 12.4647 12.7957 12.6344 12.7957 12.8115C12.7957 13.1779 12.5037 13.4749 12.1435 13.4749C11.7833 13.4749 11.4913 13.1779 11.4913 12.8115C11.4913 12.4452 11.7833 12.1481 12.1435 12.1481L12.1403 12.1477ZM9.01304 12.1481L9.09485 12.1533C9.41642 12.1942 9.66522 12.4733 9.66522 12.8115C9.66522 13.1779 9.37323 13.4749 9.01304 13.4749C8.65286 13.4749 8.36087 13.1779 8.36087 12.8115C8.36087 12.4452 8.65286 12.1481 9.01304 12.1481ZM5.886 12.1477L5.96894 12.1531C6.11134 12.171 6.24489 12.2363 6.34799 12.3401C6.47171 12.4647 6.5413 12.6344 6.5413 12.8115C6.5413 13.1779 6.24932 13.4749 5.88913 13.4749C5.52894 13.4749 5.23696 13.1779 5.23696 12.8115C5.23696 12.4452 5.52894 12.1481 5.88913 12.1481L5.886 12.1477ZM12.1403 9.46125L12.2233 9.46635C12.3657 9.48421 12.4992 9.54951 12.6023 9.65335C12.7261 9.77795 12.7957 9.9477 12.7957 10.1248C12.7957 10.4912 12.5037 10.7882 12.1435 10.7882C11.7833 10.7882 11.4913 10.4912 11.4913 10.1248C11.4913 9.75841 11.7833 9.4614 12.1435 9.4614L12.1403 9.46125ZM9.01304 9.4614L9.09485 9.46657C9.41642 9.50751 9.66522 9.7866 9.66522 10.1248C9.66522 10.4912 9.37323 10.7882 9.01304 10.7882C8.65286 10.7882 8.36087 10.4912 8.36087 10.1248C8.36087 9.75841 8.65286 9.4614 9.01304 9.4614ZM5.886 9.46125L5.96894 9.46635C6.11134 9.48421 6.24489 9.54951 6.34799 9.65335C6.47171 9.77795 6.5413 9.9477 6.5413 10.1248C6.5413 10.4912 6.24932 10.7882 5.88913 10.7882C5.52894 10.7882 5.23696 10.4912 5.23696 10.1248C5.23696 9.75841 5.52894 9.4614 5.88913 9.4614L5.886 9.46125ZM6.17935 1.57984C6.44496 1.57984 6.66818 1.78281 6.69783 2.05131V2.7744H9.64565C9.9302 2.7744 10.1609 3.00904 10.1609 3.29849C10.1609 3.58793 9.9302 3.82257 9.64565 3.82257H6.68478V4.34665C6.68479 4.4868 6.62962 4.62111 6.53158 4.71959C6.43354 4.81807 6.30081 4.8725 6.16304 4.87073L6.08771 4.8632C5.84223 4.82006 5.65754 4.60084 5.66083 4.34001V2.05131L5.67539 1.97286C5.73559 1.74425 5.9403 1.57984 6.17935 1.57984Z" fill="#202020"/>
</svg>
