<svg width="18" height="16" viewBox="0 0 18 16" fill="none" xmlns="http://www.w3.org/2000/svg">
<path d="M7.26466 0.83213L7.2736 0.83517L7.28821 0.849046L7.39689 0.883961C7.56526 0.938055 7.70614 0.993288 7.83386 1.06353L7.85187 1.07344L7.87064 1.08183L8.16818 1.21495C8.19752 1.2319 8.23853 1.25962 8.29421 1.29969C8.30398 1.30672 8.31697 1.31615 8.33066 1.32607C8.3499 1.34003 8.3705 1.35497 8.38544 1.36565C8.41431 1.3863 8.45192 1.41272 8.48944 1.43561L8.48941 1.43566L8.49575 1.43939C8.5146 1.45051 8.53179 1.46059 8.54757 1.46984C8.61757 1.51086 8.65981 1.53562 8.6956 1.56306L8.99933 1.79591L9.30341 1.56354C10.1431 0.92187 11.1597 0.576215 12.2046 0.583612V0.583625H12.2082C12.6874 0.583625 13.1578 0.651376 13.5991 0.799449L13.5991 0.79947L13.6036 0.800926C16.3408 1.69083 17.4073 4.72406 16.5417 7.49335C16.0414 8.92651 15.2252 10.2338 14.1582 11.3016C12.5918 12.8181 10.8746 14.1663 9.02703 15.3303C7.16828 14.1728 5.43679 12.822 3.85166 11.2935C2.79102 10.2246 1.97385 8.92456 1.46547 7.49103C0.586436 4.72599 1.64934 1.69077 4.42283 0.783125L4.42285 0.783185L4.43032 0.780611C4.63002 0.711748 4.83559 0.662591 5.04169 0.633758H5.10815H5.14444L5.18034 0.628519C5.38951 0.598 5.59785 0.583625 5.80815 0.583625H5.89204C6.36523 0.598729 6.82194 0.681561 7.26466 0.83213ZM13.5022 2.24963L13.4949 2.24683L13.4874 2.24427C12.8776 2.03455 12.2261 2.36696 12.0123 2.96559L12.0122 2.96555L12.0088 2.97564C11.8076 3.57913 12.1209 4.24239 12.7276 4.46067C13.0585 4.58609 13.2915 4.91994 13.2915 5.29959V5.30733C13.2716 5.61687 13.3673 5.92133 13.5639 6.15995C13.7765 6.41813 14.0809 6.55321 14.3773 6.5815L14.4077 6.5844L14.4382 6.58358C15.0368 6.56752 15.5386 6.09275 15.5819 5.48513L15.5832 5.46738V5.44959V5.35552C15.6102 3.9822 14.7775 2.73364 13.5022 2.24963Z" stroke="#717E95"/>
</svg>
