<svg width="25" height="24" viewBox="0 0 25 24" fill="none" xmlns="http://www.w3.org/2000/svg">
<path d="M4.125 12C4.29076 12 4.44973 12.0702 4.56694 12.1953C4.68415 12.3203 4.75 12.4899 4.75 12.6667V20.6667H19.75V12.6667C19.75 12.4899 19.8158 12.3203 19.9331 12.1953C20.0503 12.0702 20.2092 12 20.375 12C20.5408 12 20.6997 12.0702 20.8169 12.1953C20.9342 12.3203 21 12.4899 21 12.6667V20.6667H21.625C21.7908 20.6667 21.9497 20.7369 22.0669 20.8619C22.1842 20.987 22.25 21.1565 22.25 21.3333C22.25 21.5101 22.1842 21.6797 22.0669 21.8047C21.9497 21.9298 21.7908 22 21.625 22H2.875C2.70924 22 2.55027 21.9298 2.43306 21.8047C2.31585 21.6797 2.25 21.5101 2.25 21.3333C2.25 21.1565 2.31585 20.987 2.43306 20.8619C2.55027 20.7369 2.70924 20.6667 2.875 20.6667H3.5V12.6667C3.5 12.4899 3.56585 12.3203 3.68306 12.1953C3.80027 12.0702 3.95924 12 4.125 12ZM6.625 12.6667C6.79076 12.6667 6.94973 12.7369 7.06694 12.8619C7.18415 12.987 7.25 13.1565 7.25 13.3333L6.625 12.6667L17.9094 12.6677L17.25 13.3333C17.25 13.1565 17.3158 12.987 17.4331 12.8619C17.5503 12.7369 17.7092 12.6667 17.875 12.6667C18.0408 12.6667 18.1997 12.7369 18.3169 12.8619C18.4342 12.987 18.5 13.1565 18.5 13.3333V18C18.5 18.3536 18.3683 18.6928 18.1339 18.9428C17.8995 19.1929 17.5815 19.3333 17.25 19.3333H7.25C6.91848 19.3333 6.60054 19.1929 6.36612 18.9428C6.1317 18.6928 6 18.3536 6 18V13.3333C6 13.1565 6.06585 12.987 6.18306 12.8619C6.30027 12.7369 6.45924 12.6667 6.625 12.6667Z" fill="white"/>
<path d="M5.9625 2.46665C6.07986 2.32029 6.22555 2.20279 6.38954 2.12223C6.55354 2.04167 6.73195 1.99997 6.9125 1.99998H17.5875C17.7681 1.99997 17.9465 2.04167 18.1105 2.12223C18.2745 2.20279 18.4201 2.32029 18.5375 2.46665L21.7987 6.52531C22.0899 6.88776 22.25 7.34933 22.25 7.82665V8.16665C22.2501 8.82661 22.0568 9.47011 21.6973 10.0072C21.3377 10.5443 20.8298 10.9481 20.2446 11.1623C19.6594 11.3765 19.026 11.3902 18.4331 11.2017C17.8401 11.0131 17.3173 10.6317 16.9375 10.1106C16.6602 10.4917 16.3048 10.7999 15.8985 11.0119C15.4923 11.2238 15.046 11.3338 14.5938 11.3333C14.1415 11.3339 13.6952 11.2239 13.2889 11.012C12.8826 10.8001 12.5273 10.4917 12.25 10.1106C11.9727 10.4917 11.6174 10.8001 11.2111 11.012C10.8048 11.2239 10.3585 11.3339 9.90625 11.3333C9.45401 11.3339 9.00765 11.2239 8.6014 11.012C8.19514 10.8001 7.83976 10.4917 7.5625 10.1106C7.18274 10.6317 6.65985 11.0131 6.06692 11.2017C5.47399 11.3902 4.84065 11.3765 4.25541 11.1623C3.67017 10.9481 3.16228 10.5443 2.80273 10.0072C2.44318 9.47011 2.24993 8.82661 2.25 8.16665V7.82665C2.25002 7.34933 2.41007 6.88776 2.70125 6.52531L5.96375 2.46531L5.9625 2.46665ZM8.1875 8.16665C8.1875 8.65288 8.36858 9.11919 8.69091 9.46301C9.01324 9.80683 9.45041 9.99998 9.90625 9.99998C10.3621 9.99998 10.7993 9.80683 11.1216 9.46301C11.4439 9.11919 11.625 8.65288 11.625 8.16665C11.625 7.98983 11.6908 7.82027 11.8081 7.69524C11.9253 7.57022 12.0842 7.49998 12.25 7.49998C12.4158 7.49998 12.5747 7.57022 12.6919 7.69524C12.8092 7.82027 12.875 7.98983 12.875 8.16665C12.875 8.65288 13.0561 9.11919 13.3784 9.46301C13.7007 9.80683 14.1379 9.99998 14.5938 9.99998C15.0496 9.99998 15.4868 9.80683 15.8091 9.46301C16.1314 9.11919 16.3125 8.65288 16.3125 8.16665C16.3125 7.98983 16.3783 7.82027 16.4956 7.69524C16.6128 7.57022 16.7717 7.49998 16.9375 7.49998C17.1033 7.49998 17.2622 7.57022 17.3794 7.69524C17.4967 7.82027 17.5625 7.98983 17.5625 8.16665C17.5625 8.65288 17.7436 9.11919 18.0659 9.46301C18.3882 9.80683 18.8254 9.99998 19.2812 9.99998C19.7371 9.99998 19.9223 9.91018 20.2446 9.56636C19.9493 9.10333 20.2446 9.48621 20.2446 8.99998V8.65998C20.2446 8.50108 20.2981 8.62074 20.2013 8.49998L21.3216 8.65998L19.75 10.5L16.9375 9.22146L15.25 10.5L12.25 9.49998L9.75 10.5L7.75 9.49998L5.75 10.5L3.75 9.49998C3.65318 9.62074 4.0034 9.06256 4.00341 9.22146L4.25 9.49998C4.25 9 4.25 9.98621 4.25 9.49998C4.57233 9.8438 4.79416 9.49998 5.25 9.49998C5.70584 9.49998 6.11176 9.80683 6.43409 9.46301C6.75642 9.11919 6.9375 8.65288 6.9375 8.16665C6.9375 7.98983 7.00335 7.82027 7.12056 7.69524C7.23777 7.57022 7.39674 7.49998 7.5625 7.49998C7.72826 7.49998 7.88723 7.57022 8.00444 7.69524C8.12165 7.82027 8.1875 7.98983 8.1875 8.16665Z" fill="white"/>
</svg>
