<svg width="15" height="13" viewBox="0 0 15 13" fill="none" xmlns="http://www.w3.org/2000/svg">
<path d="M12.963 1.06043C12.2609 0.382121 11.4091 0.0429688 10.4076 0.0429688C9.40603 0.0429688 8.54389 0.382121 7.82113 1.06043L1.06854 7.61404C0.531635 8.13274 0.263184 8.74122 0.263184 9.43948C0.263184 10.1377 0.531635 10.7462 1.06854 11.2649C1.60544 11.7836 2.22495 12.043 2.92705 12.043C3.6085 12.043 4.21768 11.7836 4.75459 11.2649L11.5691 4.68137C11.8789 4.40207 12.0338 4.02302 12.0338 3.54422C12.0338 3.12526 11.8789 2.73624 11.5691 2.37713C11.2387 2.05793 10.8464 1.89833 10.3921 1.89833C9.93777 1.89833 9.56607 2.05793 9.27697 2.37713L2.989 8.45195C2.67925 8.7512 2.67925 9.05045 2.989 9.3497C3.2781 9.6689 3.58785 9.6689 3.91826 9.3497L10.1133 3.27489C10.2785 3.13524 10.4334 3.13524 10.5779 3.27489C10.7225 3.43449 10.7225 3.58412 10.5779 3.72377L3.85631 10.3073C3.58785 10.5667 3.2781 10.6963 2.92705 10.6963C2.576 10.6963 2.26625 10.5667 1.99779 10.3073C1.72934 10.048 1.59512 9.7487 1.59512 9.40955C1.59512 9.0704 1.72934 8.77115 1.99779 8.5118L8.71941 1.95818C9.19436 1.49933 9.75192 1.2699 10.3921 1.2699C11.0322 1.2699 11.5795 1.49933 12.0338 1.95818C12.4881 2.39708 12.7152 2.92077 12.7152 3.52925C12.7152 4.13773 12.4881 4.6714 12.0338 5.13025L6.21042 10.7562C5.92132 11.0355 5.92132 11.3347 6.21042 11.6539C6.54082 11.9332 6.85057 11.9332 7.13968 11.6539L12.963 6.02801C13.6651 5.32975 14.0162 4.50182 14.0162 3.54422C14.0162 2.58661 13.6651 1.75868 12.963 1.06043Z" fill="#7A7A7C"/>
</svg>
