<svg width="24" height="24" viewBox="0 0 24 24" fill="none" xmlns="http://www.w3.org/2000/svg">
<path d="M15.056 18.4151H19.2C19.4122 18.4151 19.6157 18.3306 19.7657 18.1802C19.9157 18.0298 20 17.8259 20 17.6132C20 17.4005 19.9157 17.1966 19.7657 17.0462C19.6157 16.8958 19.4122 16.8113 19.2 16.8113H15.056C14.8878 16.3469 14.5811 15.9456 14.1775 15.6621C13.7738 15.3785 13.2929 15.2264 12.8 15.2264C12.3071 15.2264 11.8262 15.3785 11.4225 15.6621C11.0189 15.9456 10.7122 16.3469 10.544 16.8113H4.8C4.58783 16.8113 4.38434 16.8958 4.23431 17.0462C4.08428 17.1966 4 17.4005 4 17.6132C4 17.8259 4.08428 18.0298 4.23431 18.1802C4.38434 18.3306 4.58783 18.4151 4.8 18.4151H10.544C10.7122 18.8795 11.0189 19.2808 11.4225 19.5643C11.8262 19.8479 12.3071 20 12.8 20C13.2929 20 13.7738 19.8479 14.1775 19.5643C14.5811 19.2808 14.8878 18.8795 15.056 18.4151V18.4151ZM12 17.6132C12 17.4546 12.0469 17.2996 12.1348 17.1677C12.2227 17.0358 12.3477 16.9331 12.4939 16.8724C12.64 16.8117 12.8009 16.7958 12.9561 16.8267C13.1113 16.8577 13.2538 16.934 13.3657 17.0462C13.4776 17.1583 13.5538 17.3012 13.5846 17.4568C13.6155 17.6123 13.5997 17.7735 13.5391 17.9201C13.4786 18.0666 13.376 18.1918 13.2445 18.2799C13.1129 18.3681 12.9582 18.4151 12.8 18.4151C12.5878 18.4151 12.3843 18.3306 12.2343 18.1802C12.0843 18.0298 12 17.8259 12 17.6132ZM10.256 12.8019L19.2 12.8019C19.4122 12.8019 19.6157 12.7174 19.7657 12.567C19.9157 12.4166 20 12.2127 20 12C20 11.7873 19.9157 11.5834 19.7657 11.433C19.6157 11.2826 19.4122 11.1981 19.2 11.1981L10.256 11.1981C10.0878 10.7337 9.7811 10.3324 9.37747 10.0489C8.97384 9.76532 8.4929 9.6132 8 9.6132C7.5071 9.6132 7.02616 9.76532 6.62253 10.0489C6.2189 10.3324 5.91216 10.7337 5.744 11.1981L4.8 11.1981C4.58783 11.1981 4.38434 11.2826 4.23431 11.433C4.08428 11.5834 4 11.7873 4 12C4 12.2127 4.08428 12.4166 4.23431 12.567C4.38434 12.7174 4.58783 12.8019 4.8 12.8019H5.744C5.91216 13.2663 6.2189 13.6676 6.62253 13.9511C7.02616 14.2347 7.5071 14.3868 8 14.3868C8.4929 14.3868 8.97384 14.2347 9.37747 13.9511C9.7811 13.6676 10.0878 13.2663 10.256 12.8019ZM7.2 12C7.2 11.8414 7.24692 11.6864 7.33482 11.5545C7.42273 11.4226 7.54767 11.3198 7.69385 11.2592C7.84003 11.1985 8.00089 11.1826 8.15607 11.2135C8.31126 11.2445 8.4538 11.3208 8.56569 11.433C8.67757 11.5451 8.75376 11.688 8.78463 11.8436C8.8155 11.9991 8.79965 12.1603 8.7391 12.3069C8.67855 12.4534 8.57602 12.5786 8.44446 12.6667C8.3129 12.7549 8.15822 12.8019 8 12.8019C7.78783 12.8019 7.58434 12.7174 7.43431 12.567C7.28428 12.4166 7.2 12.2127 7.2 12ZM16.656 7.18868H19.2C19.4122 7.18868 19.6157 7.1042 19.7657 6.95382C19.9157 6.80343 20 6.59947 20 6.3868C20 6.17412 19.9157 5.97016 19.7657 5.81978C19.6157 5.66939 19.4122 5.58491 19.2 5.58491H16.656C16.4878 5.1205 16.1811 4.71924 15.7775 4.43568C15.3738 4.15212 14.8929 4 14.4 4C13.9071 4 13.4262 4.15212 13.0225 4.43568C12.6189 4.71924 12.3122 5.1205 12.144 5.58491L4.8 5.58491C4.58783 5.58491 4.38434 5.66939 4.23431 5.81978C4.08428 5.97016 4 6.17412 4 6.3868C4 6.59947 4.08428 6.80343 4.23431 6.95382C4.38434 7.1042 4.58783 7.18868 4.8 7.18868H12.144C12.3122 7.6531 12.6189 8.05435 13.0225 8.33791C13.4262 8.62147 13.9071 8.77359 14.4 8.77359C14.8929 8.77359 15.3738 8.62147 15.7775 8.33791C16.1811 8.05435 16.4878 7.6531 16.656 7.18868V7.18868ZM13.6 6.3868C13.6 6.2282 13.6469 6.07316 13.7348 5.94129C13.8227 5.80942 13.9477 5.70664 14.0939 5.64595C14.24 5.58526 14.4009 5.56938 14.5561 5.60032C14.7113 5.63126 14.8538 5.70763 14.9657 5.81978C15.0776 5.93192 15.1538 6.0748 15.1846 6.23036C15.2155 6.38591 15.1997 6.54714 15.1391 6.69366C15.0786 6.84019 14.976 6.96543 14.8445 7.05354C14.7129 7.14165 14.5582 7.18868 14.4 7.18868C14.1878 7.18868 13.9843 7.1042 13.8343 6.95382C13.6843 6.80343 13.6 6.59947 13.6 6.3868Z" fill="#202020"/>
</svg>
