<svg width="269" height="268" viewBox="0 0 269 268" fill="none" xmlns="http://www.w3.org/2000/svg">
<path d="M134.5 16.75C69.7508 16.75 17.25 69.2508 17.25 134C17.25 198.749 69.7508 251.25 134.5 251.25C199.249 251.25 251.75 198.749 251.75 134C251.75 69.2508 199.249 16.75 134.5 16.75ZM185.143 95.7105L130.025 172.132C129.254 173.208 128.239 174.084 127.062 174.688C125.886 175.293 124.582 175.608 123.259 175.608C121.936 175.608 120.633 175.293 119.456 174.688C118.28 174.084 117.264 173.208 116.494 172.132L83.8574 126.907C82.8629 125.52 83.8574 123.584 85.5586 123.584H97.8332C100.503 123.584 103.041 124.866 104.612 127.064L123.246 152.922L164.388 95.8676C165.959 93.6953 168.471 92.3867 171.167 92.3867H183.441C185.143 92.3867 186.137 94.3234 185.143 95.7105Z" fill="url(#paint0_linear_434_6895)"/>
<defs>
<linearGradient id="paint0_linear_434_6895" x1="17.25" y1="16.75" x2="266.075" y2="33.0889" gradientUnits="userSpaceOnUse">
<stop stop-color="#D92322"/>
<stop offset="1" stop-color="#7C142F"/>
</linearGradient>
</defs>
</svg>
