<svg width="16" height="16" viewBox="0 0 16 16" fill="none" xmlns="http://www.w3.org/2000/svg">
<path d="M12.7999 7.42406C12.7999 6.75206 12.2559 6.40006 11.5199 6.40006H9.37594C9.53594 5.82406 9.59994 5.28006 9.59994 4.80006C9.59994 2.94406 9.08794 2.56006 8.63994 2.56006C8.35194 2.56006 8.12794 2.59206 7.83994 2.75206C7.74394 2.81606 7.71194 2.88006 7.67994 2.97606L7.35994 4.70406C7.00794 5.60006 6.14394 6.40006 5.43994 6.94406V11.5201C5.69594 11.5201 5.95194 11.6481 6.27194 11.8081C6.62394 11.9681 6.97594 12.1601 7.35994 12.1601H10.3999C11.0399 12.1601 11.5199 11.6481 11.5199 11.2001C11.5199 11.1041 11.5199 11.0401 11.4879 10.9761C11.8719 10.8161 12.1599 10.4961 12.1599 10.0801C12.1599 9.88806 12.1279 9.72806 12.0639 9.56806C12.3199 9.40806 12.5439 9.12006 12.5439 8.80006C12.5439 8.60806 12.4479 8.41606 12.3519 8.25606C12.6079 8.06406 12.7999 7.74406 12.7999 7.42406ZM12.1279 7.42406C12.1279 7.84006 11.7119 7.87206 11.6479 8.06406C11.5839 8.28806 11.9039 8.35206 11.9039 8.73606C11.9039 9.12006 11.4239 9.12006 11.3599 9.34406C11.2959 9.60006 11.5199 9.66406 11.5199 10.0481V10.1121C11.4559 10.4321 10.9759 10.4641 10.8799 10.5921C10.7839 10.7521 10.8799 10.8161 10.8799 11.1681C10.8799 11.3601 10.6559 11.4881 10.3999 11.4881H7.35994C7.10394 11.4881 6.84794 11.3601 6.52794 11.2001C6.27194 11.0721 6.01594 10.9441 5.75994 10.8801V7.52006C6.55994 6.91206 7.58394 6.01606 7.96794 4.89606V4.83206L8.25594 3.23206C8.38394 3.20006 8.47994 3.20006 8.63994 3.20006C8.70394 3.20006 8.95994 3.58406 8.95994 4.80006C8.95994 5.28006 8.86394 5.79206 8.70394 6.40006H8.63994C8.44794 6.40006 8.31994 6.52806 8.31994 6.72006C8.31994 6.91206 8.44794 7.04006 8.63994 7.04006H11.5199C11.8399 7.04006 12.1279 7.20006 12.1279 7.42406Z" fill="#7A7A7C"/>
<path d="M5.12006 12.1599H3.20006C2.84806 12.1599 2.56006 11.8719 2.56006 11.5199V7.0399C2.56006 6.6879 2.84806 6.3999 3.20006 6.3999H5.12006C5.47206 6.3999 5.76006 6.6879 5.76006 7.0399V11.5199C5.76006 11.8719 5.47206 12.1599 5.12006 12.1599ZM3.20006 7.0399V11.5199H5.12006V7.0399H3.20006Z" fill="#7A7A7C"/>
</svg>
