<svg width="375" height="500" viewBox="0 0 375 500" fill="none" xmlns="http://www.w3.org/2000/svg">
<path fill-rule="evenodd" clip-rule="evenodd" d="M360.5 15.7408C367.404 15.7408 373 10.1443 373 3.24076C373 2.11993 372.853 1.03356 372.576 0H375V500H372.576C371.148 494.667 366.283 490.741 360.5 490.741C354.717 490.741 349.852 494.667 348.424 500H341.121C339.694 494.667 334.828 490.741 329.045 490.741C323.263 490.741 318.397 494.667 316.97 500H309.667C308.239 494.667 303.374 490.741 297.591 490.741C291.808 490.741 286.943 494.667 285.515 500H278.212C276.785 494.667 271.919 490.741 266.136 490.741C260.354 490.741 255.488 494.667 254.061 500H246.758C245.33 494.667 240.465 490.741 234.682 490.741C228.899 490.741 224.033 494.667 222.606 500H215.303C213.876 494.667 209.01 490.741 203.227 490.741C197.445 490.741 192.579 494.667 191.151 500H183.849C182.421 494.667 177.555 490.741 171.773 490.741C165.99 490.741 161.124 494.667 159.697 500H152.394C150.967 494.667 146.101 490.741 140.318 490.741C134.535 490.741 129.67 494.667 128.242 500H120.939C119.512 494.667 114.646 490.741 108.864 490.741C103.081 490.741 98.2153 494.667 96.7878 500H89.4849C88.0574 494.667 83.1918 490.741 77.4091 490.741C71.6264 490.741 66.7608 494.667 65.3333 500H58.0303C56.6029 494.667 51.7373 490.741 45.9545 490.741C40.1718 490.741 35.3062 494.667 33.8787 500H26.5758C25.1483 494.667 20.2827 490.741 14.5 490.741C8.71726 490.741 3.85167 494.667 2.42419 500H0V0H2.42419C2.14752 1.03356 2 2.11993 2 3.24076C2 10.1443 7.59644 15.7408 14.5 15.7408C21.4036 15.7408 27 10.1443 27 3.24076C27 2.11993 26.8525 1.03356 26.5758 0H33.8787C33.6021 1.03356 33.4545 2.11993 33.4545 3.24076C33.4545 10.1443 39.051 15.7408 45.9545 15.7408C52.8581 15.7408 58.4545 10.1443 58.4545 3.24076C58.4545 2.11993 58.307 1.03356 58.0303 0H65.3333C65.0566 1.03356 64.9091 2.11993 64.9091 3.24076C64.9091 10.1443 70.5055 15.7408 77.4091 15.7408C84.3127 15.7408 89.9091 10.1443 89.9091 3.24076C89.9091 2.11993 89.7616 1.03356 89.4849 0H96.7878C96.5112 1.03356 96.3636 2.11993 96.3636 3.24076C96.3636 10.1443 101.96 15.7408 108.864 15.7408C115.767 15.7408 121.364 10.1443 121.364 3.24076C121.364 2.11993 121.216 1.03356 120.939 0H128.242C127.966 1.03356 127.818 2.11993 127.818 3.24076C127.818 10.1443 133.415 15.7408 140.318 15.7408C147.222 15.7408 152.818 10.1443 152.818 3.24076C152.818 2.11993 152.671 1.03356 152.394 0H159.697C159.42 1.03356 159.273 2.11993 159.273 3.24076C159.273 10.1443 164.869 15.7408 171.773 15.7408C178.676 15.7408 184.273 10.1443 184.273 3.24076C184.273 2.11993 184.125 1.03356 183.849 0H187.5H191.151C190.875 1.03356 190.727 2.11993 190.727 3.24076C190.727 10.1443 196.324 15.7408 203.227 15.7408C210.131 15.7408 215.727 10.1443 215.727 3.24076C215.727 2.11993 215.58 1.03356 215.303 0H222.606C222.329 1.03356 222.182 2.11993 222.182 3.24076C222.182 10.1443 227.778 15.7408 234.682 15.7408C241.585 15.7408 247.182 10.1443 247.182 3.24076C247.182 2.11993 247.034 1.03356 246.758 0H254.061C253.784 1.03356 253.636 2.11993 253.636 3.24076C253.636 10.1443 259.233 15.7408 266.136 15.7408C273.04 15.7408 278.636 10.1443 278.636 3.24076C278.636 2.11993 278.489 1.03356 278.212 0H285.515C285.238 1.03356 285.091 2.11993 285.091 3.24076C285.091 10.1443 290.687 15.7408 297.591 15.7408C304.494 15.7408 310.091 10.1443 310.091 3.24076C310.091 2.11993 309.943 1.03356 309.667 0H316.97C316.693 1.03356 316.545 2.11993 316.545 3.24076C316.545 10.1443 322.142 15.7408 329.045 15.7408C335.949 15.7408 341.545 10.1443 341.545 3.24076C341.545 2.11993 341.398 1.03356 341.121 0H348.424C348.148 1.03356 348 2.11993 348 3.24076C348 10.1443 353.596 15.7408 360.5 15.7408Z" fill="white"/>
</svg>
