<svg width="20" height="20" viewBox="0 0 20 20" fill="none" xmlns="http://www.w3.org/2000/svg">
<path d="M6.89984 2.08362C7.42484 2.09959 7.93317 2.19126 8.42567 2.35876H8.47484C8.50817 2.37459 8.53317 2.39209 8.54984 2.40792C8.734 2.46709 8.90817 2.53376 9.07484 2.62542L9.3915 2.76709C9.5165 2.83376 9.6665 2.95792 9.74984 3.00876C9.83317 3.05792 9.92484 3.10876 9.99984 3.16626C10.9257 2.45876 12.0498 2.07542 13.2082 2.08362C13.734 2.08362 14.259 2.15792 14.7582 2.32542C17.834 3.32542 18.9423 6.70043 18.0165 9.65043C17.4915 11.1579 16.6332 12.5338 15.509 13.6579C13.8998 15.2163 12.134 16.5996 10.2332 17.7913L10.0248 17.9171L9.80817 17.7829C7.90067 16.5996 6.12484 15.2163 4.50067 13.6496C3.384 12.5254 2.52484 11.1579 1.9915 9.65043C1.04984 6.70043 2.15817 3.32542 5.26734 2.30792C5.509 2.22459 5.75817 2.16626 6.00817 2.13376H6.10817C6.34234 2.09959 6.57484 2.08362 6.80817 2.08362H6.89984ZM14.3248 4.71709C13.9832 4.59959 13.6082 4.78376 13.4832 5.13376C13.3665 5.48376 13.5498 5.86709 13.8998 5.99126C14.434 6.19126 14.7915 6.71709 14.7915 7.29959V7.32542C14.7757 7.51626 14.8332 7.70042 14.9498 7.84209C15.0665 7.98376 15.2415 8.06626 15.4248 8.08376C15.7665 8.07459 16.0582 7.80043 16.0832 7.44959V7.35042C16.1082 6.18292 15.4007 5.12542 14.3248 4.71709Z" fill="#EB5757"/>
</svg>
