<svg width="44" height="44" viewBox="0 0 44 44" fill="none" xmlns="http://www.w3.org/2000/svg">
<circle cx="22" cy="22" r="22" fill="url(#paint0_linear_74_1830)"/>
<path d="M22 17C22.1658 17 22.3247 17.0658 22.4419 17.1831C22.5592 17.3003 22.625 17.4592 22.625 17.625V21.375H26.375C26.5408 21.375 26.6997 21.4408 26.8169 21.5581C26.9342 21.6753 27 21.8342 27 22C27 22.1658 26.9342 22.3247 26.8169 22.4419C26.6997 22.5592 26.5408 22.625 26.375 22.625H22.625V26.375C22.625 26.5408 22.5592 26.6997 22.4419 26.8169C22.3247 26.9342 22.1658 27 22 27C21.8342 27 21.6753 26.9342 21.5581 26.8169C21.4408 26.6997 21.375 26.5408 21.375 26.375V22.625H17.625C17.4592 22.625 17.3003 22.5592 17.1831 22.4419C17.0658 22.3247 17 22.1658 17 22C17 21.8342 17.0658 21.6753 17.1831 21.5581C17.3003 21.4408 17.4592 21.375 17.625 21.375H21.375V17.625C21.375 17.4592 21.4408 17.3003 21.5581 17.1831C21.6753 17.0658 21.8342 17 22 17Z" fill="white"/>
<defs>
<linearGradient id="paint0_linear_74_1830" x1="0" y1="0" x2="46.6879" y2="3.06572" gradientUnits="userSpaceOnUse">
<stop stop-color="#D92322"/>
<stop offset="1" stop-color="#7C142F"/>
</linearGradient>
</defs>
</svg>
