<svg width="235" height="235" viewBox="0 0 235 235" fill="none" xmlns="http://www.w3.org/2000/svg">
<path d="M117.25 0C52.5008 0 0 52.5008 0 117.25C0 181.999 52.5008 234.5 117.25 234.5C181.999 234.5 234.5 181.999 234.5 117.25C234.5 52.5008 181.999 0 117.25 0ZM167.893 78.9605L112.775 155.382C112.004 156.458 110.989 157.334 109.812 157.938C108.636 158.543 107.332 158.858 106.009 158.858C104.686 158.858 103.383 158.543 102.206 157.938C101.03 157.334 100.014 156.458 99.2438 155.382L66.6074 110.157C65.6129 108.77 66.6074 106.834 68.3086 106.834H80.5832C83.2527 106.834 85.7914 108.116 87.3617 110.314L105.996 136.172L147.138 79.1176C148.709 76.9453 151.221 75.6367 153.917 75.6367H166.191C167.893 75.6367 168.887 77.5734 167.893 78.9605Z" fill="url(#paint0_linear_55_1000)"/>
<defs>
<linearGradient id="paint0_linear_55_1000" x1="0" y1="0" x2="248.825" y2="16.3389" gradientUnits="userSpaceOnUse">
<stop stop-color="#D92322"/>
<stop offset="1" stop-color="#7C142F"/>
</linearGradient>
</defs>
</svg>
