<svg width="297" height="39" viewBox="0 0 297 39" fill="none" xmlns="http://www.w3.org/2000/svg">
<path d="M6 0.5H291C294.038 0.5 296.5 2.96243 296.5 6V33C296.5 36.0376 294.038 38.5 291 38.5H6.00001C2.96244 38.5 0.5 36.0376 0.5 33V6C0.5 2.96243 2.96243 0.5 6 0.5Z" fill="#E0E0E0" fill-opacity="0.2"/>
<path d="M111.082 25H109.604L113.877 13.3636H115.332L119.604 25H118.127L114.65 15.2045H114.559L111.082 25ZM111.627 20.4545H117.582V21.7045H111.627V20.4545ZM124.531 25.1818C123.803 25.1818 123.161 24.9981 122.604 24.6307C122.048 24.2595 121.612 23.7367 121.298 23.0625C120.983 22.3845 120.826 21.5833 120.826 20.6591C120.826 19.7424 120.983 18.947 121.298 18.2727C121.612 17.5985 122.049 17.0777 122.61 16.7102C123.171 16.3428 123.818 16.1591 124.553 16.1591C125.121 16.1591 125.57 16.2538 125.9 16.4432C126.233 16.6288 126.487 16.8409 126.661 17.0795C126.839 17.3144 126.978 17.5076 127.076 17.6591H127.19V13.3636H128.531V25H127.235V23.6591H127.076C126.978 23.8182 126.837 24.0189 126.656 24.2614C126.474 24.5 126.214 24.714 125.877 24.9034C125.54 25.089 125.091 25.1818 124.531 25.1818ZM124.712 23.9773C125.25 23.9773 125.705 23.8371 126.076 23.5568C126.447 23.2727 126.729 22.8807 126.923 22.3807C127.116 21.8769 127.212 21.2955 127.212 20.6364C127.212 19.9848 127.118 19.4148 126.928 18.9261C126.739 18.4337 126.459 18.0511 126.087 17.7784C125.716 17.5019 125.258 17.3636 124.712 17.3636C124.144 17.3636 123.671 17.5095 123.292 17.8011C122.917 18.089 122.635 18.4811 122.445 18.9773C122.26 19.4697 122.167 20.0227 122.167 20.6364C122.167 21.2576 122.262 21.822 122.451 22.3295C122.644 22.8333 122.928 23.2348 123.303 23.5341C123.682 23.8295 124.152 23.9773 124.712 23.9773ZM134.468 25.1818C133.741 25.1818 133.099 24.9981 132.542 24.6307C131.985 24.2595 131.549 23.7367 131.235 23.0625C130.921 22.3845 130.763 21.5833 130.763 20.6591C130.763 19.7424 130.921 18.947 131.235 18.2727C131.549 17.5985 131.987 17.0777 132.548 16.7102C133.108 16.3428 133.756 16.1591 134.491 16.1591C135.059 16.1591 135.508 16.2538 135.837 16.4432C136.171 16.6288 136.424 16.8409 136.599 17.0795C136.777 17.3144 136.915 17.5076 137.013 17.6591H137.127V13.3636H138.468V25H137.173V23.6591H137.013C136.915 23.8182 136.775 24.0189 136.593 24.2614C136.411 24.5 136.152 24.714 135.815 24.9034C135.478 25.089 135.029 25.1818 134.468 25.1818ZM134.65 23.9773C135.188 23.9773 135.642 23.8371 136.013 23.5568C136.385 23.2727 136.667 22.8807 136.86 22.3807C137.053 21.8769 137.15 21.2955 137.15 20.6364C137.15 19.9848 137.055 19.4148 136.866 18.9261C136.676 18.4337 136.396 18.0511 136.025 17.7784C135.654 17.5019 135.195 17.3636 134.65 17.3636C134.082 17.3636 133.608 17.5095 133.229 17.8011C132.854 18.089 132.572 18.4811 132.383 18.9773C132.197 19.4697 132.104 20.0227 132.104 20.6364C132.104 21.2576 132.199 21.822 132.388 22.3295C132.582 22.8333 132.866 23.2348 133.241 23.5341C133.62 23.8295 134.089 23.9773 134.65 23.9773ZM145.792 25V13.3636H149.724C150.637 13.3636 151.383 13.5284 151.962 13.858C152.546 14.1837 152.978 14.625 153.258 15.1818C153.538 15.7386 153.678 16.3598 153.678 17.0455C153.678 17.7311 153.538 18.3542 153.258 18.9148C152.981 19.4754 152.553 19.9223 151.974 20.2557C151.394 20.5852 150.652 20.75 149.746 20.75H146.928V19.5H149.701C150.326 19.5 150.828 19.392 151.207 19.1761C151.585 18.9602 151.86 18.6686 152.031 18.3011C152.205 17.9299 152.292 17.5114 152.292 17.0455C152.292 16.5795 152.205 16.1629 152.031 15.7955C151.86 15.428 151.584 15.1402 151.201 14.9318C150.818 14.7197 150.311 14.6136 149.678 14.6136H147.201V25H145.792ZM157.107 19.75V25H155.766V13.3636H157.107V17.6364H157.221C157.425 17.1856 157.732 16.8277 158.141 16.5625C158.554 16.2936 159.103 16.1591 159.789 16.1591C160.384 16.1591 160.905 16.2784 161.352 16.517C161.799 16.7519 162.145 17.1136 162.391 17.6023C162.641 18.0871 162.766 18.7045 162.766 19.4545V25H161.425V19.5455C161.425 18.8523 161.246 18.3163 160.886 17.9375C160.53 17.5549 160.035 17.3636 159.403 17.3636C158.963 17.3636 158.569 17.4564 158.221 17.642C157.876 17.8277 157.603 18.0985 157.403 18.4545C157.206 18.8106 157.107 19.2424 157.107 19.75ZM168.765 25.1818C167.977 25.1818 167.286 24.9943 166.691 24.6193C166.1 24.2443 165.638 23.7197 165.305 23.0455C164.975 22.3712 164.81 21.5833 164.81 20.6818C164.81 19.7727 164.975 18.9792 165.305 18.3011C165.638 17.6231 166.1 17.0966 166.691 16.7216C167.286 16.3466 167.977 16.1591 168.765 16.1591C169.553 16.1591 170.242 16.3466 170.833 16.7216C171.428 17.0966 171.89 17.6231 172.219 18.3011C172.553 18.9792 172.719 19.7727 172.719 20.6818C172.719 21.5833 172.553 22.3712 172.219 23.0455C171.89 23.7197 171.428 24.2443 170.833 24.6193C170.242 24.9943 169.553 25.1818 168.765 25.1818ZM168.765 23.9773C169.363 23.9773 169.856 23.8239 170.242 23.517C170.629 23.2102 170.915 22.8068 171.1 22.3068C171.286 21.8068 171.379 21.2652 171.379 20.6818C171.379 20.0985 171.286 19.5549 171.1 19.0511C170.915 18.5473 170.629 18.1402 170.242 17.8295C169.856 17.5189 169.363 17.3636 168.765 17.3636C168.166 17.3636 167.674 17.5189 167.288 17.8295C166.901 18.1402 166.615 18.5473 166.43 19.0511C166.244 19.5549 166.151 20.0985 166.151 20.6818C166.151 21.2652 166.244 21.8068 166.43 22.3068C166.615 22.8068 166.901 23.2102 167.288 23.517C167.674 23.8239 168.166 23.9773 168.765 23.9773ZM178.562 16.2727V17.4091H174.039V16.2727H178.562ZM175.357 14.1818H176.698V22.5C176.698 22.8788 176.753 23.1629 176.863 23.3523C176.977 23.5379 177.121 23.6629 177.295 23.7273C177.473 23.7879 177.66 23.8182 177.857 23.8182C178.005 23.8182 178.126 23.8106 178.221 23.7955C178.316 23.7765 178.391 23.7614 178.448 23.75L178.721 24.9545C178.63 24.9886 178.503 25.0227 178.34 25.0568C178.177 25.0947 177.971 25.1136 177.721 25.1136C177.342 25.1136 176.971 25.0322 176.607 24.8693C176.247 24.7064 175.948 24.4583 175.71 24.125C175.475 23.7917 175.357 23.3712 175.357 22.8636V14.1818ZM184.031 25.1818C183.243 25.1818 182.551 24.9943 181.957 24.6193C181.366 24.2443 180.904 23.7197 180.57 23.0455C180.241 22.3712 180.076 21.5833 180.076 20.6818C180.076 19.7727 180.241 18.9792 180.57 18.3011C180.904 17.6231 181.366 17.0966 181.957 16.7216C182.551 16.3466 183.243 16.1591 184.031 16.1591C184.818 16.1591 185.508 16.3466 186.099 16.7216C186.693 17.0966 187.156 17.6231 187.485 18.3011C187.818 18.9792 187.985 19.7727 187.985 20.6818C187.985 21.5833 187.818 22.3712 187.485 23.0455C187.156 23.7197 186.693 24.2443 186.099 24.6193C185.508 24.9943 184.818 25.1818 184.031 25.1818ZM184.031 23.9773C184.629 23.9773 185.121 23.8239 185.508 23.517C185.894 23.2102 186.18 22.8068 186.366 22.3068C186.551 21.8068 186.644 21.2652 186.644 20.6818C186.644 20.0985 186.551 19.5549 186.366 19.0511C186.18 18.5473 185.894 18.1402 185.508 17.8295C185.121 17.5189 184.629 17.3636 184.031 17.3636C183.432 17.3636 182.94 17.5189 182.553 17.8295C182.167 18.1402 181.881 18.5473 181.695 19.0511C181.51 19.5549 181.417 20.0985 181.417 20.6818C181.417 21.2652 181.51 21.8068 181.695 22.3068C181.881 22.8068 182.167 23.2102 182.553 23.517C182.94 23.8239 183.432 23.9773 184.031 23.9773Z" fill="url(#paint0_linear_2888_14567)"/>
<path d="M6 0.5H291C294.038 0.5 296.5 2.96243 296.5 6V33C296.5 36.0376 294.038 38.5 291 38.5H6.00001C2.96244 38.5 0.5 36.0376 0.5 33V6C0.5 2.96243 2.96243 0.5 6 0.5Z" stroke="url(#paint1_linear_2888_14567)"/>
<defs>
<linearGradient id="paint0_linear_2888_14567" x1="109" y1="10" x2="188.199" y2="31.897" gradientUnits="userSpaceOnUse">
<stop stop-color="#D92322"/>
<stop offset="1" stop-color="#7C142F"/>
</linearGradient>
<linearGradient id="paint1_linear_2888_14567" x1="0" y1="0" x2="253.19" y2="126.61" gradientUnits="userSpaceOnUse">
<stop stop-color="#D92322"/>
<stop offset="1" stop-color="#7C142F"/>
</linearGradient>
</defs>
</svg>
