<svg width="18" height="18" viewBox="0 0 18 18" fill="none" xmlns="http://www.w3.org/2000/svg">
<path d="M7.33317 3.16667H10.6665C10.6665 2.72464 10.4909 2.30072 10.1783 1.98816C9.86579 1.67559 9.44186 1.5 8.99984 1.5C8.55781 1.5 8.13389 1.67559 7.82133 1.98816C7.50877 2.30072 7.33317 2.72464 7.33317 3.16667ZM6.08317 3.16667C6.08317 2.78364 6.15861 2.40437 6.30519 2.05051C6.45176 1.69664 6.6666 1.37511 6.93744 1.10427C7.20828 0.833434 7.52981 0.618594 7.88368 0.472018C8.23754 0.325442 8.61682 0.25 8.99984 0.25C9.38286 0.25 9.76213 0.325442 10.116 0.472018C10.4699 0.618594 10.7914 0.833434 11.0622 1.10427C11.3331 1.37511 11.5479 1.69664 11.6945 2.05051C11.8411 2.40437 11.9165 2.78364 11.9165 3.16667H16.7082C16.8739 3.16667 17.0329 3.23251 17.1501 3.34973C17.2673 3.46694 17.3332 3.62591 17.3332 3.79167C17.3332 3.95743 17.2673 4.1164 17.1501 4.23361C17.0329 4.35082 16.8739 4.41667 16.7082 4.41667H15.6082L14.6332 14.5092C14.5584 15.2825 14.1982 16.0002 13.6229 16.5224C13.0476 17.0445 12.2984 17.3336 11.5215 17.3333H6.47817C5.70139 17.3334 4.95242 17.0442 4.37729 16.5221C3.80217 15.9999 3.44212 15.2823 3.36734 14.5092L2.3915 4.41667H1.2915C1.12574 4.41667 0.966772 4.35082 0.849562 4.23361C0.732352 4.1164 0.666504 3.95743 0.666504 3.79167C0.666504 3.62591 0.732352 3.46694 0.849562 3.34973C0.966772 3.23251 1.12574 3.16667 1.2915 3.16667H6.08317ZM7.74984 7.125C7.74984 6.95924 7.68399 6.80027 7.56678 6.68306C7.44957 6.56585 7.2906 6.5 7.12484 6.5C6.95908 6.5 6.80011 6.56585 6.6829 6.68306C6.56569 6.80027 6.49984 6.95924 6.49984 7.125V13.375C6.49984 13.5408 6.56569 13.6997 6.6829 13.8169C6.80011 13.9342 6.95908 14 7.12484 14C7.2906 14 7.44957 13.9342 7.56678 13.8169C7.68399 13.6997 7.74984 13.5408 7.74984 13.375V7.125ZM10.8748 6.5C11.0406 6.5 11.1996 6.56585 11.3168 6.68306C11.434 6.80027 11.4998 6.95924 11.4998 7.125V13.375C11.4998 13.5408 11.434 13.6997 11.3168 13.8169C11.1996 13.9342 11.0406 14 10.8748 14C10.7091 14 10.5501 13.9342 10.4329 13.8169C10.3157 13.6997 10.2498 13.5408 10.2498 13.375V7.125C10.2498 6.95924 10.3157 6.80027 10.4329 6.68306C10.5501 6.56585 10.7091 6.5 10.8748 6.5ZM4.6115 14.3892C4.65645 14.853 4.87254 15.2835 5.21764 15.5968C5.56275 15.91 6.01213 16.0834 6.47817 16.0833H11.5215C11.9875 16.0834 12.4369 15.91 12.782 15.5968C13.1271 15.2835 13.3432 14.853 13.3882 14.3892L14.3532 4.41667H3.6465L4.6115 14.3892Z" fill="black"/>
</svg>
