<svg width="24" height="24" viewBox="0 0 24 24" fill="none" xmlns="http://www.w3.org/2000/svg">
<path d="M12 19C10.2333 19 8.696 18.4293 7.388 17.288C6.07933 16.146 5.30833 14.7167 5.075 13H2V11H5.075C5.30833 9.28333 6.07933 7.854 7.388 6.712C8.696 5.57067 10.2333 5 12 5C13.7667 5 15.3043 5.57067 16.613 6.712C17.921 7.854 18.6917 9.28333 18.925 11H22V13H18.925C18.6917 14.7167 17.921 16.146 16.613 17.288C15.3043 18.4293 13.7667 19 12 19ZM10 15.5H14C14.2833 15.5 14.521 15.404 14.713 15.212C14.9043 15.0207 15 14.7833 15 14.5V11.5C15 11.2167 14.9043 10.979 14.713 10.787C14.521 10.5957 14.2833 10.5 14 10.5V9.6C14 9.01667 13.8083 8.521 13.425 8.113C13.0417 7.70433 12.5667 7.5 12 7.5C11.45 7.5 10.9793 7.69567 10.588 8.087C10.196 8.479 10 8.95 10 9.5V10.5C9.71667 10.5 9.47933 10.5957 9.288 10.787C9.096 10.979 9 11.2167 9 11.5V14.5C9 14.7833 9.096 15.0207 9.288 15.212C9.47933 15.404 9.71667 15.5 10 15.5ZM12 13.75C11.7833 13.75 11.6043 13.679 11.463 13.537C11.321 13.3957 11.25 13.2167 11.25 13C11.25 12.7833 11.321 12.604 11.463 12.462C11.6043 12.3207 11.7833 12.25 12 12.25C12.2167 12.25 12.396 12.3207 12.538 12.462C12.6793 12.604 12.75 12.7833 12.75 13C12.75 13.2167 12.6793 13.3957 12.538 13.537C12.396 13.679 12.2167 13.75 12 13.75ZM11 10.5V9.5C11 9.21667 11.096 8.979 11.288 8.787C11.4793 8.59567 11.7167 8.5 12 8.5C12.2833 8.5 12.521 8.59567 12.713 8.787C12.9043 8.979 13 9.21667 13 9.5V10.5H11Z" fill="#94A0B4"/>
</svg>
