<svg width="21" height="20" viewBox="0 0 21 20" fill="none" xmlns="http://www.w3.org/2000/svg">
<path d="M14.875 4.375H17.375V6.875H14.875V4.375ZM14.875 8.125H17.375V10.625H14.875V8.125ZM11.125 4.375H13.625V6.875H11.125V4.375ZM11.125 8.125H13.625V10.625H11.125V8.125Z" fill="black"/>
<path d="M9.5625 16.25C10.0803 16.25 10.5 15.8303 10.5 15.3125C10.5 14.7947 10.0803 14.375 9.5625 14.375C9.04473 14.375 8.625 14.7947 8.625 15.3125C8.625 15.8303 9.04473 16.25 9.5625 16.25Z" fill="black"/>
<path d="M13.625 18.75H5.5C5.16858 18.7497 4.85083 18.6179 4.61648 18.3835C4.38213 18.1492 4.25033 17.8314 4.25 17.5V2.5C4.25033 2.16858 4.38213 1.85083 4.61648 1.61648C4.85083 1.38213 5.16858 1.25033 5.5 1.25H13.625V2.5H5.5V17.5H13.625V12.5H14.875V17.5C14.8747 17.8314 14.7429 18.1492 14.5085 18.3835C14.2742 18.6179 13.9564 18.7497 13.625 18.75Z" fill="black"/>
</svg>
