<svg width="24" height="24" viewBox="0 0 24 24" fill="none" xmlns="http://www.w3.org/2000/svg">
<rect opacity="0.5" width="24" height="24" rx="6" fill="white"/>
<path d="M14.2037 5.75H9.89332C8.1153 5.75 7 6.99117 7 8.98257V17.2019C7 17.7807 7.45833 18.25 8.02371 18.25C8.19488 18.25 8.36335 18.2063 8.51401 18.1231L12.0216 16.1759L16.1056 18.1342C16.2164 18.1818 16.341 18.1824 16.4522 18.1358C16.5634 18.0892 16.6519 17.9993 16.6983 17.8859C16.7667 17.6769 16.6838 17.4473 16.4989 17.3343L12.4418 15.3925C12.1768 15.2434 11.8556 15.2434 11.5905 15.3925L8.07759 17.3343C8.0373 17.3569 7.98856 17.3569 7.94828 17.3343C7.90997 17.3091 7.88746 17.2651 7.88901 17.2184V8.98257C7.8944 7.50971 8.61638 6.67123 9.90949 6.67123H14.2198C15.8793 6.67123 16.1218 8.05031 16.1218 8.87776V9.25287H11.4558C11.3372 9.25718 11.2251 9.3096 11.1443 9.39859C11.0634 9.48757 11.0204 9.60582 11.0248 9.72727C11.0305 9.96855 11.2202 10.1628 11.4558 10.1686H16.1056V14.9954C16.1056 15.2482 16.3058 15.4532 16.5528 15.4532C16.7977 15.4532 16.9971 15.2516 17 15.0009V8.87776C17 6.94704 15.9332 5.75 14.2037 5.75Z" fill="white"/>
</svg>
