<svg width="15" height="16" viewBox="0 0 15 16" fill="none" xmlns="http://www.w3.org/2000/svg">
<path d="M7.5 0.5C3.36808 0.5 0 3.86808 0 8C0 12.1325 3.36808 15.5 7.5 15.5C11.2817 15.5 14.4231 12.68 14.9279 9.0275C14.9492 8.91237 14.947 8.7941 14.9213 8.67986C14.8956 8.56561 14.847 8.45777 14.7784 8.36287C14.7098 8.26796 14.6227 8.18796 14.5223 8.12772C14.4219 8.06747 14.3103 8.02822 14.1942 8.01236C14.0782 7.99649 13.9602 8.00434 13.8473 8.03542C13.7344 8.0665 13.629 8.12017 13.5374 8.19317C13.4459 8.26618 13.3701 8.35701 13.3147 8.46016C13.2593 8.56331 13.2254 8.67663 13.215 8.79327C12.8267 11.6029 10.4256 13.7692 7.5 13.7692C4.30385 13.7692 1.73077 11.1967 1.73077 8C1.73077 4.80385 4.30385 2.23077 7.5 2.23077C9.36692 2.23077 11.0244 3.11635 12.0796 4.48423L11.0515 5.51231C10.965 5.59885 10.9425 5.73788 10.9794 5.85442C11.014 5.97096 11.1115 6.04596 11.2321 6.07077C12.7881 6.37654 14.5823 6.24154 14.6573 6.23288C14.7333 6.21919 14.8029 6.18136 14.8558 6.125C14.9077 6.07423 14.9538 6.02115 14.9642 5.94442C14.9729 5.86942 15.1085 4.05962 14.8015 2.50135C14.7924 2.44333 14.7673 2.38899 14.7291 2.34438C14.6909 2.29976 14.6411 2.26663 14.5852 2.24865C14.4675 2.21288 14.329 2.23423 14.2431 2.32077L13.3056 3.25827C11.9296 1.57885 9.83481 0.5 7.5 0.5Z" fill="url(#paint0_linear_2279_16959)"/>
<defs>
<linearGradient id="paint0_linear_2279_16959" x1="7.50073" y1="0.5" x2="7.50073" y2="15.5" gradientUnits="userSpaceOnUse">
<stop stop-color="#D92322"/>
<stop offset="1" stop-color="#C00808"/>
</linearGradient>
</defs>
</svg>
