<svg width="18" height="18" viewBox="0 0 18 18" fill="none" xmlns="http://www.w3.org/2000/svg">
<path d="M2.25005 4.5C2.1307 4.5 2.01624 4.54741 1.93185 4.6318C1.84746 4.71619 1.80005 4.83065 1.80005 4.95C1.80005 5.06935 1.84746 5.18381 1.93185 5.2682C2.01624 5.35259 2.1307 5.4 2.25005 5.4H15.75C15.8694 5.4 15.9839 5.35259 16.0682 5.2682C16.1526 5.18381 16.2 5.06935 16.2 4.95C16.2 4.83065 16.1526 4.71619 16.0682 4.6318C15.9839 4.54741 15.8694 4.5 15.75 4.5H2.25005ZM2.25005 7.2C2.1307 7.2 2.01624 7.24741 1.93185 7.3318C1.84746 7.41619 1.80005 7.53065 1.80005 7.65C1.80005 7.76935 1.84746 7.88381 1.93185 7.9682C2.01624 8.05259 2.1307 8.1 2.25005 8.1H15.75C15.8694 8.1 15.9839 8.05259 16.0682 7.9682C16.1526 7.88381 16.2 7.76935 16.2 7.65C16.2 7.53065 16.1526 7.41619 16.0682 7.3318C15.9839 7.24741 15.8694 7.2 15.75 7.2H2.25005ZM1.80005 10.35C1.80005 10.2307 1.84746 10.1162 1.93185 10.0318C2.01624 9.94741 2.1307 9.9 2.25005 9.9H15.75C15.8694 9.9 15.9839 9.94741 16.0682 10.0318C16.1526 10.1162 16.2 10.2307 16.2 10.35C16.2 10.4693 16.1526 10.5838 16.0682 10.6682C15.9839 10.7526 15.8694 10.8 15.75 10.8H2.25005C2.1307 10.8 2.01624 10.7526 1.93185 10.6682C1.84746 10.5838 1.80005 10.4693 1.80005 10.35ZM2.25005 12.6C2.1307 12.6 2.01624 12.6474 1.93185 12.7318C1.84746 12.8162 1.80005 12.9307 1.80005 13.05C1.80005 13.1693 1.84746 13.2838 1.93185 13.3682C2.01624 13.4526 2.1307 13.5 2.25005 13.5H11.25C11.3694 13.5 11.4839 13.4526 11.5682 13.3682C11.6526 13.2838 11.7 13.1693 11.7 13.05C11.7 12.9307 11.6526 12.8162 11.5682 12.7318C11.4839 12.6474 11.3694 12.6 11.25 12.6H2.25005Z" fill="url(#paint0_linear_2279_16969)"/>
<defs>
<linearGradient id="paint0_linear_2279_16969" x1="9.00005" y1="4.5" x2="9.00005" y2="13.5" gradientUnits="userSpaceOnUse">
<stop stop-color="#D92322"/>
<stop offset="1" stop-color="#C00808"/>
</linearGradient>
</defs>
</svg>
